%TF.GenerationSoftware,KiCad,Pcbnew,(6.0.2-0)*%
%TF.CreationDate,2022-07-29T18:49:05+02:00*%
%TF.ProjectId,crossfaderAttenuator,63726f73-7366-4616-9465-72417474656e,rev?*%
%TF.SameCoordinates,Original*%
%TF.FileFunction,Legend,Bot*%
%TF.FilePolarity,Positive*%
%FSLAX46Y46*%
G04 Gerber Fmt 4.6, Leading zero omitted, Abs format (unit mm)*
G04 Created by KiCad (PCBNEW (6.0.2-0)) date 2022-07-29 18:49:05*
%MOMM*%
%LPD*%
G01*
G04 APERTURE LIST*
%ADD10C,0.120000*%
G04 APERTURE END LIST*
%TO.C,G\u002A\u002A\u002A*%
G36*
X148980932Y-86067136D02*
G01*
X149015721Y-86106005D01*
X149052206Y-86149178D01*
X149118678Y-86232241D01*
X149187337Y-86322279D01*
X149250866Y-86409402D01*
X149301950Y-86483718D01*
X149333272Y-86535337D01*
X149336107Y-86540872D01*
X149356114Y-86586892D01*
X149354582Y-86618077D01*
X149331152Y-86654500D01*
X149330246Y-86655690D01*
X149285133Y-86703750D01*
X149230100Y-86749479D01*
X149197454Y-86770744D01*
X149144540Y-86790749D01*
X149086847Y-86787168D01*
X149008654Y-86760806D01*
X148976431Y-86746870D01*
X148944422Y-86725714D01*
X148920242Y-86693228D01*
X148897252Y-86639653D01*
X148868813Y-86555228D01*
X148854410Y-86510967D01*
X148833526Y-86441028D01*
X148828855Y-86395966D01*
X148843632Y-86364936D01*
X148881091Y-86337094D01*
X148944468Y-86301596D01*
X148964726Y-86289671D01*
X148992837Y-86264683D01*
X149002914Y-86230977D01*
X148996525Y-86178053D01*
X148975237Y-86095412D01*
X148971030Y-86080027D01*
X148967944Y-86058976D01*
X148980932Y-86067136D01*
G37*
G36*
X148420505Y-85421461D02*
G01*
X148404394Y-85472839D01*
X148390895Y-85489794D01*
X148372853Y-85500572D01*
X148344740Y-85498358D01*
X148296910Y-85481973D01*
X148219717Y-85450235D01*
X148187337Y-85450021D01*
X148150579Y-85486720D01*
X148130884Y-85523435D01*
X148129550Y-85559815D01*
X148148319Y-85613172D01*
X148157884Y-85636368D01*
X148168609Y-85675114D01*
X148155363Y-85697741D01*
X148112681Y-85720739D01*
X148085671Y-85732714D01*
X148035817Y-85741987D01*
X147981308Y-85726939D01*
X147947363Y-85709354D01*
X147918236Y-85673826D01*
X147901770Y-85611732D01*
X147892075Y-85560755D01*
X147876044Y-85510295D01*
X147853695Y-85486827D01*
X147819160Y-85481067D01*
X147809337Y-85482223D01*
X147772201Y-85510036D01*
X147746072Y-85567263D01*
X147736197Y-85643625D01*
X147734438Y-85672473D01*
X147719390Y-85688491D01*
X147677940Y-85680592D01*
X147677789Y-85680548D01*
X147634138Y-85673743D01*
X147558736Y-85667693D01*
X147462132Y-85663056D01*
X147354879Y-85660487D01*
X147294770Y-85659494D01*
X147186400Y-85655237D01*
X147105395Y-85647111D01*
X147041423Y-85633822D01*
X146984153Y-85614076D01*
X146911506Y-85588571D01*
X146815274Y-85560787D01*
X146719349Y-85537897D01*
X146694378Y-85532498D01*
X146587069Y-85505541D01*
X146467285Y-85470646D01*
X146340918Y-85430058D01*
X146213860Y-85386023D01*
X146092003Y-85340784D01*
X145981240Y-85296586D01*
X145887463Y-85255674D01*
X145816564Y-85220292D01*
X145774436Y-85192685D01*
X145766970Y-85175098D01*
X145785320Y-85145478D01*
X145785246Y-85091901D01*
X145756425Y-85036894D01*
X145704805Y-84990179D01*
X145636329Y-84961476D01*
X145618981Y-84957134D01*
X145574040Y-84937094D01*
X145563111Y-84914985D01*
X145589942Y-84896089D01*
X145614817Y-84885907D01*
X145672434Y-84859686D01*
X145750741Y-84822593D01*
X145840200Y-84779088D01*
X145847772Y-84775378D01*
X145982381Y-84715671D01*
X146099234Y-84675704D01*
X146193939Y-84656392D01*
X146262106Y-84658650D01*
X146299344Y-84683393D01*
X146331136Y-84708297D01*
X146402637Y-84718432D01*
X146445873Y-84720312D01*
X146477976Y-84731736D01*
X146486322Y-84757943D01*
X146487811Y-84772690D01*
X146515062Y-84831554D01*
X146568856Y-84890407D01*
X146639030Y-84937313D01*
X146655537Y-84945832D01*
X146682493Y-84965191D01*
X146670292Y-84972161D01*
X146641263Y-84976386D01*
X146589483Y-84995305D01*
X146579291Y-85001036D01*
X146559530Y-85022566D01*
X146574988Y-85051595D01*
X146575303Y-85051971D01*
X146611674Y-85080346D01*
X146674683Y-85117051D01*
X146751733Y-85156062D01*
X146830231Y-85191357D01*
X146897581Y-85216914D01*
X146941187Y-85226708D01*
X146944895Y-85226545D01*
X146989819Y-85218060D01*
X147059241Y-85199270D01*
X147139769Y-85173747D01*
X147165546Y-85165018D01*
X147246564Y-85138510D01*
X147295599Y-85125803D01*
X147319059Y-85126707D01*
X147323348Y-85141035D01*
X147314873Y-85168598D01*
X147296670Y-85231766D01*
X147282646Y-85321222D01*
X147279948Y-85405422D01*
X147290019Y-85467038D01*
X147318251Y-85505577D01*
X147370187Y-85525165D01*
X147429496Y-85515429D01*
X147482997Y-85475771D01*
X147508423Y-85445400D01*
X147589885Y-85342962D01*
X147623647Y-85292451D01*
X147822858Y-85292451D01*
X147830674Y-85359719D01*
X147864840Y-85425249D01*
X147882167Y-85445373D01*
X147923819Y-85473371D01*
X147975218Y-85473584D01*
X148048666Y-85447502D01*
X148052483Y-85445789D01*
X148105502Y-85406043D01*
X148121393Y-85357675D01*
X148102422Y-85307027D01*
X148050852Y-85260445D01*
X147968950Y-85224270D01*
X147932175Y-85214445D01*
X147885604Y-85210860D01*
X147853383Y-85226297D01*
X147842226Y-85237934D01*
X147822858Y-85292451D01*
X147623647Y-85292451D01*
X147643596Y-85262605D01*
X147671470Y-85198204D01*
X147675419Y-85143632D01*
X147657354Y-85092763D01*
X147619189Y-85039472D01*
X147566420Y-84990443D01*
X147486561Y-84939223D01*
X147402255Y-84902171D01*
X147329947Y-84887906D01*
X147315561Y-84886243D01*
X147272863Y-84866086D01*
X147216377Y-84819751D01*
X147140680Y-84743090D01*
X147109958Y-84710623D01*
X147049439Y-84649026D01*
X147000621Y-84602395D01*
X146971913Y-84578912D01*
X146962659Y-84571746D01*
X146930239Y-84531515D01*
X146897767Y-84474812D01*
X146857048Y-84390075D01*
X146578455Y-84397919D01*
X146559241Y-84398424D01*
X146455512Y-84399870D01*
X146367967Y-84399018D01*
X146305322Y-84396063D01*
X146276295Y-84391197D01*
X146277752Y-84378849D01*
X146307099Y-84344243D01*
X146363507Y-84292428D01*
X146442768Y-84227540D01*
X146499056Y-84182715D01*
X146569248Y-84122615D01*
X146616011Y-84074041D01*
X146646488Y-84029137D01*
X146667822Y-83980050D01*
X146689384Y-83924227D01*
X146726679Y-83836737D01*
X146766241Y-83751182D01*
X146776163Y-83730435D01*
X146807416Y-83654603D01*
X146819613Y-83595876D01*
X146816279Y-83539338D01*
X146815977Y-83537460D01*
X146814119Y-83448041D01*
X146832416Y-83359178D01*
X146866503Y-83284610D01*
X146912013Y-83238079D01*
X146928120Y-83229541D01*
X146953835Y-83222765D01*
X146980368Y-83232762D01*
X147016958Y-83264382D01*
X147072844Y-83322471D01*
X147099225Y-83350725D01*
X147340802Y-83633117D01*
X147550109Y-83925953D01*
X147736203Y-84241784D01*
X147750135Y-84267430D01*
X147800309Y-84354985D01*
X147848977Y-84433739D01*
X147887293Y-84489208D01*
X147887762Y-84489815D01*
X147925456Y-84545918D01*
X147939082Y-84595175D01*
X147934905Y-84660061D01*
X147932612Y-84697013D01*
X147953476Y-84806932D01*
X148013593Y-84927624D01*
X148112201Y-85057381D01*
X148146977Y-85099098D01*
X148197011Y-85166303D01*
X148231280Y-85221201D01*
X148232267Y-85223085D01*
X148275434Y-85279986D01*
X148329088Y-85322045D01*
X148332612Y-85323892D01*
X148378383Y-85357675D01*
X148396017Y-85370690D01*
X148420505Y-85421461D01*
G37*
G36*
X148438671Y-85727927D02*
G01*
X148484681Y-85758680D01*
X148539799Y-85802411D01*
X148593801Y-85850521D01*
X148636466Y-85894412D01*
X148657571Y-85925486D01*
X148674109Y-85950469D01*
X148716757Y-85972260D01*
X148747963Y-85985667D01*
X148769065Y-86013491D01*
X148769366Y-86040754D01*
X148744005Y-86053044D01*
X148742579Y-86053063D01*
X148715235Y-86067932D01*
X148715107Y-86100881D01*
X148742452Y-86137781D01*
X148765339Y-86163987D01*
X148770480Y-86203337D01*
X148738802Y-86231580D01*
X148729736Y-86233553D01*
X148685105Y-86218097D01*
X148622289Y-86165994D01*
X148597902Y-86142660D01*
X148557922Y-86108966D01*
X148544474Y-86107697D01*
X148557256Y-86139292D01*
X148595964Y-86204189D01*
X148608859Y-86225712D01*
X148632956Y-86280362D01*
X148630921Y-86310746D01*
X148629187Y-86312822D01*
X148626896Y-86348846D01*
X148648463Y-86408938D01*
X148653852Y-86420443D01*
X148681629Y-86485269D01*
X148700679Y-86538164D01*
X148715547Y-86589006D01*
X148654855Y-86545553D01*
X148644058Y-86537347D01*
X148590528Y-86490266D01*
X148519394Y-86421459D01*
X148438494Y-86339033D01*
X148355665Y-86251096D01*
X148278744Y-86165754D01*
X148215568Y-86091116D01*
X148211975Y-86086680D01*
X148154134Y-86024445D01*
X148095118Y-85985814D01*
X148015156Y-85957618D01*
X147957038Y-85940894D01*
X147858898Y-85911278D01*
X147769573Y-85882776D01*
X147697036Y-85858048D01*
X147649260Y-85839754D01*
X147634218Y-85830552D01*
X147653387Y-85828910D01*
X147702753Y-85834096D01*
X147768539Y-85844612D01*
X147837420Y-85858055D01*
X147896072Y-85872021D01*
X147931170Y-85884108D01*
X147952632Y-85892379D01*
X147980720Y-85882107D01*
X147989319Y-85873694D01*
X148018775Y-85879481D01*
X148057828Y-85900726D01*
X148127696Y-85913176D01*
X148189789Y-85899349D01*
X148222375Y-85884567D01*
X148264883Y-85873956D01*
X148273288Y-85871753D01*
X148307680Y-85845330D01*
X148345597Y-85798832D01*
X148357770Y-85781249D01*
X148390764Y-85738656D01*
X148411854Y-85718797D01*
X148411990Y-85718750D01*
X148438671Y-85727927D01*
G37*
G36*
X148487340Y-85200671D02*
G01*
X148529326Y-85227539D01*
X148597682Y-85279275D01*
X148610737Y-85289760D01*
X148671786Y-85343652D01*
X148750551Y-85418203D01*
X148840093Y-85506316D01*
X148933470Y-85600893D01*
X149023742Y-85694836D01*
X149103968Y-85781049D01*
X149167209Y-85852433D01*
X149206524Y-85901892D01*
X149225464Y-85931659D01*
X149248684Y-85980339D01*
X149251761Y-86009242D01*
X149229475Y-86016632D01*
X149178316Y-86004773D01*
X149106825Y-85974839D01*
X149022309Y-85930686D01*
X148932073Y-85876173D01*
X148843422Y-85815157D01*
X148763662Y-85751496D01*
X148753050Y-85742025D01*
X148688511Y-85668759D01*
X148658904Y-85596470D01*
X148657330Y-85588685D01*
X148629758Y-85525313D01*
X148572247Y-85477829D01*
X148515917Y-85427634D01*
X148472133Y-85340737D01*
X148456582Y-85231099D01*
X148457393Y-85212977D01*
X148465454Y-85196531D01*
X148487340Y-85200671D01*
G37*
G36*
X144958085Y-81124998D02*
G01*
X145007168Y-81156212D01*
X145091211Y-81216631D01*
X145182252Y-81291006D01*
X145283068Y-81382077D01*
X145396432Y-81492580D01*
X145525119Y-81625253D01*
X145671903Y-81782835D01*
X145839558Y-81968063D01*
X146030859Y-82183676D01*
X146079830Y-82239302D01*
X146190319Y-82364916D01*
X146293140Y-82481955D01*
X146384222Y-82585779D01*
X146459495Y-82671745D01*
X146514890Y-82735213D01*
X146546336Y-82771541D01*
X146616942Y-82854211D01*
X146480150Y-82854211D01*
X146406278Y-82857855D01*
X146293969Y-82876297D01*
X146196407Y-82907137D01*
X146127240Y-82946794D01*
X146091426Y-82965388D01*
X146027646Y-82987928D01*
X145950123Y-83009269D01*
X145863416Y-83033674D01*
X145775305Y-83071299D01*
X145690417Y-83125758D01*
X145593939Y-83205200D01*
X145581764Y-83215366D01*
X145518437Y-83260545D01*
X145435642Y-83312176D01*
X145348039Y-83360973D01*
X145326347Y-83372690D01*
X145224144Y-83435926D01*
X145116701Y-83512568D01*
X145023546Y-83588899D01*
X144993676Y-83615180D01*
X144836263Y-83732465D01*
X144684557Y-83809232D01*
X144539620Y-83844920D01*
X144513364Y-83848688D01*
X144447883Y-83866033D01*
X144403643Y-83888822D01*
X144376332Y-83904408D01*
X144328922Y-83915227D01*
X144254898Y-83921142D01*
X144146429Y-83923201D01*
X144088932Y-83923689D01*
X144003870Y-83926649D01*
X143947292Y-83933462D01*
X143910038Y-83945561D01*
X143882944Y-83964375D01*
X143847744Y-84006037D01*
X143843870Y-84050958D01*
X143880399Y-84099305D01*
X143924429Y-84128441D01*
X144000999Y-84165551D01*
X144098954Y-84205723D01*
X144208267Y-84245118D01*
X144318909Y-84279897D01*
X144420851Y-84306220D01*
X144478434Y-84318516D01*
X144538112Y-84327402D01*
X144588670Y-84325718D01*
X144646508Y-84312407D01*
X144728023Y-84286411D01*
X144804542Y-84260918D01*
X144916282Y-84222498D01*
X144997329Y-84192337D01*
X145054045Y-84167820D01*
X145092792Y-84146332D01*
X145119933Y-84125255D01*
X145128469Y-84118379D01*
X145173882Y-84088378D01*
X145245874Y-84045182D01*
X145336470Y-83993489D01*
X145437698Y-83937998D01*
X145559275Y-83872211D01*
X145664775Y-83813533D01*
X145752917Y-83761916D01*
X145834277Y-83710940D01*
X145919434Y-83654187D01*
X146018962Y-83585239D01*
X146042051Y-83569216D01*
X146123829Y-83516268D01*
X146175403Y-83491429D01*
X146197383Y-83495583D01*
X146190376Y-83529610D01*
X146154991Y-83594391D01*
X146091837Y-83690808D01*
X146047623Y-83757427D01*
X145988171Y-83852535D01*
X145938135Y-83938742D01*
X145905143Y-84003277D01*
X145899114Y-84016711D01*
X145860413Y-84091122D01*
X145817041Y-84144989D01*
X145757275Y-84189969D01*
X145669395Y-84237717D01*
X145626089Y-84261058D01*
X145567353Y-84298317D01*
X145531697Y-84328294D01*
X145514199Y-84344398D01*
X145457377Y-84380211D01*
X145380810Y-84417897D01*
X145298181Y-84451030D01*
X145223171Y-84473186D01*
X145214206Y-84475434D01*
X145149950Y-84501472D01*
X145086653Y-84539474D01*
X145071598Y-84550155D01*
X145022488Y-84579530D01*
X144989457Y-84591326D01*
X144981834Y-84592392D01*
X144950687Y-84617373D01*
X144930479Y-84661223D01*
X144931049Y-84704825D01*
X144944642Y-84724314D01*
X144994330Y-84753305D01*
X145063526Y-84769296D01*
X145137675Y-84767847D01*
X145149032Y-84766170D01*
X145194383Y-84766642D01*
X145234707Y-84786513D01*
X145285709Y-84832659D01*
X145314033Y-84858985D01*
X145361758Y-84894976D01*
X145394623Y-84909091D01*
X145418774Y-84913205D01*
X145422846Y-84934353D01*
X145392046Y-84976271D01*
X145381067Y-84986817D01*
X145320988Y-85012178D01*
X145249687Y-85004150D01*
X145178368Y-84963407D01*
X145139117Y-84938247D01*
X145062341Y-84904962D01*
X144973210Y-84878445D01*
X144909621Y-84863099D01*
X144831177Y-84840758D01*
X144791251Y-84822847D01*
X144787693Y-84808218D01*
X144818355Y-84795724D01*
X144822103Y-84794735D01*
X144872469Y-84765596D01*
X144886392Y-84721395D01*
X144860936Y-84670745D01*
X144858916Y-84668563D01*
X144810914Y-84629472D01*
X144746526Y-84590625D01*
X144682175Y-84560845D01*
X144634283Y-84548957D01*
X144630040Y-84549176D01*
X144593821Y-84570969D01*
X144572171Y-84617480D01*
X144572820Y-84673099D01*
X144577978Y-84701403D01*
X144565546Y-84709587D01*
X144524068Y-84696297D01*
X144473350Y-84671645D01*
X144420851Y-84635440D01*
X144386323Y-84608759D01*
X144345393Y-84586084D01*
X144320164Y-84572376D01*
X144264205Y-84532995D01*
X144188288Y-84474191D01*
X144098812Y-84401209D01*
X144002173Y-84319294D01*
X143904770Y-84233690D01*
X143813000Y-84149643D01*
X143709760Y-84048948D01*
X143581678Y-83915430D01*
X143450056Y-83770254D01*
X143319076Y-83618625D01*
X143192922Y-83465750D01*
X143075776Y-83316837D01*
X142971822Y-83177093D01*
X142885241Y-83051723D01*
X142820218Y-82945936D01*
X142780935Y-82864937D01*
X142742234Y-82744246D01*
X142707842Y-82593981D01*
X142685402Y-82441641D01*
X142675966Y-82297537D01*
X142680588Y-82171979D01*
X142700320Y-82075275D01*
X142719780Y-82025512D01*
X142786371Y-81895344D01*
X142872641Y-81763934D01*
X142970554Y-81641714D01*
X143072073Y-81539119D01*
X143169160Y-81466583D01*
X143232187Y-81436084D01*
X143353247Y-81395361D01*
X143504619Y-81359328D01*
X143679243Y-81329584D01*
X143870058Y-81307730D01*
X143903738Y-81304709D01*
X144056526Y-81289287D01*
X144175826Y-81273195D01*
X144269069Y-81254681D01*
X144343689Y-81231993D01*
X144407120Y-81203379D01*
X144466793Y-81167089D01*
X144515267Y-81136539D01*
X144601155Y-81089369D01*
X144677371Y-81054756D01*
X144778453Y-81016386D01*
X144958085Y-81124998D01*
G37*
G36*
X144864931Y-85398384D02*
G01*
X144824169Y-85449072D01*
X144759921Y-85530351D01*
X144709437Y-85596026D01*
X144677081Y-85640376D01*
X144667216Y-85657678D01*
X144668466Y-85658467D01*
X144694529Y-85674180D01*
X144745814Y-85704799D01*
X144812761Y-85744612D01*
X144878571Y-85784881D01*
X144961968Y-85840827D01*
X145016400Y-85884140D01*
X145040479Y-85912851D01*
X145032812Y-85924993D01*
X144992010Y-85918596D01*
X144916682Y-85891693D01*
X144885864Y-85879722D01*
X144714692Y-85834933D01*
X144550706Y-85830777D01*
X144390380Y-85867090D01*
X144390323Y-85867110D01*
X144320584Y-85894789D01*
X144268817Y-85920975D01*
X144246228Y-85940001D01*
X144248714Y-85949238D01*
X144275575Y-85982784D01*
X144325612Y-86031068D01*
X144391801Y-86086996D01*
X144427745Y-86116296D01*
X144489135Y-86171530D01*
X144515940Y-86205250D01*
X144508185Y-86216681D01*
X144465897Y-86205046D01*
X144389100Y-86169570D01*
X144247003Y-86115911D01*
X144103619Y-86101084D01*
X143949347Y-86124208D01*
X143883016Y-86143754D01*
X143775339Y-86184339D01*
X143673223Y-86232099D01*
X143588529Y-86281279D01*
X143533122Y-86326124D01*
X143499556Y-86355835D01*
X143465798Y-86370974D01*
X143447460Y-86363832D01*
X143454257Y-86333499D01*
X143479324Y-86298083D01*
X143520913Y-86254058D01*
X143549959Y-86225308D01*
X143600681Y-86170328D01*
X143654901Y-86107781D01*
X143742199Y-86003637D01*
X143572972Y-86016687D01*
X143471838Y-86029521D01*
X143353269Y-86053131D01*
X143250246Y-86081669D01*
X143174767Y-86105095D01*
X143112853Y-86118384D01*
X143084459Y-86116256D01*
X143087365Y-86101071D01*
X143119350Y-86075190D01*
X143178193Y-86040973D01*
X143261673Y-86000780D01*
X143367570Y-85956972D01*
X143385904Y-85949738D01*
X143452507Y-85919842D01*
X143494246Y-85894898D01*
X143503501Y-85879264D01*
X143491039Y-85870635D01*
X143445891Y-85848145D01*
X143384100Y-85822590D01*
X143282993Y-85784210D01*
X143470604Y-85771438D01*
X143511410Y-85768275D01*
X143691010Y-85742701D01*
X143831698Y-85700712D01*
X143933611Y-85642270D01*
X143997164Y-85590948D01*
X143938907Y-85564384D01*
X143902242Y-85544712D01*
X143883540Y-85521939D01*
X143905780Y-85507378D01*
X143968381Y-85502251D01*
X143975218Y-85502169D01*
X144029424Y-85493846D01*
X144079274Y-85468697D01*
X144128749Y-85422205D01*
X144132191Y-85417514D01*
X144481543Y-85417514D01*
X144491418Y-85411369D01*
X144521499Y-85380351D01*
X144560921Y-85333456D01*
X144600441Y-85282342D01*
X144630820Y-85238664D01*
X144642815Y-85214081D01*
X144640560Y-85210156D01*
X144620274Y-85225561D01*
X144578364Y-85275003D01*
X144514143Y-85359257D01*
X144508699Y-85366713D01*
X144485413Y-85402822D01*
X144481543Y-85417514D01*
X144132191Y-85417514D01*
X144181835Y-85349853D01*
X144242513Y-85247126D01*
X144314768Y-85109507D01*
X144342728Y-85054785D01*
X144394052Y-84959926D01*
X144435081Y-84898276D01*
X144471007Y-84866239D01*
X144507024Y-84860218D01*
X144548322Y-84876615D01*
X144600095Y-84911832D01*
X144618385Y-84923174D01*
X144680895Y-84952235D01*
X144765374Y-84984181D01*
X144858884Y-85013909D01*
X144914392Y-85030457D01*
X144997339Y-85059462D01*
X145045465Y-85084418D01*
X145063401Y-85107441D01*
X145063275Y-85112314D01*
X145046267Y-85150085D01*
X145005343Y-85213575D01*
X145004974Y-85214081D01*
X144943799Y-85297952D01*
X144864931Y-85398384D01*
G37*
G36*
X143183508Y-78999221D02*
G01*
X143246716Y-79117546D01*
X143323133Y-79264666D01*
X143415452Y-79445218D01*
X143462699Y-79537417D01*
X143543893Y-79692975D01*
X143621843Y-79838911D01*
X143693424Y-79969562D01*
X143755516Y-80079263D01*
X143804996Y-80162351D01*
X143838743Y-80213160D01*
X143882563Y-80267692D01*
X144017422Y-80409363D01*
X144179030Y-80549649D01*
X144357298Y-80679476D01*
X144374879Y-80691152D01*
X144450427Y-80741567D01*
X144515618Y-80785422D01*
X144557955Y-80814319D01*
X144610323Y-80850774D01*
X144525947Y-80875203D01*
X144466161Y-80898848D01*
X144387764Y-80938584D01*
X144308830Y-80985426D01*
X144239495Y-81027775D01*
X144174457Y-81057599D01*
X144105133Y-81074499D01*
X144012482Y-81084865D01*
X143843598Y-81100220D01*
X143595633Y-81128723D01*
X143386797Y-81161281D01*
X143215157Y-81198272D01*
X143078777Y-81240073D01*
X142975723Y-81287062D01*
X142972878Y-81288703D01*
X142877976Y-81358888D01*
X142776526Y-81459986D01*
X142676281Y-81583397D01*
X142584995Y-81720517D01*
X142514262Y-81839025D01*
X142498738Y-81282106D01*
X142492961Y-81086463D01*
X142486071Y-80893855D01*
X142478276Y-80732642D01*
X142468837Y-80596933D01*
X142457012Y-80480835D01*
X142442062Y-80378454D01*
X142423246Y-80283899D01*
X142399825Y-80191276D01*
X142371057Y-80094693D01*
X142336203Y-79988256D01*
X142317901Y-79934714D01*
X142278090Y-79823410D01*
X142240709Y-79725265D01*
X142209275Y-79649337D01*
X142187305Y-79604683D01*
X142147391Y-79548972D01*
X142077580Y-79472601D01*
X141999670Y-79403997D01*
X141924295Y-79352257D01*
X141862085Y-79326476D01*
X141805919Y-79322002D01*
X141706843Y-79327644D01*
X141591991Y-79344498D01*
X141474955Y-79370441D01*
X141369327Y-79403354D01*
X141315099Y-79421686D01*
X141262814Y-79434522D01*
X141237374Y-79434176D01*
X141233492Y-79420950D01*
X141247097Y-79378922D01*
X141282050Y-79320158D01*
X141332959Y-79253162D01*
X141394431Y-79186439D01*
X141447868Y-79136634D01*
X141492005Y-79107734D01*
X141541063Y-79095200D01*
X141612295Y-79091515D01*
X141666365Y-79089115D01*
X141726742Y-79082753D01*
X141759684Y-79074377D01*
X141780100Y-79047718D01*
X141776391Y-79000032D01*
X141741915Y-78946642D01*
X141731307Y-78935076D01*
X141718770Y-78915465D01*
X141718691Y-78892398D01*
X141733886Y-78857963D01*
X141739672Y-78848625D01*
X142064005Y-78848625D01*
X142066728Y-78911708D01*
X142097540Y-78963605D01*
X142126632Y-78983843D01*
X142190367Y-78997721D01*
X142250588Y-78979586D01*
X142295427Y-78934692D01*
X142313011Y-78868288D01*
X142307638Y-78839077D01*
X142276295Y-78784745D01*
X142228882Y-78741140D01*
X142179243Y-78723269D01*
X142125004Y-78741305D01*
X142084914Y-78787457D01*
X142064005Y-78848625D01*
X141739672Y-78848625D01*
X141767169Y-78804247D01*
X141821356Y-78723337D01*
X141853958Y-78676866D01*
X141914354Y-78598630D01*
X141970062Y-78535314D01*
X142012203Y-78497425D01*
X142070704Y-78468310D01*
X142179954Y-78440471D01*
X142310248Y-78428586D01*
X142450857Y-78432772D01*
X142591052Y-78453143D01*
X142720102Y-78489815D01*
X142746207Y-78500163D01*
X142818784Y-78538082D01*
X142887664Y-78591929D01*
X142966174Y-78671545D01*
X142971328Y-78677205D01*
X143008892Y-78721120D01*
X143046200Y-78770641D01*
X143085942Y-78830406D01*
X143108713Y-78868288D01*
X143130814Y-78905054D01*
X143183508Y-78999221D01*
G37*
D10*
%TO.C,RV1*%
X141059487Y-87695604D02*
X143779487Y-87695604D01*
X149946487Y-76879604D02*
G75*
G03*
X150200487Y-87674604I-4766421J-5512639D01*
G01*
%TD*%
M02*
