%TF.GenerationSoftware,KiCad,Pcbnew,(6.0.2-0)*%
%TF.CreationDate,2022-07-29T18:49:05+02:00*%
%TF.ProjectId,crossfaderAttenuator,63726f73-7366-4616-9465-72417474656e,rev?*%
%TF.SameCoordinates,Original*%
%TF.FileFunction,Copper,L1,Top*%
%TF.FilePolarity,Positive*%
%FSLAX46Y46*%
G04 Gerber Fmt 4.6, Leading zero omitted, Abs format (unit mm)*
G04 Created by KiCad (PCBNEW (6.0.2-0)) date 2022-07-29 18:49:05*
%MOMM*%
%LPD*%
G01*
G04 APERTURE LIST*
G04 Aperture macros list*
%AMRoundRect*
0 Rectangle with rounded corners*
0 $1 Rounding radius*
0 $2 $3 $4 $5 $6 $7 $8 $9 X,Y pos of 4 corners*
0 Add a 4 corners polygon primitive as box body*
4,1,4,$2,$3,$4,$5,$6,$7,$8,$9,$2,$3,0*
0 Add four circle primitives for the rounded corners*
1,1,$1+$1,$2,$3*
1,1,$1+$1,$4,$5*
1,1,$1+$1,$6,$7*
1,1,$1+$1,$8,$9*
0 Add four rect primitives between the rounded corners*
20,1,$1+$1,$2,$3,$4,$5,0*
20,1,$1+$1,$4,$5,$6,$7,0*
20,1,$1+$1,$6,$7,$8,$9,0*
20,1,$1+$1,$8,$9,$2,$3,0*%
G04 Aperture macros list end*
%TA.AperFunction,ComponentPad*%
%ADD10R,1.900000X1.900000*%
%TD*%
%TA.AperFunction,ComponentPad*%
%ADD11R,1.930000X1.830000*%
%TD*%
%TA.AperFunction,ComponentPad*%
%ADD12C,2.130000*%
%TD*%
%TA.AperFunction,SMDPad,CuDef*%
%ADD13RoundRect,0.750000X1.250000X-0.750000X1.250000X0.750000X-1.250000X0.750000X-1.250000X-0.750000X0*%
%TD*%
%TA.AperFunction,ComponentPad*%
%ADD14O,2.000000X2.000000*%
%TD*%
%TA.AperFunction,ComponentPad*%
%ADD15R,1.800000X1.800000*%
%TD*%
%TA.AperFunction,ComponentPad*%
%ADD16C,1.800000*%
%TD*%
%TA.AperFunction,ViaPad*%
%ADD17C,0.800000*%
%TD*%
%TA.AperFunction,Conductor*%
%ADD18C,0.500000*%
%TD*%
G04 APERTURE END LIST*
D10*
%TO.P,J3,1,Pin_1*%
%TO.N,Net-(RV1-Pad2)*%
X137050000Y-76875000D03*
%TD*%
D11*
%TO.P,J2,S*%
%TO.N,GND*%
X140250000Y-76420000D03*
D12*
%TO.P,J2,T*%
%TO.N,Net-(J2-PadT)*%
X140250000Y-87820000D03*
%TO.P,J2,TN*%
%TO.N,GND*%
X140250000Y-79520000D03*
%TD*%
D13*
%TO.P,pingnd,1*%
%TO.N,GND*%
X146350000Y-76900000D03*
%TD*%
D11*
%TO.P,J1,S*%
%TO.N,GND*%
X149950000Y-76420000D03*
D12*
%TO.P,J1,T*%
%TO.N,Net-(J1-PadT)*%
X149950000Y-87820000D03*
%TO.P,J1,TN*%
%TO.N,GND*%
X149950000Y-79520000D03*
%TD*%
D14*
%TO.P,RV1,*%
%TO.N,GND*%
X142787487Y-87213604D03*
X142787487Y-77213604D03*
D15*
%TO.P,RV1,1,1*%
%TO.N,Net-(J1-PadT)*%
X153387487Y-78213604D03*
D16*
%TO.P,RV1,2,2*%
%TO.N,Net-(RV1-Pad2)*%
X153387487Y-82225604D03*
%TO.P,RV1,3,3*%
%TO.N,Net-(J2-PadT)*%
X153387487Y-86213604D03*
%TD*%
D17*
%TO.N,GND*%
X136800000Y-85700000D03*
%TD*%
D18*
%TO.N,GND*%
X145686396Y-77213604D02*
X146350000Y-76550000D01*
X142870000Y-79520000D02*
X149950000Y-79520000D01*
X149950000Y-79520000D02*
X149950000Y-76420000D01*
X142787487Y-79437487D02*
X142870000Y-79520000D01*
X146350000Y-76550000D02*
X149820000Y-76550000D01*
X140250000Y-79520000D02*
X149950000Y-79520000D01*
X149820000Y-76550000D02*
X149950000Y-76420000D01*
X140250000Y-76420000D02*
X140250000Y-79520000D01*
X140250000Y-76420000D02*
X140250000Y-76350000D01*
X142787487Y-77213604D02*
X145686396Y-77213604D01*
X142787487Y-77213604D02*
X142787487Y-79437487D01*
X140250000Y-79520000D02*
X142870000Y-79520000D01*
%TO.N,Net-(J2-PadT)*%
X140250000Y-87100000D02*
X141750000Y-85600000D01*
X141750000Y-85600000D02*
X151350000Y-85600000D01*
X151350000Y-85600000D02*
X151963604Y-86213604D01*
X151963604Y-86213604D02*
X153387487Y-86213604D01*
X140250000Y-87820000D02*
X140250000Y-87100000D01*
%TO.N,Net-(RV1-Pad2)*%
X150959478Y-84653612D02*
X153387487Y-82225604D01*
X139521557Y-84653612D02*
X150959478Y-84653612D01*
X137050000Y-76875000D02*
X137050000Y-82182055D01*
X137050000Y-82182055D02*
X139521557Y-84653612D01*
%TD*%
%TA.AperFunction,Conductor*%
%TO.N,GND*%
G36*
X136416512Y-82611933D02*
G01*
X136441718Y-82641790D01*
X136447405Y-82651162D01*
X136451121Y-82655370D01*
X136451122Y-82655371D01*
X136454803Y-82659539D01*
X136454776Y-82659563D01*
X136457429Y-82662555D01*
X136460132Y-82665788D01*
X136464144Y-82671907D01*
X136520383Y-82725183D01*
X136522825Y-82727561D01*
X138937787Y-85142523D01*
X138950173Y-85156935D01*
X138958706Y-85168530D01*
X138958711Y-85168535D01*
X138963049Y-85174430D01*
X138968627Y-85179169D01*
X138968630Y-85179172D01*
X139003325Y-85208647D01*
X139010841Y-85215577D01*
X139016536Y-85221272D01*
X139019418Y-85223552D01*
X139038808Y-85238893D01*
X139042212Y-85241684D01*
X139092260Y-85284203D01*
X139097842Y-85288945D01*
X139104358Y-85292273D01*
X139109407Y-85295640D01*
X139114536Y-85298807D01*
X139120273Y-85303346D01*
X139186432Y-85334267D01*
X139190326Y-85336170D01*
X139255365Y-85369381D01*
X139262473Y-85371120D01*
X139268116Y-85373219D01*
X139273879Y-85375136D01*
X139280507Y-85378234D01*
X139287669Y-85379724D01*
X139287670Y-85379724D01*
X139351969Y-85393098D01*
X139356253Y-85394068D01*
X139427167Y-85411420D01*
X139432769Y-85411768D01*
X139432772Y-85411768D01*
X139438321Y-85412112D01*
X139438319Y-85412148D01*
X139442312Y-85412387D01*
X139446504Y-85412761D01*
X139453672Y-85414252D01*
X139531077Y-85412158D01*
X139534485Y-85412112D01*
X140561017Y-85412112D01*
X140629138Y-85432114D01*
X140675631Y-85485770D01*
X140685735Y-85556044D01*
X140656241Y-85620624D01*
X140650112Y-85627207D01*
X140045541Y-86231778D01*
X139985861Y-86265201D01*
X139767079Y-86317727D01*
X139767072Y-86317729D01*
X139762258Y-86318885D01*
X139757687Y-86320778D01*
X139757685Y-86320779D01*
X139538011Y-86411771D01*
X139538007Y-86411773D01*
X139533437Y-86413666D01*
X139322260Y-86543075D01*
X139133927Y-86703927D01*
X138973075Y-86892260D01*
X138843666Y-87103437D01*
X138841773Y-87108007D01*
X138841771Y-87108011D01*
X138792613Y-87226690D01*
X138748885Y-87332258D01*
X138747730Y-87337070D01*
X138692221Y-87568276D01*
X138692220Y-87568282D01*
X138691066Y-87573089D01*
X138671634Y-87820000D01*
X138691066Y-88066911D01*
X138692220Y-88071718D01*
X138692221Y-88071724D01*
X138700567Y-88106487D01*
X138748885Y-88307742D01*
X138835887Y-88517781D01*
X138835887Y-88517782D01*
X138843476Y-88588371D01*
X138811697Y-88651858D01*
X138750639Y-88688086D01*
X138719478Y-88692000D01*
X136334000Y-88692000D01*
X136265879Y-88671998D01*
X136219386Y-88618342D01*
X136208000Y-88566000D01*
X136208000Y-82707157D01*
X136228002Y-82639036D01*
X136281658Y-82592543D01*
X136351932Y-82582439D01*
X136416512Y-82611933D01*
G37*
%TD.AperFunction*%
%TA.AperFunction,Conductor*%
G36*
X148964952Y-86378502D02*
G01*
X149011445Y-86432158D01*
X149021549Y-86502432D01*
X148992055Y-86567012D01*
X148978662Y-86580311D01*
X148833927Y-86703927D01*
X148673075Y-86892260D01*
X148543666Y-87103437D01*
X148541773Y-87108007D01*
X148541771Y-87108011D01*
X148492613Y-87226690D01*
X148448885Y-87332258D01*
X148447730Y-87337070D01*
X148392221Y-87568276D01*
X148392220Y-87568282D01*
X148391066Y-87573089D01*
X148371634Y-87820000D01*
X148391066Y-88066911D01*
X148392220Y-88071718D01*
X148392221Y-88071724D01*
X148400567Y-88106487D01*
X148448885Y-88307742D01*
X148535887Y-88517781D01*
X148535887Y-88517782D01*
X148543476Y-88588371D01*
X148511697Y-88651858D01*
X148450639Y-88688086D01*
X148419478Y-88692000D01*
X143707858Y-88692000D01*
X143639737Y-88671998D01*
X143593244Y-88618342D01*
X143583140Y-88548068D01*
X143612634Y-88483488D01*
X143642023Y-88458568D01*
X143672386Y-88439961D01*
X143680370Y-88434161D01*
X143853345Y-88286426D01*
X143860309Y-88279462D01*
X144008044Y-88106487D01*
X144013844Y-88098503D01*
X144132692Y-87904562D01*
X144137174Y-87895767D01*
X144224223Y-87685612D01*
X144227269Y-87676238D01*
X144273129Y-87485219D01*
X144272424Y-87471135D01*
X144263543Y-87467604D01*
X142659487Y-87467604D01*
X142591366Y-87447602D01*
X142544873Y-87393946D01*
X142533487Y-87341604D01*
X142533487Y-87085604D01*
X142553489Y-87017483D01*
X142607145Y-86970990D01*
X142659487Y-86959604D01*
X144259243Y-86959604D01*
X144272774Y-86955631D01*
X144274134Y-86946173D01*
X144227269Y-86750970D01*
X144224223Y-86741596D01*
X144137703Y-86532718D01*
X144130114Y-86462128D01*
X144161894Y-86398641D01*
X144222952Y-86362414D01*
X144254112Y-86358500D01*
X148896831Y-86358500D01*
X148964952Y-86378502D01*
G37*
%TD.AperFunction*%
%TA.AperFunction,Conductor*%
G36*
X138719121Y-75728002D02*
G01*
X138765614Y-75781658D01*
X138777000Y-75834000D01*
X138777000Y-76147885D01*
X138781475Y-76163124D01*
X138782865Y-76164329D01*
X138790548Y-76166000D01*
X140378000Y-76166000D01*
X140446121Y-76186002D01*
X140492614Y-76239658D01*
X140504000Y-76292000D01*
X140504000Y-76548000D01*
X140483998Y-76616121D01*
X140430342Y-76662614D01*
X140378000Y-76674000D01*
X138795116Y-76674000D01*
X138779877Y-76678475D01*
X138778672Y-76679865D01*
X138777001Y-76687548D01*
X138777001Y-77379669D01*
X138777371Y-77386490D01*
X138782895Y-77437352D01*
X138786521Y-77452604D01*
X138831676Y-77573054D01*
X138840214Y-77588649D01*
X138916715Y-77690724D01*
X138929276Y-77703285D01*
X139031351Y-77779786D01*
X139046946Y-77788324D01*
X139167394Y-77833478D01*
X139182649Y-77837105D01*
X139233514Y-77842631D01*
X139240328Y-77843000D01*
X139554745Y-77843000D01*
X139622866Y-77863002D01*
X139669359Y-77916658D01*
X139679463Y-77986932D01*
X139649969Y-78051512D01*
X139602963Y-78085409D01*
X139538239Y-78112218D01*
X139529445Y-78116699D01*
X139344285Y-78230165D01*
X139334825Y-78240621D01*
X139338609Y-78249399D01*
X140237188Y-79147978D01*
X140251132Y-79155592D01*
X140252965Y-79155461D01*
X140259580Y-79151210D01*
X141158348Y-78252442D01*
X141165108Y-78240062D01*
X141159381Y-78232412D01*
X140970555Y-78116699D01*
X140961765Y-78112220D01*
X140897035Y-78085408D01*
X140841755Y-78040859D01*
X140819334Y-77973496D01*
X140836893Y-77904704D01*
X140888855Y-77856326D01*
X140945254Y-77842999D01*
X141259669Y-77842999D01*
X141266488Y-77842630D01*
X141316750Y-77837170D01*
X141386632Y-77849699D01*
X141438647Y-77898020D01*
X141442004Y-77904109D01*
X141561130Y-78098503D01*
X141566930Y-78106487D01*
X141714665Y-78279462D01*
X141721629Y-78286426D01*
X141894604Y-78434161D01*
X141902588Y-78439961D01*
X142096529Y-78558809D01*
X142105324Y-78563291D01*
X142315479Y-78650340D01*
X142324853Y-78653386D01*
X142515872Y-78699246D01*
X142529956Y-78698541D01*
X142533487Y-78689660D01*
X142533487Y-77085604D01*
X142553489Y-77017483D01*
X142607145Y-76970990D01*
X142659487Y-76959604D01*
X142915487Y-76959604D01*
X142983608Y-76979606D01*
X143030101Y-77033262D01*
X143041487Y-77085604D01*
X143041487Y-78685360D01*
X143045460Y-78698891D01*
X143054918Y-78700251D01*
X143250121Y-78653386D01*
X143259495Y-78650340D01*
X143469650Y-78563291D01*
X143478445Y-78558809D01*
X143672386Y-78439961D01*
X143680370Y-78434161D01*
X143845938Y-78292752D01*
X143910728Y-78263721D01*
X143980928Y-78274326D01*
X144031234Y-78316653D01*
X144127803Y-78455597D01*
X144134976Y-78464176D01*
X144285824Y-78615024D01*
X144294403Y-78622197D01*
X144469588Y-78743954D01*
X144479295Y-78749490D01*
X144673269Y-78838299D01*
X144683815Y-78842033D01*
X144890679Y-78895147D01*
X144901234Y-78896918D01*
X145034930Y-78907793D01*
X145040036Y-78908000D01*
X146077885Y-78908000D01*
X146093124Y-78903525D01*
X146094329Y-78902135D01*
X146096000Y-78894452D01*
X146096000Y-76772000D01*
X146116002Y-76703879D01*
X146169658Y-76657386D01*
X146222000Y-76646000D01*
X146478000Y-76646000D01*
X146546121Y-76666002D01*
X146592614Y-76719658D01*
X146604000Y-76772000D01*
X146604000Y-78889884D01*
X146608475Y-78905123D01*
X146609865Y-78906328D01*
X146617548Y-78907999D01*
X147659961Y-78907999D01*
X147665071Y-78907791D01*
X147798767Y-78896918D01*
X147809320Y-78895148D01*
X148016185Y-78842033D01*
X148026731Y-78838299D01*
X148220705Y-78749490D01*
X148230412Y-78743954D01*
X148352985Y-78658764D01*
X148420338Y-78636311D01*
X148489138Y-78653837D01*
X148537541Y-78705776D01*
X148550179Y-78775639D01*
X148541304Y-78810447D01*
X148451256Y-79027840D01*
X148448207Y-79037225D01*
X148392717Y-79268355D01*
X148391174Y-79278102D01*
X148372524Y-79515070D01*
X148372524Y-79524930D01*
X148391174Y-79761898D01*
X148392717Y-79771645D01*
X148448207Y-80002775D01*
X148451256Y-80012160D01*
X148542218Y-80231761D01*
X148546699Y-80240555D01*
X148660165Y-80425715D01*
X148670621Y-80435175D01*
X148679399Y-80431391D01*
X149589658Y-79521132D01*
X150314408Y-79521132D01*
X150314539Y-79522965D01*
X150318790Y-79529580D01*
X151217558Y-80428348D01*
X151229938Y-80435108D01*
X151237588Y-80429381D01*
X151353301Y-80240555D01*
X151357782Y-80231761D01*
X151448744Y-80012160D01*
X151451793Y-80002775D01*
X151507283Y-79771645D01*
X151508826Y-79761898D01*
X151527476Y-79524930D01*
X151527476Y-79515070D01*
X151508826Y-79278102D01*
X151507283Y-79268355D01*
X151451793Y-79037225D01*
X151448744Y-79027840D01*
X151357782Y-78808239D01*
X151353301Y-78799445D01*
X151239835Y-78614285D01*
X151229379Y-78604825D01*
X151220601Y-78608609D01*
X150322022Y-79507188D01*
X150314408Y-79521132D01*
X149589658Y-79521132D01*
X150858348Y-78252442D01*
X150865108Y-78240062D01*
X150859381Y-78232412D01*
X150670555Y-78116699D01*
X150661765Y-78112220D01*
X150597035Y-78085408D01*
X150541755Y-78040859D01*
X150519334Y-77973496D01*
X150536893Y-77904704D01*
X150588855Y-77856326D01*
X150645254Y-77842999D01*
X150959669Y-77842999D01*
X150966490Y-77842629D01*
X151017352Y-77837105D01*
X151032604Y-77833479D01*
X151153054Y-77788324D01*
X151168649Y-77779786D01*
X151270724Y-77703285D01*
X151283285Y-77690724D01*
X151359786Y-77588649D01*
X151368324Y-77573054D01*
X151413478Y-77452606D01*
X151417105Y-77437351D01*
X151422631Y-77386486D01*
X151423000Y-77379672D01*
X151423000Y-76692115D01*
X151418525Y-76676876D01*
X151417135Y-76675671D01*
X151409452Y-76674000D01*
X149822000Y-76674000D01*
X149753879Y-76653998D01*
X149707386Y-76600342D01*
X149696000Y-76548000D01*
X149696000Y-76292000D01*
X149716002Y-76223879D01*
X149769658Y-76177386D01*
X149822000Y-76166000D01*
X151404884Y-76166000D01*
X151420123Y-76161525D01*
X151421328Y-76160135D01*
X151422999Y-76152452D01*
X151422999Y-75834000D01*
X151443001Y-75765879D01*
X151496657Y-75719386D01*
X151548999Y-75708000D01*
X153866000Y-75708000D01*
X153934121Y-75728002D01*
X153980614Y-75781658D01*
X153992000Y-75834000D01*
X153992000Y-76679104D01*
X153971998Y-76747225D01*
X153918342Y-76793718D01*
X153866000Y-76805104D01*
X152439353Y-76805104D01*
X152377171Y-76811859D01*
X152240782Y-76862989D01*
X152124226Y-76950343D01*
X152036872Y-77066899D01*
X151985742Y-77203288D01*
X151978987Y-77265470D01*
X151978987Y-79161738D01*
X151985742Y-79223920D01*
X152036872Y-79360309D01*
X152124226Y-79476865D01*
X152240782Y-79564219D01*
X152377171Y-79615349D01*
X152439353Y-79622104D01*
X153866000Y-79622104D01*
X153934121Y-79642106D01*
X153980614Y-79695762D01*
X153992000Y-79748104D01*
X153992000Y-80767103D01*
X153971998Y-80835224D01*
X153918342Y-80881717D01*
X153848068Y-80891821D01*
X153823947Y-80885878D01*
X153748515Y-80859166D01*
X153743422Y-80858259D01*
X153743419Y-80858258D01*
X153525582Y-80819455D01*
X153525576Y-80819454D01*
X153520493Y-80818549D01*
X153447583Y-80817658D01*
X153294068Y-80815783D01*
X153294066Y-80815783D01*
X153288898Y-80815720D01*
X153059951Y-80850754D01*
X152839801Y-80922710D01*
X152835213Y-80925098D01*
X152835209Y-80925100D01*
X152638948Y-81027267D01*
X152634359Y-81029656D01*
X152630226Y-81032759D01*
X152630223Y-81032761D01*
X152544031Y-81097476D01*
X152449142Y-81168721D01*
X152289126Y-81336168D01*
X152286212Y-81340440D01*
X152286211Y-81340441D01*
X152215646Y-81443886D01*
X152158606Y-81527503D01*
X152061089Y-81737585D01*
X151999194Y-81960773D01*
X151974582Y-82191073D01*
X151974879Y-82196226D01*
X151974879Y-82196229D01*
X151982690Y-82331692D01*
X151987914Y-82422301D01*
X151996599Y-82460838D01*
X151992064Y-82531686D01*
X151962777Y-82577633D01*
X151661594Y-82878815D01*
X151599282Y-82912840D01*
X151528466Y-82907775D01*
X151471631Y-82865228D01*
X151446923Y-82800043D01*
X151435354Y-82659322D01*
X151435353Y-82659316D01*
X151434930Y-82654171D01*
X151396194Y-82499954D01*
X151376100Y-82419956D01*
X151376099Y-82419952D01*
X151374841Y-82414945D01*
X151361934Y-82385261D01*
X151278546Y-82193481D01*
X151278544Y-82193478D01*
X151276486Y-82188744D01*
X151142508Y-81981645D01*
X151116247Y-81952784D01*
X150979982Y-81803032D01*
X150979980Y-81803031D01*
X150976504Y-81799210D01*
X150972453Y-81796011D01*
X150972449Y-81796007D01*
X150786987Y-81649538D01*
X150786983Y-81649536D01*
X150782932Y-81646336D01*
X150746746Y-81626360D01*
X150726113Y-81614970D01*
X150566992Y-81527131D01*
X150562123Y-81525407D01*
X150562119Y-81525405D01*
X150339357Y-81446520D01*
X150339353Y-81446519D01*
X150334482Y-81444794D01*
X150329389Y-81443887D01*
X150329386Y-81443886D01*
X150225844Y-81425443D01*
X150091646Y-81401539D01*
X149998783Y-81400404D01*
X149850177Y-81398588D01*
X149850175Y-81398588D01*
X149845007Y-81398525D01*
X149601187Y-81435835D01*
X149366734Y-81512466D01*
X149147946Y-81626360D01*
X149143813Y-81629463D01*
X149143810Y-81629465D01*
X148999807Y-81737585D01*
X148950697Y-81774458D01*
X148780286Y-81952784D01*
X148641288Y-82156548D01*
X148537436Y-82380278D01*
X148471519Y-82617965D01*
X148445308Y-82863226D01*
X148445605Y-82868378D01*
X148445605Y-82868382D01*
X148457255Y-83070414D01*
X148459507Y-83109475D01*
X148460644Y-83114521D01*
X148460645Y-83114527D01*
X148482825Y-83212945D01*
X148513734Y-83350099D01*
X148515676Y-83354881D01*
X148515677Y-83354885D01*
X148557840Y-83458720D01*
X148606532Y-83578634D01*
X148628951Y-83615219D01*
X148682913Y-83703277D01*
X148701451Y-83771811D01*
X148679994Y-83839488D01*
X148625355Y-83884821D01*
X148575480Y-83895112D01*
X141627836Y-83895112D01*
X141559715Y-83875110D01*
X141513222Y-83821454D01*
X141503118Y-83751180D01*
X141525513Y-83695587D01*
X141537136Y-83679411D01*
X141537138Y-83679408D01*
X141540158Y-83675205D01*
X141576649Y-83601372D01*
X141647151Y-83458720D01*
X141649445Y-83454079D01*
X141682569Y-83345057D01*
X141719645Y-83223026D01*
X141719646Y-83223020D01*
X141721149Y-83218074D01*
X141753344Y-82973526D01*
X141755141Y-82900000D01*
X141740863Y-82726334D01*
X141735354Y-82659322D01*
X141735353Y-82659316D01*
X141734930Y-82654171D01*
X141696194Y-82499954D01*
X141676100Y-82419956D01*
X141676099Y-82419952D01*
X141674841Y-82414945D01*
X141661934Y-82385261D01*
X141578546Y-82193481D01*
X141578544Y-82193478D01*
X141576486Y-82188744D01*
X141442508Y-81981645D01*
X141416247Y-81952784D01*
X141279982Y-81803032D01*
X141279980Y-81803031D01*
X141276504Y-81799210D01*
X141272453Y-81796011D01*
X141272449Y-81796007D01*
X141086987Y-81649538D01*
X141086983Y-81649536D01*
X141082932Y-81646336D01*
X141046746Y-81626360D01*
X141026113Y-81614970D01*
X140866992Y-81527131D01*
X140862123Y-81525407D01*
X140862119Y-81525405D01*
X140639357Y-81446520D01*
X140639353Y-81446519D01*
X140634482Y-81444794D01*
X140629389Y-81443887D01*
X140629386Y-81443886D01*
X140525844Y-81425443D01*
X140391646Y-81401539D01*
X140298783Y-81400404D01*
X140150177Y-81398588D01*
X140150175Y-81398588D01*
X140145007Y-81398525D01*
X139901187Y-81435835D01*
X139666734Y-81512466D01*
X139447946Y-81626360D01*
X139443813Y-81629463D01*
X139443810Y-81629465D01*
X139299807Y-81737585D01*
X139250697Y-81774458D01*
X139080286Y-81952784D01*
X138941288Y-82156548D01*
X138837436Y-82380278D01*
X138795447Y-82531686D01*
X138783028Y-82576467D01*
X138745549Y-82636765D01*
X138681420Y-82667228D01*
X138611002Y-82658185D01*
X138572516Y-82631890D01*
X137845405Y-81904779D01*
X137811379Y-81842467D01*
X137808500Y-81815684D01*
X137808500Y-80799938D01*
X139334892Y-80799938D01*
X139340619Y-80807588D01*
X139529445Y-80923301D01*
X139538239Y-80927782D01*
X139757840Y-81018744D01*
X139767225Y-81021793D01*
X139998355Y-81077283D01*
X140008102Y-81078826D01*
X140245070Y-81097476D01*
X140254930Y-81097476D01*
X140491898Y-81078826D01*
X140501645Y-81077283D01*
X140732775Y-81021793D01*
X140742160Y-81018744D01*
X140961761Y-80927782D01*
X140970555Y-80923301D01*
X141155715Y-80809835D01*
X141164669Y-80799938D01*
X149034892Y-80799938D01*
X149040619Y-80807588D01*
X149229445Y-80923301D01*
X149238239Y-80927782D01*
X149457840Y-81018744D01*
X149467225Y-81021793D01*
X149698355Y-81077283D01*
X149708102Y-81078826D01*
X149945070Y-81097476D01*
X149954930Y-81097476D01*
X150191898Y-81078826D01*
X150201645Y-81077283D01*
X150432775Y-81021793D01*
X150442160Y-81018744D01*
X150661761Y-80927782D01*
X150670555Y-80923301D01*
X150855715Y-80809835D01*
X150865175Y-80799379D01*
X150861391Y-80790601D01*
X149962812Y-79892022D01*
X149948868Y-79884408D01*
X149947035Y-79884539D01*
X149940420Y-79888790D01*
X149041652Y-80787558D01*
X149034892Y-80799938D01*
X141164669Y-80799938D01*
X141165175Y-80799379D01*
X141161391Y-80790601D01*
X140262812Y-79892022D01*
X140248868Y-79884408D01*
X140247035Y-79884539D01*
X140240420Y-79888790D01*
X139341652Y-80787558D01*
X139334892Y-80799938D01*
X137808500Y-80799938D01*
X137808500Y-79524930D01*
X138672524Y-79524930D01*
X138691174Y-79761898D01*
X138692717Y-79771645D01*
X138748207Y-80002775D01*
X138751256Y-80012160D01*
X138842218Y-80231761D01*
X138846699Y-80240555D01*
X138960165Y-80425715D01*
X138970621Y-80435175D01*
X138979399Y-80431391D01*
X139877978Y-79532812D01*
X139884356Y-79521132D01*
X140614408Y-79521132D01*
X140614539Y-79522965D01*
X140618790Y-79529580D01*
X141517558Y-80428348D01*
X141529938Y-80435108D01*
X141537588Y-80429381D01*
X141653301Y-80240555D01*
X141657782Y-80231761D01*
X141748744Y-80012160D01*
X141751793Y-80002775D01*
X141807283Y-79771645D01*
X141808826Y-79761898D01*
X141827476Y-79524930D01*
X141827476Y-79515070D01*
X141808826Y-79278102D01*
X141807283Y-79268355D01*
X141751793Y-79037225D01*
X141748744Y-79027840D01*
X141657782Y-78808239D01*
X141653301Y-78799445D01*
X141539835Y-78614285D01*
X141529379Y-78604825D01*
X141520601Y-78608609D01*
X140622022Y-79507188D01*
X140614408Y-79521132D01*
X139884356Y-79521132D01*
X139885592Y-79518868D01*
X139885461Y-79517035D01*
X139881210Y-79510420D01*
X138982442Y-78611652D01*
X138970062Y-78604892D01*
X138962412Y-78610619D01*
X138846699Y-78799445D01*
X138842218Y-78808239D01*
X138751256Y-79027840D01*
X138748207Y-79037225D01*
X138692717Y-79268355D01*
X138691174Y-79278102D01*
X138672524Y-79515070D01*
X138672524Y-79524930D01*
X137808500Y-79524930D01*
X137808500Y-78459500D01*
X137828502Y-78391379D01*
X137882158Y-78344886D01*
X137934500Y-78333500D01*
X138048134Y-78333500D01*
X138110316Y-78326745D01*
X138246705Y-78275615D01*
X138363261Y-78188261D01*
X138450615Y-78071705D01*
X138501745Y-77935316D01*
X138508500Y-77873134D01*
X138508500Y-75876866D01*
X138508132Y-75873474D01*
X138508131Y-75873464D01*
X138505322Y-75847606D01*
X138517851Y-75777724D01*
X138566172Y-75725709D01*
X138630585Y-75708000D01*
X138651000Y-75708000D01*
X138719121Y-75728002D01*
G37*
%TD.AperFunction*%
%TD*%
M02*
