%TF.GenerationSoftware,KiCad,Pcbnew,(6.0.2-0)*%
%TF.CreationDate,2022-07-29T18:49:05+02:00*%
%TF.ProjectId,crossfaderAttenuator,63726f73-7366-4616-9465-72417474656e,rev?*%
%TF.SameCoordinates,Original*%
%TF.FileFunction,Soldermask,Bot*%
%TF.FilePolarity,Negative*%
%FSLAX46Y46*%
G04 Gerber Fmt 4.6, Leading zero omitted, Abs format (unit mm)*
G04 Created by KiCad (PCBNEW (6.0.2-0)) date 2022-07-29 18:49:05*
%MOMM*%
%LPD*%
G01*
G04 APERTURE LIST*
%ADD10R,1.900000X1.900000*%
%ADD11R,1.930000X1.830000*%
%ADD12C,2.130000*%
%ADD13O,2.000000X2.000000*%
%ADD14R,1.800000X1.800000*%
%ADD15C,1.800000*%
G04 APERTURE END LIST*
%TO.C,G\u002A\u002A\u002A*%
G36*
X137289853Y-82115485D02*
G01*
X137189408Y-82116514D01*
X137100213Y-82115765D01*
X137026144Y-82111650D01*
X136970926Y-82101763D01*
X136921975Y-82083706D01*
X136866705Y-82055085D01*
X136779547Y-81997654D01*
X136711196Y-81923658D01*
X136669454Y-81832357D01*
X136655794Y-81759066D01*
X136662889Y-81653976D01*
X136697339Y-81557060D01*
X136754378Y-81476661D01*
X136829238Y-81421123D01*
X136917152Y-81398792D01*
X136936744Y-81398766D01*
X136989398Y-81410766D01*
X137005200Y-81442362D01*
X136984177Y-81494037D01*
X136926355Y-81566276D01*
X136886719Y-81615194D01*
X136845824Y-81698861D01*
X136844176Y-81773843D01*
X136881470Y-81837022D01*
X136957405Y-81885280D01*
X136957522Y-81885329D01*
X137020651Y-81909972D01*
X137063762Y-81918180D01*
X137090988Y-81904766D01*
X137106461Y-81864545D01*
X137114316Y-81792331D01*
X137116174Y-81745788D01*
X137284737Y-81745788D01*
X137284742Y-81754488D01*
X137286678Y-81842216D01*
X137295866Y-81893600D01*
X137317752Y-81914199D01*
X137357784Y-81909572D01*
X137421410Y-81885280D01*
X137468953Y-81859131D01*
X137519394Y-81803154D01*
X137533332Y-81738788D01*
X137509928Y-81674338D01*
X137448347Y-81618105D01*
X137441364Y-81613989D01*
X137382317Y-81587335D01*
X137332402Y-81576393D01*
X137315427Y-81577272D01*
X137298366Y-81585991D01*
X137289179Y-81611243D01*
X137285444Y-81661639D01*
X137284737Y-81745788D01*
X137116174Y-81745788D01*
X137118684Y-81682939D01*
X137124103Y-81566769D01*
X137134871Y-81480589D01*
X137154517Y-81424768D01*
X137186770Y-81393177D01*
X137235356Y-81379686D01*
X137304002Y-81378164D01*
X137307233Y-81378271D01*
X137438656Y-81398928D01*
X137547406Y-81446846D01*
X137631625Y-81516160D01*
X137689455Y-81601006D01*
X137719040Y-81695519D01*
X137718521Y-81793835D01*
X137686040Y-81890090D01*
X137619741Y-81978420D01*
X137517765Y-82052961D01*
X137465068Y-82080230D01*
X137414884Y-82099820D01*
X137360745Y-82110746D01*
X137317752Y-82113620D01*
X137289853Y-82115485D01*
G37*
G36*
X136785805Y-80193581D02*
G01*
X136838723Y-80213079D01*
X136914349Y-80249303D01*
X137019847Y-80304178D01*
X137210419Y-80404789D01*
X137415119Y-80298358D01*
X137472763Y-80268502D01*
X137544701Y-80232698D01*
X137592494Y-80213007D01*
X137624513Y-80207158D01*
X137649130Y-80212878D01*
X137674713Y-80227895D01*
X137690173Y-80238744D01*
X137722758Y-80274309D01*
X137724097Y-80311154D01*
X137692027Y-80352527D01*
X137624387Y-80401674D01*
X137519015Y-80461844D01*
X137387877Y-80531910D01*
X137547104Y-80623013D01*
X137616814Y-80664280D01*
X137680052Y-80708152D01*
X137713105Y-80744150D01*
X137720710Y-80777946D01*
X137707602Y-80815213D01*
X137704028Y-80821293D01*
X137662994Y-80851656D01*
X137597523Y-80851750D01*
X137506143Y-80821320D01*
X137387384Y-80760113D01*
X137221063Y-80664180D01*
X137012545Y-80770705D01*
X136979451Y-80787480D01*
X136878412Y-80835796D01*
X136804987Y-80864093D01*
X136752387Y-80873879D01*
X136713820Y-80866660D01*
X136682497Y-80843942D01*
X136674225Y-80835161D01*
X136654377Y-80800361D01*
X136660596Y-80765516D01*
X136696186Y-80726669D01*
X136764452Y-80679866D01*
X136868700Y-80621154D01*
X137035232Y-80532063D01*
X136853677Y-80438069D01*
X136754525Y-80382836D01*
X136687464Y-80334338D01*
X136656215Y-80292504D01*
X136658449Y-80254138D01*
X136691838Y-80216046D01*
X136719434Y-80197065D01*
X136748430Y-80188885D01*
X136785805Y-80193581D01*
G37*
G36*
X136787954Y-78589352D02*
G01*
X136828525Y-78595891D01*
X136855753Y-78618450D01*
X136872122Y-78663581D01*
X136880121Y-78737838D01*
X136882235Y-78847773D01*
X136882726Y-78905501D01*
X136885230Y-78982728D01*
X136889379Y-79035707D01*
X136894631Y-79055380D01*
X136911876Y-79046094D01*
X136959044Y-79016365D01*
X137030082Y-78969884D01*
X137119179Y-78910457D01*
X137220523Y-78841892D01*
X137297663Y-78789909D01*
X137422374Y-78710463D01*
X137519088Y-78658848D01*
X137591316Y-78636171D01*
X137642571Y-78643539D01*
X137676366Y-78682059D01*
X137696212Y-78752840D01*
X137705623Y-78856987D01*
X137708111Y-78995610D01*
X137707492Y-79077244D01*
X137702495Y-79176819D01*
X137690628Y-79243867D01*
X137669674Y-79284363D01*
X137637419Y-79304280D01*
X137591647Y-79309592D01*
X137583338Y-79309487D01*
X137552820Y-79304534D01*
X137532213Y-79286779D01*
X137518536Y-79248841D01*
X137508807Y-79183342D01*
X137500044Y-79082901D01*
X137485988Y-78900463D01*
X137168795Y-79115619D01*
X137047210Y-79196741D01*
X136944048Y-79261294D01*
X136865537Y-79303544D01*
X136806946Y-79325200D01*
X136763543Y-79327971D01*
X136730595Y-79313566D01*
X136703369Y-79283694D01*
X136692859Y-79264090D01*
X136682006Y-79223672D01*
X136675098Y-79161884D01*
X136671455Y-79071741D01*
X136670392Y-78946258D01*
X136670425Y-78921069D01*
X136672400Y-78795840D01*
X136678734Y-78706222D01*
X136691254Y-78646489D01*
X136711784Y-78610913D01*
X136742152Y-78593767D01*
X136784182Y-78589325D01*
X136787954Y-78589352D01*
G37*
G36*
X136839636Y-84874849D02*
G01*
X136869045Y-84915774D01*
X136869688Y-84976645D01*
X136865122Y-85017124D01*
X136884664Y-85052492D01*
X136888931Y-85054314D01*
X136929467Y-85060923D01*
X137001419Y-85066317D01*
X137096067Y-85069982D01*
X137204690Y-85071402D01*
X137495369Y-85071727D01*
X137513209Y-85002878D01*
X137526495Y-84963253D01*
X137552502Y-84939237D01*
X137603848Y-84934029D01*
X137645333Y-84936749D01*
X137677145Y-84955419D01*
X137696916Y-85002878D01*
X137699702Y-85012251D01*
X137713020Y-85046269D01*
X137734122Y-85063966D01*
X137774536Y-85070675D01*
X137845789Y-85071727D01*
X137900191Y-85073772D01*
X137993284Y-85092487D01*
X138049628Y-85130468D01*
X138068557Y-85187369D01*
X138061648Y-85215585D01*
X138019087Y-85252795D01*
X137939555Y-85275736D01*
X137825176Y-85283570D01*
X137795261Y-85283865D01*
X137741089Y-85289080D01*
X137710791Y-85304888D01*
X137691094Y-85336531D01*
X137689743Y-85339382D01*
X137650623Y-85380296D01*
X137598550Y-85390451D01*
X137547746Y-85370941D01*
X137512436Y-85322851D01*
X137503610Y-85310481D01*
X137482099Y-85300405D01*
X137442289Y-85293076D01*
X137378163Y-85287786D01*
X137283703Y-85283824D01*
X137152892Y-85280482D01*
X137061838Y-85278081D01*
X136934012Y-85271914D01*
X136839119Y-85261820D01*
X136771191Y-85246187D01*
X136724259Y-85223403D01*
X136692356Y-85191855D01*
X136669511Y-85149933D01*
X136659413Y-85112746D01*
X136657837Y-85035353D01*
X136673517Y-84957830D01*
X136703656Y-84900608D01*
X136737988Y-84872750D01*
X136792327Y-84858849D01*
X136839636Y-84874849D01*
G37*
G36*
X136931195Y-83013747D02*
G01*
X136846219Y-83010766D01*
X136784764Y-83006433D01*
X136742190Y-83000521D01*
X136713857Y-82992804D01*
X136695125Y-82983054D01*
X136680442Y-82971454D01*
X136655173Y-82928739D01*
X136671247Y-82885698D01*
X136728003Y-82845104D01*
X136796081Y-82811059D01*
X136743472Y-82761636D01*
X136739617Y-82757867D01*
X136697582Y-82700549D01*
X136667302Y-82633572D01*
X136667234Y-82633285D01*
X136865120Y-82633285D01*
X136882485Y-82692678D01*
X136897628Y-82719399D01*
X136958505Y-82768064D01*
X137052812Y-82798737D01*
X137176417Y-82809772D01*
X137300314Y-82800780D01*
X137402975Y-82771739D01*
X137474097Y-82724643D01*
X137510638Y-82661549D01*
X137509554Y-82584517D01*
X137498196Y-82557490D01*
X137448530Y-82508780D01*
X137372157Y-82473532D01*
X137278542Y-82452626D01*
X137177153Y-82446937D01*
X137077455Y-82457343D01*
X136988915Y-82484723D01*
X136920999Y-82529953D01*
X136912927Y-82538140D01*
X136873881Y-82587628D01*
X136865120Y-82633285D01*
X136667234Y-82633285D01*
X136656377Y-82587603D01*
X136658803Y-82535571D01*
X136683547Y-82473700D01*
X136737718Y-82396455D01*
X136832654Y-82322684D01*
X136954284Y-82272937D01*
X137017807Y-82260518D01*
X137132730Y-82251365D01*
X137258184Y-82252606D01*
X137376873Y-82263847D01*
X137471502Y-82284695D01*
X137571756Y-82332019D01*
X137652819Y-82403324D01*
X137701331Y-82488709D01*
X137715209Y-82581873D01*
X137692371Y-82676516D01*
X137630732Y-82766337D01*
X137573391Y-82826189D01*
X137795076Y-82826189D01*
X137884008Y-82827257D01*
X137970201Y-82832432D01*
X138027597Y-82842756D01*
X138063843Y-82859166D01*
X138069820Y-82863592D01*
X138104782Y-82909492D01*
X138105009Y-82957362D01*
X138069950Y-82994918D01*
X138050014Y-82999758D01*
X137987486Y-83005682D01*
X137887164Y-83010438D01*
X137751722Y-83013942D01*
X137583834Y-83016107D01*
X137386173Y-83016848D01*
X137373656Y-83016847D01*
X137190273Y-83016560D01*
X137176417Y-83016469D01*
X137044333Y-83015602D01*
X136931195Y-83013747D01*
G37*
G36*
X137267315Y-83207546D02*
G01*
X137399843Y-83208076D01*
X137498526Y-83209617D01*
X137569163Y-83212668D01*
X137617553Y-83217723D01*
X137649497Y-83225279D01*
X137670792Y-83235831D01*
X137687239Y-83249875D01*
X137721715Y-83291408D01*
X137724006Y-83324409D01*
X137692535Y-83360289D01*
X137674422Y-83370872D01*
X137632128Y-83382447D01*
X137564099Y-83391689D01*
X137464790Y-83399294D01*
X137328659Y-83405957D01*
X137276002Y-83408243D01*
X137147703Y-83415731D01*
X137053082Y-83425758D01*
X136985661Y-83440063D01*
X136938960Y-83460390D01*
X136906502Y-83488479D01*
X136881807Y-83526071D01*
X136868608Y-83570318D01*
X136882490Y-83631021D01*
X136931334Y-83677500D01*
X136932906Y-83678292D01*
X136975839Y-83688780D01*
X137053522Y-83698039D01*
X137158854Y-83705413D01*
X137284737Y-83710242D01*
X137409473Y-83713666D01*
X137515743Y-83717943D01*
X137591281Y-83723651D01*
X137642256Y-83731826D01*
X137674838Y-83743501D01*
X137695197Y-83759713D01*
X137709500Y-83781496D01*
X137712724Y-83787790D01*
X137720171Y-83827415D01*
X137694848Y-83867517D01*
X137691904Y-83870704D01*
X137676048Y-83884373D01*
X137654203Y-83894226D01*
X137620307Y-83900737D01*
X137568300Y-83904378D01*
X137492119Y-83905625D01*
X137385704Y-83904950D01*
X137242993Y-83902827D01*
X137136346Y-83900751D01*
X137000480Y-83896094D01*
X136897626Y-83888347D01*
X136822075Y-83875953D01*
X136768119Y-83857352D01*
X136730049Y-83830984D01*
X136702157Y-83795292D01*
X136678734Y-83748715D01*
X136661816Y-83677221D01*
X136671907Y-83584302D01*
X136711497Y-83498937D01*
X136776023Y-83435799D01*
X136800050Y-83417687D01*
X136793533Y-83404584D01*
X136750947Y-83388347D01*
X136697804Y-83361707D01*
X136661831Y-83327989D01*
X136654706Y-83314215D01*
X136655424Y-83283402D01*
X136688627Y-83248548D01*
X136694367Y-83244012D01*
X136714891Y-83231444D01*
X136742442Y-83222128D01*
X136782910Y-83215583D01*
X136842186Y-83211329D01*
X136926158Y-83208885D01*
X137040718Y-83207771D01*
X137191754Y-83207507D01*
X137267315Y-83207546D01*
G37*
G36*
X136881137Y-81066212D02*
G01*
X136927509Y-81100525D01*
X136945788Y-81148947D01*
X136945654Y-81153831D01*
X136924772Y-81205818D01*
X136876751Y-81241267D01*
X136813763Y-81256956D01*
X136747981Y-81249667D01*
X136691576Y-81216180D01*
X136688806Y-81213399D01*
X136656389Y-81173989D01*
X136654666Y-81140423D01*
X136682185Y-81093788D01*
X136700465Y-81074494D01*
X136754915Y-81050539D01*
X136819373Y-81048664D01*
X136881137Y-81066212D01*
G37*
G36*
X136832068Y-84807827D02*
G01*
X136766493Y-84768800D01*
X136707117Y-84715603D01*
X136669732Y-84660360D01*
X136659863Y-84629421D01*
X136651015Y-84573895D01*
X136651003Y-84573000D01*
X136662111Y-84516132D01*
X136677109Y-84478206D01*
X136842578Y-84478206D01*
X136848393Y-84543858D01*
X136886949Y-84593878D01*
X136924866Y-84616025D01*
X136987027Y-84627641D01*
X137041639Y-84600853D01*
X137090655Y-84534349D01*
X137136028Y-84426821D01*
X137178324Y-84303885D01*
X137058467Y-84313825D01*
X137054763Y-84314137D01*
X136978737Y-84324899D01*
X136928761Y-84345172D01*
X136889238Y-84381162D01*
X136869386Y-84408033D01*
X136842578Y-84478206D01*
X136677109Y-84478206D01*
X136690386Y-84444634D01*
X136727215Y-84376977D01*
X136763984Y-84331633D01*
X136776438Y-84320426D01*
X136784934Y-84301098D01*
X136768770Y-84276514D01*
X136723546Y-84236304D01*
X136701234Y-84215899D01*
X136663616Y-84162943D01*
X136663754Y-84119614D01*
X136702180Y-84089583D01*
X136729019Y-84087088D01*
X136791776Y-84086458D01*
X136882726Y-84087787D01*
X136994608Y-84090968D01*
X137120161Y-84095890D01*
X137266416Y-84103545D01*
X137406565Y-84115420D01*
X137513418Y-84132416D01*
X137591914Y-84156818D01*
X137646990Y-84190914D01*
X137683582Y-84236992D01*
X137706629Y-84297338D01*
X137721067Y-84374239D01*
X137724319Y-84471507D01*
X137700875Y-84584680D01*
X137650485Y-84679879D01*
X137577305Y-84749822D01*
X137485485Y-84787230D01*
X137436609Y-84793585D01*
X137397507Y-84784729D01*
X137363854Y-84752282D01*
X137354227Y-84740310D01*
X137336057Y-84710645D01*
X137344692Y-84687698D01*
X137383433Y-84655080D01*
X137439675Y-84609502D01*
X137491284Y-84565238D01*
X137495023Y-84561766D01*
X137532305Y-84501477D01*
X137536395Y-84434562D01*
X137511687Y-84372524D01*
X137462574Y-84326867D01*
X137393450Y-84309091D01*
X137390503Y-84309100D01*
X137357752Y-84312925D01*
X137335661Y-84330067D01*
X137317396Y-84369824D01*
X137296122Y-84441493D01*
X137289738Y-84464287D01*
X137246061Y-84599269D01*
X137199561Y-84697556D01*
X137144898Y-84763997D01*
X137076736Y-84803438D01*
X136989737Y-84820726D01*
X136987027Y-84820726D01*
X136878564Y-84820709D01*
X136832068Y-84807827D01*
G37*
G36*
X137612685Y-79394717D02*
G01*
X137666979Y-79410425D01*
X137711285Y-79441463D01*
X137729608Y-79477296D01*
X137728733Y-79484569D01*
X137709993Y-79511060D01*
X137664091Y-79539016D01*
X137587395Y-79569969D01*
X137476277Y-79605449D01*
X137327106Y-79646986D01*
X137255957Y-79665938D01*
X137151050Y-79693961D01*
X137064785Y-79717103D01*
X137004599Y-79733368D01*
X136977928Y-79740757D01*
X136977307Y-79742985D01*
X137001695Y-79754287D01*
X137055764Y-79771929D01*
X137131514Y-79793179D01*
X137131535Y-79793185D01*
X137242712Y-79822517D01*
X137366526Y-79855179D01*
X137476174Y-79884099D01*
X137551827Y-79905470D01*
X137643473Y-79938696D01*
X137698275Y-79971808D01*
X137719555Y-80007113D01*
X137710632Y-80046916D01*
X137698731Y-80066120D01*
X137675521Y-80088165D01*
X137642247Y-80100072D01*
X137593875Y-80101326D01*
X137525376Y-80091413D01*
X137431718Y-80069821D01*
X137307869Y-80036034D01*
X137148799Y-79989540D01*
X137105889Y-79976845D01*
X136977905Y-79939721D01*
X136863864Y-79907712D01*
X136770415Y-79882619D01*
X136704207Y-79866243D01*
X136671889Y-79860384D01*
X136665547Y-79860704D01*
X136614638Y-79872519D01*
X136554597Y-79896084D01*
X136509251Y-79921730D01*
X136485162Y-79954734D01*
X136479733Y-80008361D01*
X136479608Y-80016072D01*
X136471406Y-80073241D01*
X136454312Y-80110359D01*
X136404940Y-80134047D01*
X136347808Y-80126152D01*
X136300867Y-80088698D01*
X136281304Y-80048574D01*
X136268358Y-79966569D01*
X136278402Y-79881097D01*
X136310740Y-79811622D01*
X136335682Y-79787687D01*
X136396505Y-79747776D01*
X136468542Y-79714137D01*
X136536074Y-79690737D01*
X136631658Y-79660258D01*
X136747841Y-79624862D01*
X136877829Y-79586461D01*
X137014828Y-79546971D01*
X137152047Y-79508305D01*
X137282690Y-79472378D01*
X137399965Y-79441102D01*
X137497078Y-79416393D01*
X137567237Y-79400164D01*
X137603647Y-79394329D01*
X137612685Y-79394717D01*
G37*
G36*
X145879908Y-85630150D02*
G01*
X145926014Y-85643706D01*
X145995504Y-85668753D01*
X146093691Y-85706718D01*
X146225888Y-85759027D01*
X146611575Y-85912199D01*
X146749861Y-86122655D01*
X146751964Y-86125853D01*
X146804923Y-86204693D01*
X146848210Y-86266013D01*
X146877414Y-86303771D01*
X146888123Y-86311927D01*
X146887924Y-86309118D01*
X146881041Y-86273191D01*
X146866320Y-86210223D01*
X146846455Y-86131860D01*
X146841787Y-86114017D01*
X146822926Y-86041236D01*
X146809601Y-85988681D01*
X146804450Y-85966722D01*
X146805516Y-85964996D01*
X146831966Y-85965640D01*
X146886952Y-85976578D01*
X146961181Y-85995131D01*
X147045360Y-86018620D01*
X147130197Y-86044365D01*
X147206397Y-86069687D01*
X147264667Y-86091908D01*
X147295714Y-86108348D01*
X147297199Y-86111094D01*
X147308618Y-86145183D01*
X147329084Y-86214064D01*
X147357327Y-86313009D01*
X147392079Y-86437290D01*
X147432073Y-86582181D01*
X147476038Y-86742953D01*
X147522707Y-86914879D01*
X147570810Y-87093232D01*
X147619081Y-87273285D01*
X147666249Y-87450310D01*
X147711047Y-87619579D01*
X147752205Y-87776365D01*
X147788456Y-87915940D01*
X147818531Y-88033578D01*
X147841161Y-88124550D01*
X147855078Y-88184130D01*
X147859013Y-88207590D01*
X147854611Y-88203744D01*
X147828943Y-88171302D01*
X147782134Y-88108463D01*
X147716174Y-88018003D01*
X147633055Y-87902701D01*
X147534768Y-87765334D01*
X147423304Y-87608679D01*
X147300654Y-87435515D01*
X147168810Y-87248618D01*
X147029761Y-87050766D01*
X146952343Y-86940495D01*
X146816614Y-86747596D01*
X146689015Y-86566800D01*
X146571565Y-86400933D01*
X146466282Y-86252825D01*
X146375183Y-86125304D01*
X146300284Y-86021197D01*
X146243604Y-85943333D01*
X146207160Y-85894541D01*
X146192970Y-85877648D01*
X146191792Y-85880518D01*
X146186000Y-85915771D01*
X146176693Y-85988402D01*
X146164246Y-86094909D01*
X146149040Y-86231793D01*
X146131451Y-86395552D01*
X146111858Y-86582687D01*
X146090639Y-86789695D01*
X146068172Y-87013078D01*
X146044835Y-87249333D01*
X146037476Y-87324450D01*
X146014279Y-87560470D01*
X145992151Y-87784542D01*
X145971471Y-87992887D01*
X145952617Y-88181730D01*
X145935970Y-88347291D01*
X145921908Y-88485793D01*
X145910811Y-88593458D01*
X145903059Y-88666509D01*
X145899031Y-88701169D01*
X145896587Y-88717241D01*
X145888076Y-88760794D01*
X145881836Y-88775314D01*
X145875571Y-88754938D01*
X145859410Y-88695304D01*
X145833906Y-88598393D01*
X145799558Y-88466149D01*
X145756863Y-88300516D01*
X145706322Y-88103438D01*
X145648431Y-87876859D01*
X145583691Y-87622725D01*
X145512599Y-87342979D01*
X145435653Y-87039566D01*
X145353354Y-86714429D01*
X145316934Y-86570696D01*
X145276479Y-86411713D01*
X145240031Y-86269207D01*
X145208860Y-86148100D01*
X145184232Y-86053312D01*
X145167415Y-85989767D01*
X145159676Y-85962386D01*
X145152690Y-85954828D01*
X145130668Y-85972982D01*
X145096354Y-86031650D01*
X145078317Y-86065835D01*
X145051727Y-86106480D01*
X145029288Y-86118932D01*
X145002595Y-86110235D01*
X144992184Y-86104327D01*
X144978095Y-86089887D01*
X144980556Y-86067420D01*
X145002155Y-86028036D01*
X145045477Y-85962843D01*
X145047833Y-85959381D01*
X145092494Y-85896188D01*
X145129486Y-85848042D01*
X145151008Y-85825121D01*
X145155844Y-85822690D01*
X145196496Y-85828012D01*
X145249998Y-85867411D01*
X145313325Y-85936528D01*
X145383454Y-86031003D01*
X145457360Y-86146478D01*
X145532019Y-86278594D01*
X145604406Y-86422991D01*
X145671497Y-86575311D01*
X145718652Y-86690404D01*
X145731224Y-86607087D01*
X145731318Y-86606463D01*
X145737068Y-86558492D01*
X145745390Y-86476699D01*
X145755508Y-86369314D01*
X145766647Y-86244563D01*
X145778030Y-86110676D01*
X145778863Y-86100664D01*
X145790217Y-85970640D01*
X145801405Y-85853359D01*
X145811654Y-85756195D01*
X145820187Y-85686523D01*
X145826232Y-85651719D01*
X145828753Y-85644163D01*
X145836591Y-85631805D01*
X145851871Y-85626659D01*
X145879908Y-85630150D01*
G37*
G36*
X140150427Y-79412259D02*
G01*
X140209617Y-79436209D01*
X140297988Y-79473552D01*
X140411006Y-79522262D01*
X140544140Y-79580311D01*
X140692858Y-79645673D01*
X140852628Y-79716320D01*
X141018917Y-79790225D01*
X141187193Y-79865361D01*
X141352924Y-79939700D01*
X141511577Y-80011216D01*
X141658622Y-80077881D01*
X141789525Y-80137668D01*
X141899754Y-80188549D01*
X141984777Y-80228498D01*
X142040062Y-80255488D01*
X142061078Y-80267491D01*
X142074171Y-80302735D01*
X142085704Y-80363439D01*
X142093130Y-80434184D01*
X142095576Y-80502038D01*
X142092167Y-80554072D01*
X142082029Y-80577356D01*
X142068140Y-80589241D01*
X142083224Y-80617249D01*
X142085440Y-80620547D01*
X142096748Y-80661643D01*
X142105992Y-80741657D01*
X142113271Y-80861725D01*
X142118684Y-81022987D01*
X142127951Y-81397164D01*
X141410181Y-80694252D01*
X141174289Y-80462971D01*
X140952899Y-80245260D01*
X140760257Y-80055038D01*
X140595428Y-79891356D01*
X140457473Y-79753265D01*
X140345455Y-79639815D01*
X140258438Y-79550056D01*
X140195482Y-79483038D01*
X140155652Y-79437811D01*
X140138010Y-79413426D01*
X140141618Y-79408933D01*
X140150427Y-79412259D01*
G37*
G36*
X139622602Y-81419814D02*
G01*
X139638078Y-81420327D01*
X139754315Y-81423882D01*
X139899945Y-81427944D01*
X140069451Y-81432388D01*
X140257311Y-81437091D01*
X140458009Y-81441931D01*
X140666023Y-81446783D01*
X140875836Y-81451526D01*
X141081928Y-81456036D01*
X141278780Y-81460190D01*
X141460873Y-81463865D01*
X141622688Y-81466938D01*
X141758706Y-81469285D01*
X141863407Y-81470783D01*
X141931273Y-81471310D01*
X142122352Y-81471310D01*
X142122352Y-81871723D01*
X141862844Y-81860835D01*
X141818604Y-81858980D01*
X141726958Y-81855849D01*
X141669067Y-81856904D01*
X141645733Y-81864371D01*
X141657757Y-81880478D01*
X141705942Y-81907450D01*
X141791088Y-81947514D01*
X141913999Y-82002896D01*
X141920101Y-82005638D01*
X142012459Y-82047742D01*
X142089993Y-82084157D01*
X142144729Y-82111069D01*
X142168689Y-82124664D01*
X142175169Y-82143537D01*
X142185360Y-82197321D01*
X142196824Y-82276419D01*
X142208095Y-82371643D01*
X142215587Y-82434914D01*
X142233112Y-82555920D01*
X142253311Y-82671128D01*
X142273149Y-82762321D01*
X142277144Y-82778382D01*
X142292829Y-82852690D01*
X142300063Y-82908274D01*
X142297295Y-82934113D01*
X142283408Y-82941617D01*
X142235144Y-82963529D01*
X142159390Y-82996153D01*
X142063012Y-83036543D01*
X141952877Y-83081758D01*
X141872796Y-83114603D01*
X141771126Y-83157205D01*
X141687848Y-83193163D01*
X141629944Y-83219448D01*
X141604395Y-83233027D01*
X141606432Y-83235605D01*
X141639369Y-83240472D01*
X141706187Y-83244649D01*
X141801199Y-83247912D01*
X141918715Y-83250035D01*
X142053047Y-83250793D01*
X142521823Y-83250793D01*
X142622227Y-83383195D01*
X142623445Y-83384800D01*
X142682503Y-83462061D01*
X142741152Y-83537822D01*
X142786864Y-83595902D01*
X142851098Y-83676206D01*
X141984654Y-84544828D01*
X142143536Y-84477687D01*
X142157971Y-84471574D01*
X142234615Y-84438908D01*
X142339353Y-84394053D01*
X142463642Y-84340678D01*
X142598938Y-84282450D01*
X142736697Y-84223037D01*
X143170976Y-84035527D01*
X143285624Y-84149949D01*
X143400273Y-84264370D01*
X143100966Y-84917423D01*
X142801660Y-85570476D01*
X143768102Y-84591482D01*
X143831515Y-84625516D01*
X143925978Y-84685044D01*
X143987026Y-84745440D01*
X144007756Y-84802220D01*
X144004773Y-84820127D01*
X143985387Y-84876907D01*
X143951573Y-84957354D01*
X143907555Y-85052940D01*
X143857555Y-85155139D01*
X143805797Y-85255423D01*
X143756504Y-85345267D01*
X143713899Y-85416143D01*
X143682205Y-85459525D01*
X143633500Y-85499115D01*
X143560955Y-85517515D01*
X143493448Y-85517515D01*
X143505126Y-85388726D01*
X143516805Y-85259936D01*
X143375352Y-85394022D01*
X143347920Y-85420037D01*
X143314826Y-85451457D01*
X143276297Y-85488076D01*
X143230230Y-85531897D01*
X143174523Y-85584923D01*
X143107074Y-85649158D01*
X143025780Y-85726605D01*
X142928538Y-85819267D01*
X142813247Y-85929147D01*
X142677803Y-86058249D01*
X142520106Y-86208574D01*
X142338051Y-86382128D01*
X142129537Y-86580913D01*
X141892461Y-86806931D01*
X141819583Y-86876228D01*
X141705177Y-86984226D01*
X141602933Y-87079781D01*
X141516527Y-87159509D01*
X141449637Y-87220028D01*
X141405941Y-87257954D01*
X141389116Y-87269906D01*
X141392870Y-87259153D01*
X141413244Y-87213729D01*
X141449901Y-87135621D01*
X141501356Y-87027892D01*
X141566128Y-86893601D01*
X141642733Y-86735808D01*
X141729690Y-86557575D01*
X141825515Y-86361961D01*
X141928726Y-86152027D01*
X142037840Y-85930835D01*
X142117234Y-85770024D01*
X142222312Y-85556771D01*
X142320486Y-85357055D01*
X142410267Y-85173927D01*
X142490165Y-85010442D01*
X142558692Y-84869653D01*
X142614361Y-84754614D01*
X142655681Y-84668377D01*
X142681165Y-84613995D01*
X142689324Y-84594523D01*
X142687703Y-84594791D01*
X142657794Y-84605403D01*
X142592787Y-84630221D01*
X142496000Y-84667930D01*
X142370752Y-84717218D01*
X142220359Y-84776773D01*
X142048141Y-84845280D01*
X141857415Y-84921428D01*
X141651499Y-85003903D01*
X141433710Y-85091392D01*
X141391853Y-85108229D01*
X141172419Y-85196459D01*
X140963144Y-85280536D01*
X140767670Y-85359003D01*
X140589640Y-85430399D01*
X140432698Y-85493265D01*
X140300485Y-85546142D01*
X140196646Y-85587571D01*
X140124822Y-85616091D01*
X140088657Y-85630243D01*
X139993328Y-85666337D01*
X140090148Y-85576038D01*
X140093906Y-85572534D01*
X140131757Y-85537296D01*
X140197144Y-85476462D01*
X140287119Y-85392773D01*
X140398734Y-85288971D01*
X140529042Y-85167797D01*
X140675092Y-85031994D01*
X140833939Y-84884302D01*
X141002632Y-84727464D01*
X141178224Y-84564221D01*
X142169480Y-83642703D01*
X140837784Y-83627719D01*
X140806399Y-83627364D01*
X140570582Y-83624612D01*
X140345404Y-83621833D01*
X140134830Y-83619085D01*
X139942825Y-83616427D01*
X139773357Y-83613918D01*
X139630391Y-83611616D01*
X139517894Y-83609579D01*
X139439830Y-83607866D01*
X139400167Y-83606534D01*
X139391529Y-83605914D01*
X139375688Y-83603344D01*
X139369193Y-83598412D01*
X139374563Y-83590051D01*
X139394316Y-83577193D01*
X139430968Y-83558770D01*
X139487037Y-83533714D01*
X139565042Y-83500958D01*
X139667498Y-83459432D01*
X139796925Y-83408071D01*
X139955839Y-83345806D01*
X140146758Y-83271568D01*
X140372200Y-83184291D01*
X140634681Y-83082906D01*
X140766068Y-83032079D01*
X140985111Y-82946835D01*
X141189908Y-82866505D01*
X141377294Y-82792363D01*
X141544101Y-82725689D01*
X141687164Y-82667757D01*
X141803315Y-82619846D01*
X141889390Y-82583232D01*
X141942221Y-82559191D01*
X141958643Y-82549002D01*
X141954807Y-82546753D01*
X141919074Y-82530030D01*
X141848828Y-82498802D01*
X141747358Y-82454487D01*
X141617953Y-82398500D01*
X141463905Y-82332256D01*
X141288502Y-82257173D01*
X141095034Y-82174666D01*
X140886791Y-82086152D01*
X140667064Y-81993046D01*
X140586648Y-81959012D01*
X140369752Y-81867097D01*
X140164983Y-81780153D01*
X139975705Y-81699619D01*
X139805282Y-81626931D01*
X139657076Y-81563529D01*
X139534451Y-81510850D01*
X139440770Y-81470331D01*
X139379397Y-81443412D01*
X139353695Y-81431530D01*
X139348610Y-81426951D01*
X139362223Y-81419978D01*
X139410810Y-81416534D01*
X139496795Y-81416515D01*
X139622602Y-81419814D01*
G37*
G36*
X147583373Y-79386908D02*
G01*
X147531279Y-79561359D01*
X147486605Y-79712068D01*
X147450348Y-79835681D01*
X147423503Y-79928843D01*
X147407068Y-79988201D01*
X147402039Y-80010399D01*
X147407847Y-80008512D01*
X147444776Y-79988828D01*
X147513207Y-79949643D01*
X147610183Y-79892727D01*
X147732749Y-79819848D01*
X147877946Y-79732776D01*
X148042820Y-79633279D01*
X148224414Y-79523128D01*
X148419773Y-79404091D01*
X148625938Y-79277938D01*
X148738578Y-79208917D01*
X148939372Y-79086107D01*
X149127773Y-78971167D01*
X149300821Y-78865888D01*
X149455552Y-78772061D01*
X149589004Y-78691477D01*
X149698216Y-78625927D01*
X149780226Y-78577201D01*
X149832071Y-78547091D01*
X149850789Y-78537387D01*
X149847445Y-78543091D01*
X149822249Y-78577792D01*
X149774198Y-78641585D01*
X149705398Y-78731737D01*
X149617957Y-78845516D01*
X149513982Y-78980190D01*
X149395580Y-79133026D01*
X149264859Y-79301291D01*
X149123925Y-79482254D01*
X148974886Y-79673181D01*
X148890206Y-79781695D01*
X148745984Y-79967254D01*
X148611405Y-80141345D01*
X148488539Y-80301237D01*
X148379455Y-80444202D01*
X148286222Y-80567512D01*
X148210909Y-80668438D01*
X148155585Y-80744250D01*
X148122319Y-80792221D01*
X148113180Y-80809620D01*
X148118070Y-80809503D01*
X148157931Y-80804164D01*
X148234545Y-80792127D01*
X148344401Y-80773995D01*
X148483986Y-80750369D01*
X148649788Y-80721853D01*
X148838295Y-80689047D01*
X149045996Y-80652556D01*
X149269377Y-80612980D01*
X149504928Y-80570923D01*
X149602109Y-80553530D01*
X149833045Y-80512400D01*
X150050333Y-80473979D01*
X150250470Y-80438871D01*
X150429948Y-80407679D01*
X150585262Y-80381008D01*
X150712907Y-80359460D01*
X150809376Y-80343639D01*
X150871164Y-80334150D01*
X150894765Y-80331596D01*
X150891083Y-80335458D01*
X150857698Y-80358229D01*
X150792376Y-80399821D01*
X150698029Y-80458458D01*
X150577570Y-80532365D01*
X150433910Y-80619767D01*
X150269963Y-80718888D01*
X150088641Y-80827952D01*
X149892857Y-80945184D01*
X149685522Y-81068808D01*
X149572140Y-81136317D01*
X149369836Y-81257002D01*
X149180200Y-81370421D01*
X149006204Y-81474781D01*
X148850820Y-81568289D01*
X148717018Y-81649150D01*
X148607772Y-81715571D01*
X148526051Y-81765758D01*
X148474828Y-81797919D01*
X148457074Y-81810259D01*
X148462375Y-81812231D01*
X148502439Y-81821875D01*
X148578955Y-81838583D01*
X148688522Y-81861662D01*
X148827740Y-81890414D01*
X148993207Y-81924146D01*
X149181522Y-81962161D01*
X149389286Y-82003764D01*
X149613098Y-82048261D01*
X149849555Y-82094956D01*
X149968809Y-82118461D01*
X150200099Y-82164249D01*
X150417412Y-82207528D01*
X150617297Y-82247598D01*
X150796304Y-82283756D01*
X150950983Y-82315300D01*
X151077882Y-82341529D01*
X151173550Y-82361741D01*
X151234537Y-82375234D01*
X151257393Y-82381306D01*
X151253686Y-82383171D01*
X151216624Y-82391759D01*
X151142794Y-82406284D01*
X151035575Y-82426150D01*
X150898348Y-82450762D01*
X150734493Y-82479523D01*
X150547392Y-82511837D01*
X150340424Y-82547108D01*
X150116971Y-82584740D01*
X149880412Y-82624136D01*
X149768968Y-82642622D01*
X149536266Y-82681402D01*
X149317282Y-82718138D01*
X149115527Y-82752225D01*
X148934512Y-82783063D01*
X148777749Y-82810047D01*
X148648749Y-82832575D01*
X148551023Y-82850044D01*
X148488082Y-82861851D01*
X148463439Y-82867394D01*
X148468331Y-82875507D01*
X148503290Y-82904167D01*
X148567322Y-82950653D01*
X148656490Y-83012257D01*
X148766853Y-83086272D01*
X148894475Y-83169988D01*
X149035416Y-83260697D01*
X149050244Y-83270155D01*
X149230557Y-83385175D01*
X149434210Y-83515106D01*
X149649866Y-83652711D01*
X149866184Y-83790756D01*
X150071826Y-83922004D01*
X150255454Y-84039221D01*
X150383246Y-84121069D01*
X150516366Y-84206951D01*
X150633156Y-84282964D01*
X150729725Y-84346544D01*
X150802184Y-84395130D01*
X150846642Y-84426155D01*
X150859208Y-84437058D01*
X150851245Y-84435701D01*
X150807003Y-84426932D01*
X150727829Y-84410777D01*
X150617901Y-84388110D01*
X150481397Y-84359809D01*
X150322495Y-84326751D01*
X150145373Y-84289811D01*
X149954209Y-84249867D01*
X149753180Y-84207794D01*
X149546466Y-84164470D01*
X149338243Y-84120770D01*
X149132691Y-84077571D01*
X148933986Y-84035751D01*
X148746306Y-83996184D01*
X148573831Y-83959749D01*
X148420737Y-83927320D01*
X148291203Y-83899775D01*
X148189406Y-83877991D01*
X148119525Y-83862843D01*
X148085738Y-83855209D01*
X148084129Y-83854731D01*
X148051734Y-83829914D01*
X148008735Y-83778841D01*
X147963946Y-83711885D01*
X147919444Y-83638203D01*
X147874600Y-83565183D01*
X147841373Y-83512381D01*
X147798223Y-83445612D01*
X147889020Y-83465894D01*
X147924418Y-83473850D01*
X148000591Y-83491066D01*
X148102378Y-83514131D01*
X148220878Y-83541026D01*
X148347189Y-83569735D01*
X148452927Y-83593669D01*
X148559362Y-83617494D01*
X148645039Y-83636378D01*
X148703112Y-83648815D01*
X148726733Y-83653295D01*
X148724430Y-83650892D01*
X148695577Y-83629387D01*
X148636922Y-83587617D01*
X148552044Y-83528076D01*
X148444518Y-83453256D01*
X148317922Y-83365650D01*
X148175833Y-83267752D01*
X148021827Y-83162053D01*
X147883602Y-83067236D01*
X147730505Y-82961702D01*
X147607590Y-82876089D01*
X147512048Y-82808253D01*
X147441069Y-82756054D01*
X147391845Y-82717350D01*
X147361564Y-82689997D01*
X147347419Y-82671854D01*
X147346599Y-82660779D01*
X147356295Y-82654630D01*
X147368384Y-82651586D01*
X147420713Y-82640667D01*
X147506511Y-82624005D01*
X147620316Y-82602620D01*
X147756665Y-82577533D01*
X147910096Y-82549764D01*
X148075146Y-82520334D01*
X148150443Y-82506987D01*
X148316416Y-82477431D01*
X148471444Y-82449647D01*
X148609369Y-82424748D01*
X148724035Y-82403848D01*
X148809286Y-82388061D01*
X148858966Y-82378502D01*
X148975479Y-82354785D01*
X148151553Y-82178348D01*
X148092698Y-82165730D01*
X147915904Y-82127647D01*
X147753844Y-82092471D01*
X147610971Y-82061188D01*
X147491734Y-82034779D01*
X147400586Y-82014230D01*
X147341978Y-82000524D01*
X147320361Y-81994645D01*
X147323446Y-81991447D01*
X147354510Y-81969019D01*
X147415892Y-81927341D01*
X147503917Y-81868831D01*
X147614911Y-81795909D01*
X147745199Y-81710996D01*
X147891106Y-81616511D01*
X148048958Y-81514873D01*
X148130489Y-81462384D01*
X148279719Y-81365552D01*
X148413477Y-81277762D01*
X148528383Y-81201297D01*
X148621055Y-81138435D01*
X148688113Y-81091457D01*
X148726175Y-81062645D01*
X148731860Y-81054278D01*
X148719511Y-81057002D01*
X148651848Y-81071108D01*
X148555167Y-81090452D01*
X148434899Y-81114013D01*
X148296476Y-81140770D01*
X148145331Y-81169702D01*
X147986896Y-81199786D01*
X147826603Y-81230003D01*
X147669883Y-81259329D01*
X147522170Y-81286746D01*
X147388895Y-81311230D01*
X147275491Y-81331761D01*
X147187389Y-81347317D01*
X147130022Y-81356877D01*
X147108822Y-81359420D01*
X147110745Y-81354897D01*
X147132025Y-81321870D01*
X147174584Y-81259970D01*
X147235862Y-81172801D01*
X147313299Y-81063971D01*
X147404335Y-80937084D01*
X147506412Y-80795746D01*
X147616969Y-80643564D01*
X147669852Y-80570906D01*
X147776864Y-80423435D01*
X147874302Y-80288567D01*
X147959591Y-80169901D01*
X148030159Y-80071037D01*
X148083432Y-79995572D01*
X148116836Y-79947105D01*
X148127799Y-79929235D01*
X148125322Y-79930134D01*
X148095823Y-79947554D01*
X148036080Y-79985095D01*
X147949867Y-80040319D01*
X147840954Y-80110788D01*
X147713116Y-80194066D01*
X147570124Y-80287713D01*
X147415751Y-80389294D01*
X147360505Y-80425659D01*
X147209747Y-80524152D01*
X147071611Y-80613330D01*
X146949867Y-80690830D01*
X146848287Y-80754286D01*
X146770642Y-80801332D01*
X146720705Y-80829604D01*
X146702247Y-80836736D01*
X146702588Y-80831856D01*
X146711121Y-80792990D01*
X146729681Y-80719557D01*
X146757082Y-80615958D01*
X146792136Y-80486591D01*
X146833655Y-80335858D01*
X146880452Y-80168159D01*
X146931339Y-79987892D01*
X146952531Y-79913064D01*
X147001712Y-79738019D01*
X147046214Y-79577696D01*
X147084869Y-79436428D01*
X147116508Y-79318548D01*
X147139962Y-79228392D01*
X147154064Y-79170291D01*
X147157644Y-79148581D01*
X147157097Y-79148799D01*
X147140262Y-79169087D01*
X147102533Y-79218843D01*
X147047054Y-79293704D01*
X146976968Y-79389310D01*
X146895419Y-79501298D01*
X146805552Y-79625305D01*
X146710510Y-79756971D01*
X146613438Y-79891932D01*
X146517478Y-80025827D01*
X146425775Y-80154295D01*
X146341474Y-80272972D01*
X146267717Y-80377496D01*
X146207648Y-80463507D01*
X146164413Y-80526641D01*
X146158199Y-80534155D01*
X146140648Y-80538586D01*
X146139099Y-80530545D01*
X146134502Y-80485729D01*
X146127775Y-80405549D01*
X146119243Y-80294407D01*
X146109232Y-80156707D01*
X146098065Y-79996850D01*
X146086067Y-79819238D01*
X146073561Y-79628274D01*
X146066333Y-79516546D01*
X146054360Y-79333188D01*
X146043303Y-79165935D01*
X146033459Y-79019151D01*
X146025124Y-78897198D01*
X146018593Y-78804438D01*
X146014164Y-78745236D01*
X146012133Y-78723954D01*
X146010414Y-78728531D01*
X145999300Y-78766263D01*
X145978920Y-78838582D01*
X145950438Y-78941269D01*
X145915015Y-79070106D01*
X145873814Y-79220874D01*
X145827995Y-79389354D01*
X145778722Y-79571327D01*
X145755184Y-79658299D01*
X145706679Y-79836618D01*
X145661740Y-80000630D01*
X145621602Y-80145900D01*
X145587502Y-80267993D01*
X145560674Y-80362472D01*
X145542354Y-80424901D01*
X145533777Y-80450844D01*
X145532560Y-80451432D01*
X145517448Y-80431010D01*
X145487528Y-80374843D01*
X145444078Y-80285659D01*
X145388375Y-80166189D01*
X145321696Y-80019159D01*
X145245319Y-79847301D01*
X145160521Y-79653341D01*
X145116242Y-79551438D01*
X145043065Y-79383566D01*
X144976172Y-79230782D01*
X144917319Y-79097052D01*
X144868260Y-78986345D01*
X144830747Y-78902627D01*
X144806536Y-78849865D01*
X144797381Y-78832028D01*
X144797245Y-78832755D01*
X144798288Y-78860583D01*
X144802306Y-78925274D01*
X144808969Y-79022213D01*
X144817945Y-79146783D01*
X144828902Y-79294368D01*
X144841508Y-79460353D01*
X144855433Y-79640123D01*
X144857015Y-79660374D01*
X144871069Y-79841914D01*
X144883980Y-80011500D01*
X144895378Y-80164086D01*
X144904896Y-80294623D01*
X144912164Y-80398066D01*
X144916814Y-80469368D01*
X144918477Y-80503480D01*
X144918682Y-80563090D01*
X144792720Y-80474733D01*
X144780031Y-80465522D01*
X144712617Y-80410899D01*
X144628150Y-80336036D01*
X144536165Y-80249583D01*
X144446191Y-80160193D01*
X144441677Y-80155564D01*
X144363085Y-80074093D01*
X144302253Y-80007425D01*
X144253121Y-79946749D01*
X144209626Y-79883254D01*
X144165706Y-79808129D01*
X144115299Y-79712563D01*
X144052344Y-79587746D01*
X143999983Y-79481372D01*
X143953518Y-79383397D01*
X143918044Y-79304627D01*
X143896335Y-79251231D01*
X143891167Y-79229378D01*
X143902967Y-79234889D01*
X143940654Y-79265338D01*
X143998928Y-79317783D01*
X144072671Y-79387586D01*
X144156765Y-79470108D01*
X144224154Y-79536413D01*
X144298368Y-79607018D01*
X144357326Y-79660320D01*
X144396225Y-79692005D01*
X144410258Y-79697758D01*
X144409893Y-79691374D01*
X144406654Y-79648309D01*
X144400306Y-79568196D01*
X144391139Y-79454584D01*
X144379444Y-79311022D01*
X144365512Y-79141058D01*
X144349633Y-78948240D01*
X144332097Y-78736116D01*
X144313195Y-78508236D01*
X144293218Y-78268148D01*
X144284029Y-78157577D01*
X144264660Y-77922406D01*
X144246654Y-77700947D01*
X144230288Y-77496763D01*
X144215838Y-77313417D01*
X144203580Y-77154473D01*
X144193791Y-77023495D01*
X144186748Y-76924044D01*
X144182725Y-76859684D01*
X144182000Y-76833979D01*
X144186175Y-76838386D01*
X144206407Y-76874893D01*
X144242071Y-76944905D01*
X144291713Y-77045406D01*
X144353878Y-77173377D01*
X144427112Y-77325802D01*
X144509961Y-77499662D01*
X144600969Y-77691940D01*
X144698684Y-77899618D01*
X144801650Y-78119679D01*
X144866095Y-78257704D01*
X144966101Y-78471565D01*
X145059899Y-78671754D01*
X145146031Y-78855177D01*
X145223037Y-79018743D01*
X145289458Y-79159360D01*
X145343836Y-79273934D01*
X145384710Y-79359374D01*
X145410623Y-79412588D01*
X145420116Y-79430482D01*
X145422574Y-79423170D01*
X145435597Y-79380328D01*
X145458911Y-79302058D01*
X145491543Y-79191673D01*
X145532519Y-79052489D01*
X145580864Y-78887820D01*
X145635605Y-78700981D01*
X145695769Y-78495287D01*
X145760380Y-78274052D01*
X145828466Y-78040592D01*
X145868497Y-77903323D01*
X145934780Y-77676435D01*
X145997092Y-77463639D01*
X146054451Y-77268260D01*
X146105875Y-77093622D01*
X146150384Y-76943048D01*
X146186995Y-76819863D01*
X146214728Y-76727392D01*
X146232601Y-76668958D01*
X146239632Y-76647885D01*
X146240660Y-76647355D01*
X146243296Y-76651138D01*
X146246266Y-76664341D01*
X146249784Y-76689701D01*
X146254064Y-76729958D01*
X146259320Y-76787847D01*
X146265767Y-76866106D01*
X146273618Y-76967472D01*
X146283089Y-77094684D01*
X146294392Y-77250477D01*
X146307744Y-77437591D01*
X146323357Y-77658761D01*
X146341446Y-77916725D01*
X146362225Y-78214221D01*
X146364540Y-78247334D01*
X146380819Y-78476562D01*
X146396578Y-78692294D01*
X146411526Y-78890931D01*
X146425371Y-79068878D01*
X146437824Y-79222537D01*
X146448593Y-79348311D01*
X146457389Y-79442602D01*
X146463921Y-79501815D01*
X146467897Y-79522352D01*
X146472646Y-79517816D01*
X146500132Y-79484878D01*
X146549990Y-79422393D01*
X146620085Y-79333116D01*
X146708280Y-79219805D01*
X146793833Y-79109258D01*
X147164220Y-79109258D01*
X147174812Y-79119850D01*
X147185404Y-79109258D01*
X147174812Y-79098666D01*
X147164220Y-79109258D01*
X146793833Y-79109258D01*
X146812440Y-79085215D01*
X146930429Y-78932103D01*
X147060111Y-78763223D01*
X147199351Y-78581334D01*
X147346012Y-78389190D01*
X147424427Y-78286385D01*
X147567125Y-78099704D01*
X147701118Y-77924922D01*
X147824290Y-77764771D01*
X147934526Y-77621979D01*
X148029713Y-77499277D01*
X148107734Y-77399395D01*
X148166476Y-77325064D01*
X148203822Y-77279014D01*
X148217658Y-77263975D01*
X148216714Y-77270119D01*
X148205980Y-77310996D01*
X148184350Y-77387315D01*
X148152811Y-77495743D01*
X148112353Y-77632947D01*
X148063967Y-77795593D01*
X148008641Y-77980350D01*
X147947365Y-78183883D01*
X147881129Y-78402859D01*
X147810922Y-78633947D01*
X147774214Y-78754644D01*
X147705837Y-78980197D01*
X147666885Y-79109258D01*
X147641892Y-79192069D01*
X147583373Y-79386908D01*
G37*
G36*
X142173681Y-78785239D02*
G01*
X142212980Y-78808243D01*
X142225379Y-78851276D01*
X142206245Y-78898433D01*
X142179418Y-78921360D01*
X142136948Y-78923711D01*
X142100443Y-78885469D01*
X142097265Y-78878955D01*
X142093007Y-78829082D01*
X142121257Y-78793792D01*
X142173242Y-78785175D01*
X142173681Y-78785239D01*
G37*
G36*
X144871719Y-86183002D02*
G01*
X144936168Y-86190593D01*
X144984427Y-86202997D01*
X145003419Y-86218539D01*
X145003383Y-86218813D01*
X144993041Y-86242682D01*
X144965462Y-86300917D01*
X144922272Y-86390206D01*
X144865100Y-86507237D01*
X144795574Y-86648696D01*
X144715321Y-86811271D01*
X144625969Y-86991650D01*
X144529147Y-87186520D01*
X144426482Y-87392568D01*
X144417613Y-87410341D01*
X144315531Y-87614437D01*
X144219247Y-87806112D01*
X144130391Y-87982175D01*
X144050592Y-88139434D01*
X143981481Y-88274700D01*
X143924687Y-88384779D01*
X143881841Y-88466482D01*
X143854572Y-88516616D01*
X143844511Y-88531991D01*
X143845693Y-88509197D01*
X143851182Y-88448318D01*
X143860565Y-88353619D01*
X143873405Y-88229290D01*
X143889262Y-88079523D01*
X143907697Y-87908509D01*
X143928271Y-87720439D01*
X143950545Y-87519504D01*
X144061613Y-86523912D01*
X144124718Y-86493404D01*
X144162870Y-86479814D01*
X144237280Y-86466322D01*
X144321161Y-86460996D01*
X144401749Y-86463819D01*
X144466280Y-86474776D01*
X144501989Y-86493853D01*
X144520198Y-86511236D01*
X144551816Y-86519047D01*
X144553567Y-86518570D01*
X144590206Y-86523338D01*
X144640798Y-86543668D01*
X144645148Y-86545907D01*
X144699845Y-86570841D01*
X144719625Y-86571872D01*
X144704432Y-86549174D01*
X144654207Y-86502919D01*
X144569799Y-86430699D01*
X144626200Y-86315700D01*
X144644841Y-86279024D01*
X144677520Y-86227653D01*
X144711124Y-86200434D01*
X144756231Y-86186888D01*
X144804156Y-86181898D01*
X144871719Y-86183002D01*
G37*
%TD*%
D10*
%TO.C,J3*%
X137050000Y-76875000D03*
%TD*%
D11*
%TO.C,J2*%
X140250000Y-76420000D03*
D12*
X140250000Y-87820000D03*
X140250000Y-79520000D03*
%TD*%
D11*
%TO.C,J1*%
X149950000Y-76420000D03*
D12*
X149950000Y-87820000D03*
X149950000Y-79520000D03*
%TD*%
D13*
%TO.C,RV1*%
X142787487Y-87213604D03*
X142787487Y-77213604D03*
D14*
X153387487Y-78213604D03*
D15*
X153387487Y-82225604D03*
X153387487Y-86213604D03*
%TD*%
M02*
