%TF.GenerationSoftware,KiCad,Pcbnew,(6.0.2-0)*%
%TF.CreationDate,2022-07-29T18:49:05+02:00*%
%TF.ProjectId,crossfaderAttenuator,63726f73-7366-4616-9465-72417474656e,rev?*%
%TF.SameCoordinates,Original*%
%TF.FileFunction,Legend,Top*%
%TF.FilePolarity,Positive*%
%FSLAX46Y46*%
G04 Gerber Fmt 4.6, Leading zero omitted, Abs format (unit mm)*
G04 Created by KiCad (PCBNEW (6.0.2-0)) date 2022-07-29 18:49:05*
%MOMM*%
%LPD*%
G01*
G04 APERTURE LIST*
%ADD10C,0.250000*%
%ADD11C,0.120000*%
G04 APERTURE END LIST*
D10*
X136428571Y-87239285D02*
X136428571Y-86239285D01*
X137928571Y-86882142D01*
X137785714Y-85667857D02*
X137857142Y-85596428D01*
X137928571Y-85667857D01*
X137857142Y-85739285D01*
X137785714Y-85667857D01*
X137928571Y-85667857D01*
X136571428Y-85025000D02*
X136500000Y-84953571D01*
X136428571Y-84810714D01*
X136428571Y-84453571D01*
X136500000Y-84310714D01*
X136571428Y-84239285D01*
X136714285Y-84167857D01*
X136857142Y-84167857D01*
X137071428Y-84239285D01*
X137928571Y-85096428D01*
X137928571Y-84167857D01*
X136428571Y-83239285D02*
X136428571Y-83096428D01*
X136500000Y-82953571D01*
X136571428Y-82882142D01*
X136714285Y-82810714D01*
X137000000Y-82739285D01*
X137357142Y-82739285D01*
X137642857Y-82810714D01*
X137785714Y-82882142D01*
X137857142Y-82953571D01*
X137928571Y-83096428D01*
X137928571Y-83239285D01*
X137857142Y-83382142D01*
X137785714Y-83453571D01*
X137642857Y-83525000D01*
X137357142Y-83596428D01*
X137000000Y-83596428D01*
X136714285Y-83525000D01*
X136571428Y-83453571D01*
X136500000Y-83382142D01*
X136428571Y-83239285D01*
X136571428Y-82167857D02*
X136500000Y-82096428D01*
X136428571Y-81953571D01*
X136428571Y-81596428D01*
X136500000Y-81453571D01*
X136571428Y-81382142D01*
X136714285Y-81310714D01*
X136857142Y-81310714D01*
X137071428Y-81382142D01*
X137928571Y-82239285D01*
X137928571Y-81310714D01*
X136571428Y-80739285D02*
X136500000Y-80667857D01*
X136428571Y-80525000D01*
X136428571Y-80167857D01*
X136500000Y-80025000D01*
X136571428Y-79953571D01*
X136714285Y-79882142D01*
X136857142Y-79882142D01*
X137071428Y-79953571D01*
X137928571Y-80810714D01*
X137928571Y-79882142D01*
D11*
%TO.C,J3*%
X136670000Y-66775000D02*
X137430000Y-66775000D01*
X136850000Y-72775000D02*
X136850000Y-66775000D01*
X137430000Y-66775000D02*
X137430000Y-72775000D01*
X137050000Y-78145000D02*
X135780000Y-78145000D01*
X135720000Y-72775000D02*
X135720000Y-75435000D01*
X135720000Y-75435000D02*
X138380000Y-75435000D01*
X137430000Y-75765000D02*
X137430000Y-75435000D01*
X135780000Y-78145000D02*
X135780000Y-76875000D01*
X137210000Y-72775000D02*
X137210000Y-66775000D01*
X138380000Y-75435000D02*
X138380000Y-72775000D01*
X137330000Y-72775000D02*
X137330000Y-66775000D01*
X136970000Y-72775000D02*
X136970000Y-66775000D01*
X138380000Y-72775000D02*
X135720000Y-72775000D01*
X136730000Y-72775000D02*
X136730000Y-66775000D01*
X136670000Y-72775000D02*
X136670000Y-66775000D01*
X137090000Y-72775000D02*
X137090000Y-66775000D01*
X136670000Y-75765000D02*
X136670000Y-75435000D01*
%TO.C,J2*%
X144750000Y-78400000D02*
X144750000Y-88900000D01*
X139020000Y-75250000D02*
X139880000Y-75250000D01*
X144750000Y-88900000D02*
X141050000Y-88900000D01*
X135750000Y-78400000D02*
X135750000Y-88900000D01*
X139530000Y-78400000D02*
X135750000Y-78400000D01*
X139450000Y-88900000D02*
X135750000Y-88900000D01*
X139020000Y-75250000D02*
X139020000Y-76050000D01*
X144750000Y-78400000D02*
X140970000Y-78400000D01*
X142050000Y-82900000D02*
G75*
G03*
X142050000Y-82900000I-1800000J0D01*
G01*
%TO.C,J1*%
X145450000Y-78400000D02*
X145450000Y-88900000D01*
X154450000Y-88900000D02*
X150750000Y-88900000D01*
X148720000Y-75250000D02*
X148720000Y-76050000D01*
X149150000Y-88900000D02*
X145450000Y-88900000D01*
X148720000Y-75250000D02*
X149580000Y-75250000D01*
X154450000Y-78400000D02*
X150670000Y-78400000D01*
X154450000Y-78400000D02*
X154450000Y-88900000D01*
X149230000Y-78400000D02*
X145450000Y-78400000D01*
X151750000Y-82900000D02*
G75*
G03*
X151750000Y-82900000I-1800000J0D01*
G01*
%TD*%
M02*
