%TF.GenerationSoftware,KiCad,Pcbnew,(6.0.2-0)*%
%TF.CreationDate,2022-07-29T18:45:40+02:00*%
%TF.ProjectId,2xMixer,32784d69-7865-4722-9e6b-696361645f70,rev?*%
%TF.SameCoordinates,Original*%
%TF.FileFunction,Copper,L1,Top*%
%TF.FilePolarity,Positive*%
%FSLAX46Y46*%
G04 Gerber Fmt 4.6, Leading zero omitted, Abs format (unit mm)*
G04 Created by KiCad (PCBNEW (6.0.2-0)) date 2022-07-29 18:45:40*
%MOMM*%
%LPD*%
G01*
G04 APERTURE LIST*
G04 Aperture macros list*
%AMRoundRect*
0 Rectangle with rounded corners*
0 $1 Rounding radius*
0 $2 $3 $4 $5 $6 $7 $8 $9 X,Y pos of 4 corners*
0 Add a 4 corners polygon primitive as box body*
4,1,4,$2,$3,$4,$5,$6,$7,$8,$9,$2,$3,0*
0 Add four circle primitives for the rounded corners*
1,1,$1+$1,$2,$3*
1,1,$1+$1,$4,$5*
1,1,$1+$1,$6,$7*
1,1,$1+$1,$8,$9*
0 Add four rect primitives between the rounded corners*
20,1,$1+$1,$2,$3,$4,$5,0*
20,1,$1+$1,$4,$5,$6,$7,0*
20,1,$1+$1,$6,$7,$8,$9,0*
20,1,$1+$1,$8,$9,$2,$3,0*%
G04 Aperture macros list end*
%TA.AperFunction,SMDPad,CuDef*%
%ADD10R,1.800000X2.500000*%
%TD*%
%TA.AperFunction,SMDPad,CuDef*%
%ADD11RoundRect,0.250000X0.625000X-0.400000X0.625000X0.400000X-0.625000X0.400000X-0.625000X-0.400000X0*%
%TD*%
%TA.AperFunction,ComponentPad*%
%ADD12R,3.500000X1.600000*%
%TD*%
%TA.AperFunction,ComponentPad*%
%ADD13O,3.500000X1.600000*%
%TD*%
%TA.AperFunction,SMDPad,CuDef*%
%ADD14R,1.100000X0.600000*%
%TD*%
%TA.AperFunction,SMDPad,CuDef*%
%ADD15R,0.700000X1.500000*%
%TD*%
%TA.AperFunction,SMDPad,CuDef*%
%ADD16RoundRect,0.250000X-0.625000X0.400000X-0.625000X-0.400000X0.625000X-0.400000X0.625000X0.400000X0*%
%TD*%
%TA.AperFunction,ComponentPad*%
%ADD17O,2.000000X2.000000*%
%TD*%
%TA.AperFunction,ComponentPad*%
%ADD18R,2.400000X1.000000*%
%TD*%
%TA.AperFunction,ComponentPad*%
%ADD19C,1.800000*%
%TD*%
%TA.AperFunction,ComponentPad*%
%ADD20O,1.700000X2.400000*%
%TD*%
%TA.AperFunction,ComponentPad*%
%ADD21R,1.800000X1.800000*%
%TD*%
%TA.AperFunction,ComponentPad*%
%ADD22O,2.500000X1.000000*%
%TD*%
%TA.AperFunction,Conductor*%
%ADD23C,0.500000*%
%TD*%
%TA.AperFunction,Conductor*%
%ADD24C,0.250000*%
%TD*%
G04 APERTURE END LIST*
D10*
%TO.P,D1,1,K*%
%TO.N,GND*%
X127975000Y-72950000D03*
%TO.P,D1,2,A*%
%TO.N,Net-(D1-Pad2)*%
X127975000Y-76950000D03*
%TD*%
D11*
%TO.P,R1,1*%
%TO.N,Net-(R1-Pad1)*%
X128375000Y-69475000D03*
%TO.P,R1,2*%
%TO.N,Net-(J3-PadT)*%
X128375000Y-66375000D03*
%TD*%
D12*
%TO.P,J1,S*%
%TO.N,GND*%
X133200000Y-66212500D03*
D13*
%TO.P,J1,T*%
%TO.N,Net-(J1-PadT)*%
X133200000Y-71512500D03*
%TO.P,J1,TN*%
%TO.N,unconnected-(J1-PadTN)*%
X133200000Y-77312500D03*
%TD*%
D14*
%TO.P,SW1,*%
%TO.N,*%
X127875000Y-82455000D03*
X127875000Y-80245000D03*
X117575000Y-80245000D03*
X117575000Y-82455000D03*
D15*
%TO.P,SW1,1,1*%
%TO.N,Net-(R2-Pad1)*%
X119725000Y-79595000D03*
%TO.P,SW1,2,2*%
%TO.N,unconnected-(SW1-Pad2)*%
X121225000Y-79595000D03*
%TO.P,SW1,3,3*%
%TO.N,Net-(D1-Pad2)*%
X124225000Y-79595000D03*
%TO.P,SW1,4,4*%
%TO.N,Net-(R1-Pad1)*%
X125725000Y-79595000D03*
%TD*%
D12*
%TO.P,J2,S*%
%TO.N,GND*%
X112500000Y-66150000D03*
D13*
%TO.P,J2,T*%
%TO.N,Net-(J2-PadT)*%
X112500000Y-71450000D03*
%TO.P,J2,TN*%
%TO.N,unconnected-(J2-PadTN)*%
X112500000Y-77250000D03*
%TD*%
D12*
%TO.P,J3,S*%
%TO.N,GND*%
X122750000Y-66190000D03*
D13*
%TO.P,J3,T*%
%TO.N,Net-(J3-PadT)*%
X122750000Y-71490000D03*
%TO.P,J3,TN*%
%TO.N,unconnected-(J3-PadTN)*%
X122750000Y-77290000D03*
%TD*%
D11*
%TO.P,R2,1*%
%TO.N,Net-(R2-Pad1)*%
X117275000Y-69475000D03*
%TO.P,R2,2*%
%TO.N,Net-(J3-PadT)*%
X117275000Y-66375000D03*
%TD*%
D16*
%TO.P,R5,1*%
%TO.N,GND*%
X117550000Y-74375000D03*
%TO.P,R5,2*%
%TO.N,Net-(D1-Pad2)*%
X117550000Y-77475000D03*
%TD*%
D17*
%TO.P,RV2,*%
%TO.N,GND*%
X109225000Y-70750000D03*
X119225000Y-70750000D03*
D18*
%TO.P,RV2,1,1*%
%TO.N,Net-(J2-PadT)*%
X118225000Y-81350000D03*
D19*
%TO.P,RV2,2,2*%
%TO.N,Net-(R2-Pad1)*%
X114213000Y-81350000D03*
%TO.P,RV2,3,3*%
%TO.N,GND*%
X110225000Y-81350000D03*
%TD*%
D20*
%TO.P,RV1,*%
%TO.N,GND*%
X136225000Y-70750000D03*
X126225000Y-70750000D03*
D21*
%TO.P,RV1,1,1*%
%TO.N,Net-(J1-PadT)*%
X135225000Y-81350000D03*
D19*
%TO.P,RV1,2,2*%
%TO.N,Net-(R1-Pad1)*%
X131213000Y-81350000D03*
D22*
%TO.P,RV1,3,3*%
%TO.N,GND*%
X127225000Y-81350000D03*
%TD*%
D23*
%TO.N,GND*%
X112500000Y-66150000D02*
X112500000Y-65900000D01*
X125525000Y-73950000D02*
X117975000Y-73950000D01*
X117550000Y-74375000D02*
X117550000Y-72425000D01*
X117975000Y-73950000D02*
X117550000Y-74375000D01*
X121660000Y-65100000D02*
X122750000Y-66190000D01*
X113300000Y-65100000D02*
X121660000Y-65100000D01*
D24*
X122890000Y-66190000D02*
X122900000Y-66200000D01*
D23*
X117550000Y-72425000D02*
X119225000Y-70750000D01*
D24*
X132950000Y-66200000D02*
X133000000Y-66150000D01*
D23*
X126525000Y-72950000D02*
X125525000Y-73950000D01*
X123900000Y-65100000D02*
X130200000Y-65100000D01*
X127975000Y-72950000D02*
X126525000Y-72950000D01*
X122750000Y-66190000D02*
X122810000Y-66190000D01*
X130200000Y-65100000D02*
X131250000Y-66150000D01*
X131250000Y-66150000D02*
X133025000Y-66150000D01*
X133025000Y-66150000D02*
X133950000Y-66150000D01*
X122810000Y-66190000D02*
X123900000Y-65100000D01*
X112500000Y-65900000D02*
X113300000Y-65100000D01*
%TO.N,Net-(J1-PadT)*%
X133200000Y-73275000D02*
X136075000Y-76150000D01*
X135362000Y-81063000D02*
X135362000Y-81425000D01*
X136075000Y-80350000D02*
X135362000Y-81063000D01*
X133200000Y-71512500D02*
X133200000Y-73275000D01*
X136075000Y-76150000D02*
X136075000Y-80350000D01*
%TO.N,Net-(J3-PadT)*%
X118150000Y-66375000D02*
X122750000Y-70975000D01*
X122750000Y-71100000D02*
X122750000Y-71490000D01*
X127475000Y-66375000D02*
X122750000Y-71100000D01*
X122750000Y-70975000D02*
X122750000Y-71490000D01*
X128375000Y-66375000D02*
X127475000Y-66375000D01*
X117275000Y-66375000D02*
X118150000Y-66375000D01*
%TO.N,Net-(R1-Pad1)*%
X126155000Y-79595000D02*
X126725000Y-79025000D01*
X128888000Y-79025000D02*
X129131500Y-79268500D01*
X129131500Y-79268500D02*
X131213000Y-81350000D01*
X125775000Y-79645000D02*
X125775000Y-79400000D01*
X128375000Y-69475000D02*
X130075000Y-71175000D01*
X125725000Y-79595000D02*
X126155000Y-79595000D01*
X130075000Y-71175000D02*
X130075000Y-78325000D01*
X126725000Y-79025000D02*
X128888000Y-79025000D01*
X130075000Y-78325000D02*
X129131500Y-79268500D01*
%TO.N,Net-(R2-Pad1)*%
X117275000Y-69475000D02*
X117275000Y-70500000D01*
X115650000Y-72125000D02*
X115650000Y-78900000D01*
X115650000Y-79913000D02*
X114213000Y-81350000D01*
X115850000Y-79100000D02*
X115650000Y-78900000D01*
X118875000Y-79100000D02*
X115850000Y-79100000D01*
X119370000Y-79595000D02*
X118875000Y-79100000D01*
X117275000Y-70500000D02*
X115650000Y-72125000D01*
X119725000Y-79595000D02*
X119370000Y-79595000D01*
X115650000Y-78900000D02*
X115650000Y-79913000D01*
%TO.N,Net-(D1-Pad2)*%
X126300000Y-76950000D02*
X126450000Y-76950000D01*
X121000000Y-75050000D02*
X124550000Y-75050000D01*
X124225000Y-79025000D02*
X126300000Y-76950000D01*
X117025000Y-77600000D02*
X117650000Y-77600000D01*
X126450000Y-76950000D02*
X127975000Y-76950000D01*
X118575000Y-77475000D02*
X121000000Y-75050000D01*
X124550000Y-75050000D02*
X126450000Y-76950000D01*
X124225000Y-79595000D02*
X124225000Y-79025000D01*
X117550000Y-77475000D02*
X118575000Y-77475000D01*
X124275000Y-79645000D02*
X124275000Y-78950000D01*
X127850000Y-77925000D02*
X127850000Y-77325000D01*
%TD*%
%TA.AperFunction,Conductor*%
%TO.N,GND*%
G36*
X129142012Y-80352147D02*
G01*
X129148595Y-80358276D01*
X129787017Y-80996698D01*
X129821043Y-81059010D01*
X129823209Y-81099182D01*
X129820801Y-81121715D01*
X129800095Y-81315469D01*
X129800392Y-81320622D01*
X129800392Y-81320625D01*
X129813129Y-81541529D01*
X129813427Y-81546697D01*
X129814564Y-81551743D01*
X129814565Y-81551749D01*
X129844516Y-81684649D01*
X129864346Y-81772642D01*
X129866288Y-81777424D01*
X129866289Y-81777428D01*
X129945846Y-81973352D01*
X129951484Y-81987237D01*
X130072501Y-82184719D01*
X130084480Y-82198548D01*
X130158070Y-82283503D01*
X130187552Y-82348088D01*
X130177437Y-82418361D01*
X130130936Y-82472009D01*
X130062832Y-82492000D01*
X129059500Y-82492000D01*
X128991379Y-82471998D01*
X128944886Y-82418342D01*
X128933500Y-82366000D01*
X128933500Y-82106866D01*
X128926745Y-82044684D01*
X128875615Y-81908295D01*
X128877168Y-81907713D01*
X128864210Y-81848457D01*
X128879063Y-81797382D01*
X128905803Y-81747926D01*
X128910556Y-81736620D01*
X128946250Y-81621308D01*
X128946456Y-81607205D01*
X128939701Y-81604000D01*
X127097000Y-81604000D01*
X127028879Y-81583998D01*
X126982386Y-81530342D01*
X126971000Y-81478000D01*
X126971000Y-81222000D01*
X126991002Y-81153879D01*
X127044658Y-81107386D01*
X127097000Y-81096000D01*
X128932924Y-81096000D01*
X128946455Y-81092027D01*
X128947575Y-81084232D01*
X128915862Y-80976479D01*
X128911267Y-80965107D01*
X128878007Y-80901487D01*
X128864172Y-80831852D01*
X128876302Y-80791963D01*
X128875615Y-80791705D01*
X128900004Y-80726648D01*
X128926745Y-80655316D01*
X128933500Y-80593134D01*
X128933500Y-80447371D01*
X128953502Y-80379250D01*
X129007158Y-80332757D01*
X129077432Y-80322653D01*
X129142012Y-80352147D01*
G37*
%TD.AperFunction*%
%TA.AperFunction,Conductor*%
G36*
X110190757Y-65128002D02*
G01*
X110237250Y-65181658D01*
X110247899Y-65247607D01*
X110242369Y-65298512D01*
X110242000Y-65305328D01*
X110242000Y-65877885D01*
X110246475Y-65893124D01*
X110247865Y-65894329D01*
X110255548Y-65896000D01*
X114739884Y-65896000D01*
X114755123Y-65891525D01*
X114756328Y-65890135D01*
X114757999Y-65882452D01*
X114757999Y-65305331D01*
X114757630Y-65298512D01*
X114752100Y-65247606D01*
X114764629Y-65177724D01*
X114812950Y-65125709D01*
X114877363Y-65108000D01*
X116166519Y-65108000D01*
X116234640Y-65128002D01*
X116281133Y-65181658D01*
X116291237Y-65251932D01*
X116261743Y-65316512D01*
X116232822Y-65341144D01*
X116175652Y-65376522D01*
X116050695Y-65501697D01*
X115957885Y-65652262D01*
X115955581Y-65659209D01*
X115910722Y-65794456D01*
X115902203Y-65820139D01*
X115901503Y-65826975D01*
X115901502Y-65826978D01*
X115899492Y-65846598D01*
X115891500Y-65924600D01*
X115891500Y-66825400D01*
X115902474Y-66931166D01*
X115958450Y-67098946D01*
X116051522Y-67249348D01*
X116176697Y-67374305D01*
X116182927Y-67378145D01*
X116182928Y-67378146D01*
X116320090Y-67462694D01*
X116327262Y-67467115D01*
X116379532Y-67484452D01*
X116488611Y-67520632D01*
X116488613Y-67520632D01*
X116495139Y-67522797D01*
X116501975Y-67523497D01*
X116501978Y-67523498D01*
X116545031Y-67527909D01*
X116599600Y-67533500D01*
X117950400Y-67533500D01*
X117953646Y-67533163D01*
X117953650Y-67533163D01*
X117992440Y-67529138D01*
X118056166Y-67522526D01*
X118062702Y-67520346D01*
X118062704Y-67520345D01*
X118108758Y-67504980D01*
X118179707Y-67502396D01*
X118237728Y-67535409D01*
X119799274Y-69096955D01*
X119833300Y-69159267D01*
X119828235Y-69230082D01*
X119785688Y-69286918D01*
X119719168Y-69311729D01*
X119680764Y-69308569D01*
X119496615Y-69264358D01*
X119482531Y-69265063D01*
X119479000Y-69273944D01*
X119479000Y-72221756D01*
X119482973Y-72235287D01*
X119492431Y-72236647D01*
X119687634Y-72189782D01*
X119697008Y-72186736D01*
X119907163Y-72099687D01*
X119915958Y-72095205D01*
X120109899Y-71976357D01*
X120117883Y-71970557D01*
X120290858Y-71822822D01*
X120297822Y-71815858D01*
X120321041Y-71788672D01*
X120380491Y-71749863D01*
X120451486Y-71749357D01*
X120511485Y-71787313D01*
X120538559Y-71837892D01*
X120563864Y-71932330D01*
X120565716Y-71939243D01*
X120568039Y-71944224D01*
X120568039Y-71944225D01*
X120660151Y-72141762D01*
X120660154Y-72141767D01*
X120662477Y-72146749D01*
X120735902Y-72251611D01*
X120782393Y-72318006D01*
X120793802Y-72334300D01*
X120955700Y-72496198D01*
X120960208Y-72499355D01*
X120960211Y-72499357D01*
X121033941Y-72550983D01*
X121143251Y-72627523D01*
X121148233Y-72629846D01*
X121148238Y-72629849D01*
X121290101Y-72696000D01*
X121350757Y-72724284D01*
X121356065Y-72725706D01*
X121356067Y-72725707D01*
X121566598Y-72782119D01*
X121566600Y-72782119D01*
X121571913Y-72783543D01*
X121671480Y-72792254D01*
X121740149Y-72798262D01*
X121740156Y-72798262D01*
X121742873Y-72798500D01*
X123757127Y-72798500D01*
X123759844Y-72798262D01*
X123759851Y-72798262D01*
X123828520Y-72792254D01*
X123928087Y-72783543D01*
X123933400Y-72782119D01*
X123933402Y-72782119D01*
X124143933Y-72725707D01*
X124143935Y-72725706D01*
X124149243Y-72724284D01*
X124209899Y-72696000D01*
X124351762Y-72629849D01*
X124351767Y-72629846D01*
X124356749Y-72627523D01*
X124466059Y-72550983D01*
X124539789Y-72499357D01*
X124539792Y-72499355D01*
X124544300Y-72496198D01*
X124706198Y-72334300D01*
X124717608Y-72318006D01*
X124764098Y-72251611D01*
X124837523Y-72146749D01*
X124839847Y-72141764D01*
X124839851Y-72141758D01*
X124929525Y-71949449D01*
X124976442Y-71896163D01*
X125044719Y-71876702D01*
X125112679Y-71897244D01*
X125148240Y-71932330D01*
X125159853Y-71949580D01*
X125166519Y-71957870D01*
X125318228Y-72116900D01*
X125326186Y-72123941D01*
X125502525Y-72255141D01*
X125511562Y-72260745D01*
X125707484Y-72360357D01*
X125717335Y-72364357D01*
X125927240Y-72429534D01*
X125937624Y-72431817D01*
X125953043Y-72433861D01*
X125967207Y-72431665D01*
X125971000Y-72418478D01*
X125971000Y-72416192D01*
X126479000Y-72416192D01*
X126483475Y-72431431D01*
X126498219Y-72444207D01*
X126523512Y-72455758D01*
X126561896Y-72515484D01*
X126567000Y-72550983D01*
X126567000Y-72677885D01*
X126571475Y-72693124D01*
X126572865Y-72694329D01*
X126580548Y-72696000D01*
X127702885Y-72696000D01*
X127718124Y-72691525D01*
X127719329Y-72690135D01*
X127721000Y-72682452D01*
X127721000Y-71210116D01*
X127716525Y-71194877D01*
X127715135Y-71193672D01*
X127694217Y-71189122D01*
X127694516Y-71187748D01*
X127640879Y-71171999D01*
X127594386Y-71118343D01*
X127583000Y-71066001D01*
X127583000Y-71022115D01*
X127578525Y-71006876D01*
X127577135Y-71005671D01*
X127569452Y-71004000D01*
X126497115Y-71004000D01*
X126481876Y-71008475D01*
X126480671Y-71009865D01*
X126479000Y-71017548D01*
X126479000Y-72416192D01*
X125971000Y-72416192D01*
X125971000Y-69083807D01*
X125962072Y-69053400D01*
X125962072Y-68982404D01*
X125993873Y-68928808D01*
X127393543Y-67529138D01*
X127455855Y-67495112D01*
X127522304Y-67498639D01*
X127595139Y-67522797D01*
X127601975Y-67523497D01*
X127601978Y-67523498D01*
X127645031Y-67527909D01*
X127699600Y-67533500D01*
X129050400Y-67533500D01*
X129053646Y-67533163D01*
X129053650Y-67533163D01*
X129149308Y-67523238D01*
X129149312Y-67523237D01*
X129156166Y-67522526D01*
X129162702Y-67520345D01*
X129162704Y-67520345D01*
X129301121Y-67474165D01*
X129323946Y-67466550D01*
X129474348Y-67373478D01*
X129599305Y-67248303D01*
X129681566Y-67114852D01*
X129688275Y-67103968D01*
X129688276Y-67103966D01*
X129692115Y-67097738D01*
X129705571Y-67057169D01*
X130942001Y-67057169D01*
X130942371Y-67063990D01*
X130947895Y-67114852D01*
X130951521Y-67130104D01*
X130996676Y-67250554D01*
X131005214Y-67266149D01*
X131081715Y-67368224D01*
X131094276Y-67380785D01*
X131196351Y-67457286D01*
X131211946Y-67465824D01*
X131332394Y-67510978D01*
X131347649Y-67514605D01*
X131398514Y-67520131D01*
X131405328Y-67520500D01*
X132927885Y-67520500D01*
X132943124Y-67516025D01*
X132944329Y-67514635D01*
X132946000Y-67506952D01*
X132946000Y-67502384D01*
X133454000Y-67502384D01*
X133458475Y-67517623D01*
X133459865Y-67518828D01*
X133467548Y-67520499D01*
X134994669Y-67520499D01*
X135001490Y-67520129D01*
X135052352Y-67514605D01*
X135067604Y-67510979D01*
X135188054Y-67465824D01*
X135203649Y-67457286D01*
X135305724Y-67380785D01*
X135318285Y-67368224D01*
X135394786Y-67266149D01*
X135403324Y-67250554D01*
X135448478Y-67130106D01*
X135452105Y-67114851D01*
X135457631Y-67063986D01*
X135458000Y-67057172D01*
X135458000Y-66484615D01*
X135453525Y-66469376D01*
X135452135Y-66468171D01*
X135444452Y-66466500D01*
X133472115Y-66466500D01*
X133456876Y-66470975D01*
X133455671Y-66472365D01*
X133454000Y-66480048D01*
X133454000Y-67502384D01*
X132946000Y-67502384D01*
X132946000Y-66484615D01*
X132941525Y-66469376D01*
X132940135Y-66468171D01*
X132932452Y-66466500D01*
X130960116Y-66466500D01*
X130944877Y-66470975D01*
X130943672Y-66472365D01*
X130942001Y-66480048D01*
X130942001Y-67057169D01*
X129705571Y-67057169D01*
X129747797Y-66929861D01*
X129758500Y-66825400D01*
X129758500Y-65924600D01*
X129755234Y-65893124D01*
X129748238Y-65825692D01*
X129748237Y-65825688D01*
X129747526Y-65818834D01*
X129743692Y-65807340D01*
X129693868Y-65658002D01*
X129691550Y-65651054D01*
X129598478Y-65500652D01*
X129473303Y-65375695D01*
X129460541Y-65367828D01*
X129447399Y-65359728D01*
X129417439Y-65341260D01*
X129369946Y-65288488D01*
X129358522Y-65218416D01*
X129386796Y-65153292D01*
X129445790Y-65113793D01*
X129483555Y-65108000D01*
X130839787Y-65108000D01*
X130907908Y-65128002D01*
X130954401Y-65181658D01*
X130964505Y-65251932D01*
X130957769Y-65278230D01*
X130951522Y-65294895D01*
X130947895Y-65310149D01*
X130942369Y-65361014D01*
X130942000Y-65367828D01*
X130942000Y-65940385D01*
X130946475Y-65955624D01*
X130947865Y-65956829D01*
X130955548Y-65958500D01*
X135439884Y-65958500D01*
X135455123Y-65954025D01*
X135456328Y-65952635D01*
X135457999Y-65944952D01*
X135457999Y-65367831D01*
X135457629Y-65361010D01*
X135452105Y-65310148D01*
X135448479Y-65294897D01*
X135442231Y-65278230D01*
X135437048Y-65207423D01*
X135470968Y-65145054D01*
X135533223Y-65110925D01*
X135560213Y-65108000D01*
X136941000Y-65108000D01*
X137009121Y-65128002D01*
X137055614Y-65181658D01*
X137067000Y-65234000D01*
X137067000Y-69099207D01*
X137046998Y-69167328D01*
X136993342Y-69213821D01*
X136923068Y-69223925D01*
X136883895Y-69211524D01*
X136742516Y-69139643D01*
X136732665Y-69135643D01*
X136522760Y-69070466D01*
X136512376Y-69068183D01*
X136496957Y-69066139D01*
X136482793Y-69068335D01*
X136479000Y-69081522D01*
X136479000Y-72416192D01*
X136482973Y-72429723D01*
X136493580Y-72431248D01*
X136611421Y-72406523D01*
X136621617Y-72403463D01*
X136826029Y-72322737D01*
X136835561Y-72318006D01*
X136875634Y-72293689D01*
X136944248Y-72275450D01*
X137011830Y-72297201D01*
X137056925Y-72352037D01*
X137067000Y-72401408D01*
X137067000Y-75949852D01*
X137046998Y-76017973D01*
X136993342Y-76064466D01*
X136923068Y-76074570D01*
X136858488Y-76045076D01*
X136818787Y-75979512D01*
X136818182Y-75974319D01*
X136793265Y-75905673D01*
X136791848Y-75901545D01*
X136771607Y-75839064D01*
X136771606Y-75839062D01*
X136769351Y-75832101D01*
X136765555Y-75825846D01*
X136763049Y-75820372D01*
X136760330Y-75814942D01*
X136757833Y-75808063D01*
X136742616Y-75784853D01*
X136717814Y-75747024D01*
X136715467Y-75743305D01*
X136677595Y-75680893D01*
X136670197Y-75672516D01*
X136670224Y-75672492D01*
X136667571Y-75669500D01*
X136664868Y-75666267D01*
X136660856Y-75660148D01*
X136604617Y-75606872D01*
X136602175Y-75604494D01*
X134033776Y-73036095D01*
X133999750Y-72973783D01*
X134004815Y-72902968D01*
X134047362Y-72846132D01*
X134113882Y-72821321D01*
X134122871Y-72821000D01*
X134207127Y-72821000D01*
X134209844Y-72820762D01*
X134209851Y-72820762D01*
X134278520Y-72814754D01*
X134378087Y-72806043D01*
X134383400Y-72804619D01*
X134383402Y-72804619D01*
X134593933Y-72748207D01*
X134593935Y-72748206D01*
X134599243Y-72746784D01*
X134605166Y-72744022D01*
X134801762Y-72652349D01*
X134801767Y-72652346D01*
X134806749Y-72650023D01*
X134911611Y-72576598D01*
X134989789Y-72521857D01*
X134989792Y-72521855D01*
X134994300Y-72518698D01*
X135156198Y-72356800D01*
X135175112Y-72329789D01*
X135247242Y-72226776D01*
X135302699Y-72182448D01*
X135373319Y-72175139D01*
X135425668Y-72197958D01*
X135502525Y-72255141D01*
X135511562Y-72260745D01*
X135707484Y-72360357D01*
X135717335Y-72364357D01*
X135927240Y-72429534D01*
X135937624Y-72431817D01*
X135953043Y-72433861D01*
X135967207Y-72431665D01*
X135971000Y-72418478D01*
X135971000Y-69083808D01*
X135967027Y-69070277D01*
X135956420Y-69068752D01*
X135838579Y-69093477D01*
X135828383Y-69096537D01*
X135623971Y-69177263D01*
X135614439Y-69181994D01*
X135426538Y-69296016D01*
X135417948Y-69302280D01*
X135251948Y-69446327D01*
X135244528Y-69453958D01*
X135105174Y-69623911D01*
X135099150Y-69632678D01*
X134990424Y-69823682D01*
X134985959Y-69833346D01*
X134910969Y-70039941D01*
X134908198Y-70050208D01*
X134875236Y-70232491D01*
X134843432Y-70295965D01*
X134782359Y-70332168D01*
X134711409Y-70329606D01*
X134697998Y-70324265D01*
X134604230Y-70280541D01*
X134604225Y-70280539D01*
X134599243Y-70278216D01*
X134593935Y-70276794D01*
X134593933Y-70276793D01*
X134383402Y-70220381D01*
X134383400Y-70220381D01*
X134378087Y-70218957D01*
X134278520Y-70210246D01*
X134209851Y-70204238D01*
X134209844Y-70204238D01*
X134207127Y-70204000D01*
X132192873Y-70204000D01*
X132190156Y-70204238D01*
X132190149Y-70204238D01*
X132121480Y-70210246D01*
X132021913Y-70218957D01*
X132016600Y-70220381D01*
X132016598Y-70220381D01*
X131806067Y-70276793D01*
X131806065Y-70276794D01*
X131800757Y-70278216D01*
X131795776Y-70280539D01*
X131795775Y-70280539D01*
X131598238Y-70372651D01*
X131598233Y-70372654D01*
X131593251Y-70374977D01*
X131534874Y-70415853D01*
X131410211Y-70503143D01*
X131410208Y-70503145D01*
X131405700Y-70506302D01*
X131243802Y-70668200D01*
X131240645Y-70672708D01*
X131240643Y-70672711D01*
X131220356Y-70701684D01*
X131112477Y-70855751D01*
X131110153Y-70860736D01*
X131110149Y-70860742D01*
X131046409Y-70997435D01*
X130999492Y-71050721D01*
X130931215Y-71070182D01*
X130863255Y-71049641D01*
X130817189Y-70995618D01*
X130813776Y-70987178D01*
X130793277Y-70930706D01*
X130791848Y-70926545D01*
X130771607Y-70864064D01*
X130771606Y-70864062D01*
X130769351Y-70857101D01*
X130765555Y-70850846D01*
X130763049Y-70845372D01*
X130760330Y-70839942D01*
X130757833Y-70833063D01*
X130731731Y-70793251D01*
X130717814Y-70772024D01*
X130715467Y-70768305D01*
X130714185Y-70766192D01*
X130677595Y-70705893D01*
X130670197Y-70697516D01*
X130670224Y-70697492D01*
X130667571Y-70694500D01*
X130664868Y-70691267D01*
X130660856Y-70685148D01*
X130604617Y-70631872D01*
X130602175Y-70629494D01*
X129795405Y-69822724D01*
X129761379Y-69760412D01*
X129758500Y-69733629D01*
X129758500Y-69024600D01*
X129747526Y-68918834D01*
X129691550Y-68751054D01*
X129598478Y-68600652D01*
X129473303Y-68475695D01*
X129467072Y-68471854D01*
X129328968Y-68386725D01*
X129328966Y-68386724D01*
X129322738Y-68382885D01*
X129162254Y-68329655D01*
X129161389Y-68329368D01*
X129161387Y-68329368D01*
X129154861Y-68327203D01*
X129148025Y-68326503D01*
X129148022Y-68326502D01*
X129104969Y-68322091D01*
X129050400Y-68316500D01*
X127699600Y-68316500D01*
X127696354Y-68316837D01*
X127696350Y-68316837D01*
X127600692Y-68326762D01*
X127600688Y-68326763D01*
X127593834Y-68327474D01*
X127587298Y-68329655D01*
X127587296Y-68329655D01*
X127455194Y-68373728D01*
X127426054Y-68383450D01*
X127275652Y-68476522D01*
X127150695Y-68601697D01*
X127057885Y-68752262D01*
X127002203Y-68920139D01*
X126991500Y-69024600D01*
X126991500Y-69060821D01*
X126971498Y-69128942D01*
X126917842Y-69175435D01*
X126847568Y-69185539D01*
X126808395Y-69173138D01*
X126742515Y-69139643D01*
X126732665Y-69135643D01*
X126522760Y-69070466D01*
X126512376Y-69068183D01*
X126496957Y-69066139D01*
X126482793Y-69068335D01*
X126479000Y-69081522D01*
X126479000Y-70477885D01*
X126483475Y-70493124D01*
X126484865Y-70494329D01*
X126492548Y-70496000D01*
X127276179Y-70496000D01*
X127342294Y-70514740D01*
X127389384Y-70543766D01*
X127399883Y-70550238D01*
X127427262Y-70567115D01*
X127437266Y-70570433D01*
X127588611Y-70620632D01*
X127588613Y-70620632D01*
X127595139Y-70622797D01*
X127601975Y-70623497D01*
X127601978Y-70623498D01*
X127645031Y-70627909D01*
X127699600Y-70633500D01*
X128408629Y-70633500D01*
X128476750Y-70653502D01*
X128497724Y-70670405D01*
X128804224Y-70976905D01*
X128838250Y-71039217D01*
X128833185Y-71110032D01*
X128790638Y-71166868D01*
X128724118Y-71191679D01*
X128715129Y-71192000D01*
X128247115Y-71192001D01*
X128231876Y-71196476D01*
X128230671Y-71197866D01*
X128229000Y-71205549D01*
X128229000Y-74689884D01*
X128233475Y-74705123D01*
X128234865Y-74706328D01*
X128242548Y-74707999D01*
X128919669Y-74707999D01*
X128926490Y-74707629D01*
X128977352Y-74702105D01*
X128992604Y-74698479D01*
X129113061Y-74653321D01*
X129129992Y-74644052D01*
X129199349Y-74628883D01*
X129265897Y-74653620D01*
X129308507Y-74710408D01*
X129316500Y-74754572D01*
X129316500Y-75144852D01*
X129296498Y-75212973D01*
X129242842Y-75259466D01*
X129172568Y-75269570D01*
X129129992Y-75255372D01*
X129128884Y-75254766D01*
X129121705Y-75249385D01*
X128985316Y-75198255D01*
X128923134Y-75191500D01*
X127026866Y-75191500D01*
X126964684Y-75198255D01*
X126828295Y-75249385D01*
X126711739Y-75336739D01*
X126624385Y-75453295D01*
X126573255Y-75589684D01*
X126566500Y-75651866D01*
X126566500Y-75689629D01*
X126546498Y-75757750D01*
X126492842Y-75804243D01*
X126422568Y-75814347D01*
X126357988Y-75784853D01*
X126351405Y-75778724D01*
X125133770Y-74561089D01*
X125121384Y-74546677D01*
X125112851Y-74535082D01*
X125112846Y-74535077D01*
X125108508Y-74529182D01*
X125102930Y-74524443D01*
X125102927Y-74524440D01*
X125068232Y-74494965D01*
X125060716Y-74488035D01*
X125055021Y-74482340D01*
X125038736Y-74469456D01*
X125032749Y-74464719D01*
X125029345Y-74461928D01*
X124979297Y-74419409D01*
X124979295Y-74419408D01*
X124973715Y-74414667D01*
X124967199Y-74411339D01*
X124962150Y-74407972D01*
X124957021Y-74404805D01*
X124951284Y-74400266D01*
X124885125Y-74369345D01*
X124881225Y-74367439D01*
X124816192Y-74334231D01*
X124809084Y-74332492D01*
X124803441Y-74330393D01*
X124797678Y-74328476D01*
X124791050Y-74325378D01*
X124719583Y-74310513D01*
X124715299Y-74309543D01*
X124644390Y-74292192D01*
X124638788Y-74291844D01*
X124638785Y-74291844D01*
X124633236Y-74291500D01*
X124633238Y-74291464D01*
X124629245Y-74291225D01*
X124625053Y-74290851D01*
X124617885Y-74289360D01*
X124554120Y-74291085D01*
X124540479Y-74291454D01*
X124537072Y-74291500D01*
X121067070Y-74291500D01*
X121048120Y-74290067D01*
X121033885Y-74287901D01*
X121033881Y-74287901D01*
X121026651Y-74286801D01*
X121019359Y-74287394D01*
X121019356Y-74287394D01*
X120973982Y-74291085D01*
X120963767Y-74291500D01*
X120955707Y-74291500D01*
X120952073Y-74291924D01*
X120952067Y-74291924D01*
X120939042Y-74293443D01*
X120927480Y-74294791D01*
X120923132Y-74295221D01*
X120850364Y-74301140D01*
X120843403Y-74303395D01*
X120837463Y-74304582D01*
X120831588Y-74305971D01*
X120824319Y-74306818D01*
X120755670Y-74331736D01*
X120751542Y-74333153D01*
X120689064Y-74353393D01*
X120689062Y-74353394D01*
X120682101Y-74355649D01*
X120675846Y-74359445D01*
X120670372Y-74361951D01*
X120664942Y-74364670D01*
X120658063Y-74367167D01*
X120651943Y-74371180D01*
X120651942Y-74371180D01*
X120597024Y-74407186D01*
X120593320Y-74409523D01*
X120530893Y-74447405D01*
X120522516Y-74454803D01*
X120522492Y-74454776D01*
X120519500Y-74457429D01*
X120516267Y-74460132D01*
X120510148Y-74464144D01*
X120480951Y-74494965D01*
X120456872Y-74520383D01*
X120454494Y-74522825D01*
X118625323Y-76351996D01*
X118563011Y-76386022D01*
X118496561Y-76382494D01*
X118336389Y-76329368D01*
X118336387Y-76329368D01*
X118329861Y-76327203D01*
X118323025Y-76326503D01*
X118323022Y-76326502D01*
X118279969Y-76322091D01*
X118225400Y-76316500D01*
X116874600Y-76316500D01*
X116871354Y-76316837D01*
X116871350Y-76316837D01*
X116775692Y-76326762D01*
X116775688Y-76326763D01*
X116768834Y-76327474D01*
X116762298Y-76329655D01*
X116762296Y-76329655D01*
X116630194Y-76373728D01*
X116601054Y-76383450D01*
X116594823Y-76387306D01*
X116588203Y-76390407D01*
X116586828Y-76387471D01*
X116532233Y-76402441D01*
X116464484Y-76381216D01*
X116418963Y-76326733D01*
X116408500Y-76276461D01*
X116408500Y-75572772D01*
X116428502Y-75504651D01*
X116482158Y-75458158D01*
X116552432Y-75448054D01*
X116588890Y-75461265D01*
X116589609Y-75459723D01*
X116609424Y-75468963D01*
X116763710Y-75520138D01*
X116777086Y-75523005D01*
X116871438Y-75532672D01*
X116877854Y-75533000D01*
X117277885Y-75533000D01*
X117293124Y-75528525D01*
X117294329Y-75527135D01*
X117296000Y-75519452D01*
X117296000Y-75514884D01*
X117804000Y-75514884D01*
X117808475Y-75530123D01*
X117809865Y-75531328D01*
X117817548Y-75532999D01*
X118222095Y-75532999D01*
X118228614Y-75532662D01*
X118324206Y-75522743D01*
X118337600Y-75519851D01*
X118491784Y-75468412D01*
X118504962Y-75462239D01*
X118642807Y-75376937D01*
X118654208Y-75367901D01*
X118768739Y-75253171D01*
X118777751Y-75241760D01*
X118862816Y-75103757D01*
X118868963Y-75090576D01*
X118920138Y-74936290D01*
X118923005Y-74922914D01*
X118932672Y-74828562D01*
X118933000Y-74822146D01*
X118933000Y-74647115D01*
X118928525Y-74631876D01*
X118927135Y-74630671D01*
X118919452Y-74629000D01*
X117822115Y-74629000D01*
X117806876Y-74633475D01*
X117805671Y-74634865D01*
X117804000Y-74642548D01*
X117804000Y-75514884D01*
X117296000Y-75514884D01*
X117296000Y-74102885D01*
X117804000Y-74102885D01*
X117808475Y-74118124D01*
X117809865Y-74119329D01*
X117817548Y-74121000D01*
X118914884Y-74121000D01*
X118930123Y-74116525D01*
X118931328Y-74115135D01*
X118932999Y-74107452D01*
X118932999Y-73927905D01*
X118932662Y-73921386D01*
X118922743Y-73825794D01*
X118919851Y-73812400D01*
X118868412Y-73658216D01*
X118862239Y-73645038D01*
X118776937Y-73507193D01*
X118767901Y-73495792D01*
X118653171Y-73381261D01*
X118641760Y-73372249D01*
X118503757Y-73287184D01*
X118490576Y-73281037D01*
X118336290Y-73229862D01*
X118322914Y-73226995D01*
X118230709Y-73217548D01*
X126567000Y-73217548D01*
X126567001Y-74244669D01*
X126567371Y-74251490D01*
X126572895Y-74302352D01*
X126576521Y-74317604D01*
X126621676Y-74438054D01*
X126630214Y-74453649D01*
X126706715Y-74555724D01*
X126719276Y-74568285D01*
X126821351Y-74644786D01*
X126836946Y-74653324D01*
X126957394Y-74698478D01*
X126972649Y-74702105D01*
X127023514Y-74707631D01*
X127030328Y-74708000D01*
X127702885Y-74708000D01*
X127718124Y-74703525D01*
X127719329Y-74702135D01*
X127721000Y-74694452D01*
X127721000Y-73222115D01*
X127716525Y-73206876D01*
X127715135Y-73205671D01*
X127707452Y-73204000D01*
X126585115Y-73204000D01*
X126569876Y-73208475D01*
X126568671Y-73209865D01*
X126567000Y-73217548D01*
X118230709Y-73217548D01*
X118228562Y-73217328D01*
X118222145Y-73217000D01*
X117822115Y-73217000D01*
X117806876Y-73221475D01*
X117805671Y-73222865D01*
X117804000Y-73230548D01*
X117804000Y-74102885D01*
X117296000Y-74102885D01*
X117296000Y-73235116D01*
X117291525Y-73219877D01*
X117290135Y-73218672D01*
X117282452Y-73217001D01*
X116877905Y-73217001D01*
X116871386Y-73217338D01*
X116775794Y-73227257D01*
X116762400Y-73230149D01*
X116608216Y-73281588D01*
X116588417Y-73290863D01*
X116587061Y-73287968D01*
X116532400Y-73303032D01*
X116464622Y-73281898D01*
X116419030Y-73227475D01*
X116408500Y-73177050D01*
X116408500Y-72491371D01*
X116428502Y-72423250D01*
X116445405Y-72402276D01*
X117607302Y-71240379D01*
X117669614Y-71206353D01*
X117740429Y-71211418D01*
X117797265Y-71253965D01*
X117812806Y-71281256D01*
X117875313Y-71432163D01*
X117879795Y-71440958D01*
X117998643Y-71634899D01*
X118004443Y-71642883D01*
X118152178Y-71815858D01*
X118159142Y-71822822D01*
X118332117Y-71970557D01*
X118340101Y-71976357D01*
X118534042Y-72095205D01*
X118542837Y-72099687D01*
X118752992Y-72186736D01*
X118762366Y-72189782D01*
X118953385Y-72235642D01*
X118967469Y-72234937D01*
X118971000Y-72226056D01*
X118971000Y-69278244D01*
X118967027Y-69264713D01*
X118957569Y-69263353D01*
X118813914Y-69297842D01*
X118743006Y-69294295D01*
X118685272Y-69252975D01*
X118659042Y-69187002D01*
X118658500Y-69175323D01*
X118658500Y-69024600D01*
X118647526Y-68918834D01*
X118591550Y-68751054D01*
X118498478Y-68600652D01*
X118373303Y-68475695D01*
X118367072Y-68471854D01*
X118228968Y-68386725D01*
X118228966Y-68386724D01*
X118222738Y-68382885D01*
X118062254Y-68329655D01*
X118061389Y-68329368D01*
X118061387Y-68329368D01*
X118054861Y-68327203D01*
X118048025Y-68326503D01*
X118048022Y-68326502D01*
X118004969Y-68322091D01*
X117950400Y-68316500D01*
X116599600Y-68316500D01*
X116596354Y-68316837D01*
X116596350Y-68316837D01*
X116500692Y-68326762D01*
X116500688Y-68326763D01*
X116493834Y-68327474D01*
X116487298Y-68329655D01*
X116487296Y-68329655D01*
X116355194Y-68373728D01*
X116326054Y-68383450D01*
X116175652Y-68476522D01*
X116050695Y-68601697D01*
X115957885Y-68752262D01*
X115902203Y-68920139D01*
X115891500Y-69024600D01*
X115891500Y-69925400D01*
X115902474Y-70031166D01*
X115904655Y-70037702D01*
X115904655Y-70037704D01*
X115944750Y-70157881D01*
X115958450Y-70198946D01*
X116051522Y-70349348D01*
X116113128Y-70410847D01*
X116147207Y-70473128D01*
X116142204Y-70543948D01*
X116113205Y-70589114D01*
X115161089Y-71541230D01*
X115146677Y-71553616D01*
X115135082Y-71562149D01*
X115135077Y-71562154D01*
X115129182Y-71566492D01*
X115124443Y-71572070D01*
X115124440Y-71572073D01*
X115094965Y-71606768D01*
X115088035Y-71614284D01*
X115082340Y-71619979D01*
X115080060Y-71622861D01*
X115064719Y-71642251D01*
X115061928Y-71645655D01*
X115025771Y-71688215D01*
X115014667Y-71701285D01*
X115011339Y-71707801D01*
X115007972Y-71712850D01*
X115004804Y-71717980D01*
X115000266Y-71723716D01*
X114976685Y-71774171D01*
X114929724Y-71827414D01*
X114861430Y-71846816D01*
X114793488Y-71826216D01*
X114747468Y-71772153D01*
X114737983Y-71701793D01*
X114740830Y-71688215D01*
X114742118Y-71683408D01*
X114742119Y-71683400D01*
X114743543Y-71678087D01*
X114763498Y-71450000D01*
X114743543Y-71221913D01*
X114734757Y-71189122D01*
X114685707Y-71006067D01*
X114685706Y-71006065D01*
X114684284Y-71000757D01*
X114642798Y-70911789D01*
X114589849Y-70798238D01*
X114589846Y-70798233D01*
X114587523Y-70793251D01*
X114497232Y-70664303D01*
X114459357Y-70610211D01*
X114459355Y-70610208D01*
X114456198Y-70605700D01*
X114294300Y-70443802D01*
X114289792Y-70440645D01*
X114289789Y-70440643D01*
X114159406Y-70349348D01*
X114106749Y-70312477D01*
X114101767Y-70310154D01*
X114101762Y-70310151D01*
X113904225Y-70218039D01*
X113904224Y-70218039D01*
X113899243Y-70215716D01*
X113893935Y-70214294D01*
X113893933Y-70214293D01*
X113683402Y-70157881D01*
X113683400Y-70157881D01*
X113678087Y-70156457D01*
X113578520Y-70147746D01*
X113509851Y-70141738D01*
X113509844Y-70141738D01*
X113507127Y-70141500D01*
X111492873Y-70141500D01*
X111490156Y-70141738D01*
X111490149Y-70141738D01*
X111421480Y-70147746D01*
X111321913Y-70156457D01*
X111316600Y-70157881D01*
X111316598Y-70157881D01*
X111106067Y-70214293D01*
X111106065Y-70214294D01*
X111100757Y-70215716D01*
X111095776Y-70218039D01*
X111095775Y-70218039D01*
X110898238Y-70310151D01*
X110898233Y-70310154D01*
X110893251Y-70312477D01*
X110859437Y-70336154D01*
X110853257Y-70340481D01*
X110785983Y-70363168D01*
X110717123Y-70345883D01*
X110668539Y-70294113D01*
X110663754Y-70282509D01*
X110663628Y-70282561D01*
X110574687Y-70067837D01*
X110570205Y-70059042D01*
X110451357Y-69865101D01*
X110445557Y-69857117D01*
X110297822Y-69684142D01*
X110290858Y-69677178D01*
X110117883Y-69529443D01*
X110109899Y-69523643D01*
X109915958Y-69404795D01*
X109907163Y-69400313D01*
X109697008Y-69313264D01*
X109687634Y-69310218D01*
X109496615Y-69264358D01*
X109482531Y-69265063D01*
X109479000Y-69273944D01*
X109479000Y-72221756D01*
X109482973Y-72235287D01*
X109492431Y-72236647D01*
X109687634Y-72189782D01*
X109697008Y-72186736D01*
X109907163Y-72099687D01*
X109915958Y-72095205D01*
X110109899Y-71976357D01*
X110117890Y-71970552D01*
X110157152Y-71937019D01*
X110221941Y-71907988D01*
X110292141Y-71918593D01*
X110345464Y-71965468D01*
X110353177Y-71979580D01*
X110410151Y-72101762D01*
X110410154Y-72101767D01*
X110412477Y-72106749D01*
X110476342Y-72197958D01*
X110502481Y-72235287D01*
X110543802Y-72294300D01*
X110705700Y-72456198D01*
X110710208Y-72459355D01*
X110710211Y-72459357D01*
X110755932Y-72491371D01*
X110893251Y-72587523D01*
X110898233Y-72589846D01*
X110898238Y-72589849D01*
X111087034Y-72677885D01*
X111100757Y-72684284D01*
X111106065Y-72685706D01*
X111106067Y-72685707D01*
X111316598Y-72742119D01*
X111316600Y-72742119D01*
X111321913Y-72743543D01*
X111421480Y-72752254D01*
X111490149Y-72758262D01*
X111490156Y-72758262D01*
X111492873Y-72758500D01*
X113507127Y-72758500D01*
X113509844Y-72758262D01*
X113509851Y-72758262D01*
X113578520Y-72752254D01*
X113678087Y-72743543D01*
X113683400Y-72742119D01*
X113683402Y-72742119D01*
X113893933Y-72685707D01*
X113893935Y-72685706D01*
X113899243Y-72684284D01*
X113912966Y-72677885D01*
X114101762Y-72589849D01*
X114101767Y-72589846D01*
X114106749Y-72587523D01*
X114244068Y-72491371D01*
X114289789Y-72459357D01*
X114289792Y-72459355D01*
X114294300Y-72456198D01*
X114456198Y-72294300D01*
X114497520Y-72235287D01*
X114523658Y-72197958D01*
X114587523Y-72106749D01*
X114589846Y-72101767D01*
X114589849Y-72101762D01*
X114652599Y-71967192D01*
X114699516Y-71913907D01*
X114767793Y-71894446D01*
X114835753Y-71914988D01*
X114881819Y-71969010D01*
X114890152Y-72030483D01*
X114892192Y-72030610D01*
X114891500Y-72041764D01*
X114891464Y-72041762D01*
X114891225Y-72045755D01*
X114890851Y-72049947D01*
X114889360Y-72057115D01*
X114889558Y-72064432D01*
X114891454Y-72134521D01*
X114891500Y-72137928D01*
X114891500Y-76676783D01*
X114871498Y-76744904D01*
X114817842Y-76791397D01*
X114747568Y-76801501D01*
X114682988Y-76772007D01*
X114651305Y-76730033D01*
X114589849Y-76598238D01*
X114589846Y-76598233D01*
X114587523Y-76593251D01*
X114497147Y-76464181D01*
X114459357Y-76410211D01*
X114459355Y-76410208D01*
X114456198Y-76405700D01*
X114294300Y-76243802D01*
X114289792Y-76240645D01*
X114289789Y-76240643D01*
X114192686Y-76172651D01*
X114106749Y-76112477D01*
X114101767Y-76110154D01*
X114101762Y-76110151D01*
X113904225Y-76018039D01*
X113904224Y-76018039D01*
X113899243Y-76015716D01*
X113893935Y-76014294D01*
X113893933Y-76014293D01*
X113683402Y-75957881D01*
X113683400Y-75957881D01*
X113678087Y-75956457D01*
X113578520Y-75947746D01*
X113509851Y-75941738D01*
X113509844Y-75941738D01*
X113507127Y-75941500D01*
X111492873Y-75941500D01*
X111490156Y-75941738D01*
X111490149Y-75941738D01*
X111421480Y-75947746D01*
X111321913Y-75956457D01*
X111316600Y-75957881D01*
X111316598Y-75957881D01*
X111106067Y-76014293D01*
X111106065Y-76014294D01*
X111100757Y-76015716D01*
X111095776Y-76018039D01*
X111095775Y-76018039D01*
X110898238Y-76110151D01*
X110898233Y-76110154D01*
X110893251Y-76112477D01*
X110807314Y-76172651D01*
X110710211Y-76240643D01*
X110710208Y-76240645D01*
X110705700Y-76243802D01*
X110543802Y-76405700D01*
X110540645Y-76410208D01*
X110540643Y-76410211D01*
X110502853Y-76464181D01*
X110412477Y-76593251D01*
X110410154Y-76598233D01*
X110410151Y-76598238D01*
X110319704Y-76792205D01*
X110315716Y-76800757D01*
X110314294Y-76806065D01*
X110314293Y-76806067D01*
X110257881Y-77016598D01*
X110256457Y-77021913D01*
X110236502Y-77250000D01*
X110256457Y-77478087D01*
X110315716Y-77699243D01*
X110318039Y-77704224D01*
X110318039Y-77704225D01*
X110410151Y-77901762D01*
X110410154Y-77901767D01*
X110412477Y-77906749D01*
X110479295Y-78002175D01*
X110534143Y-78080505D01*
X110543802Y-78094300D01*
X110705700Y-78256198D01*
X110710208Y-78259355D01*
X110710211Y-78259357D01*
X110762826Y-78296198D01*
X110893251Y-78387523D01*
X110898233Y-78389846D01*
X110898238Y-78389849D01*
X111053901Y-78462435D01*
X111100757Y-78484284D01*
X111106065Y-78485706D01*
X111106067Y-78485707D01*
X111316598Y-78542119D01*
X111316600Y-78542119D01*
X111321913Y-78543543D01*
X111421480Y-78552254D01*
X111490149Y-78558262D01*
X111490156Y-78558262D01*
X111492873Y-78558500D01*
X113507127Y-78558500D01*
X113509844Y-78558262D01*
X113509851Y-78558262D01*
X113578520Y-78552254D01*
X113678087Y-78543543D01*
X113683400Y-78542119D01*
X113683402Y-78542119D01*
X113893933Y-78485707D01*
X113893935Y-78485706D01*
X113899243Y-78484284D01*
X113946099Y-78462435D01*
X114101762Y-78389849D01*
X114101767Y-78389846D01*
X114106749Y-78387523D01*
X114237174Y-78296198D01*
X114289789Y-78259357D01*
X114289792Y-78259355D01*
X114294300Y-78256198D01*
X114456198Y-78094300D01*
X114465858Y-78080505D01*
X114520705Y-78002175D01*
X114587523Y-77906749D01*
X114589846Y-77901767D01*
X114589849Y-77901762D01*
X114651305Y-77769967D01*
X114698222Y-77716682D01*
X114766499Y-77697221D01*
X114834459Y-77717763D01*
X114880525Y-77771785D01*
X114891500Y-77823217D01*
X114891500Y-78832930D01*
X114890067Y-78851880D01*
X114886801Y-78873349D01*
X114887394Y-78880641D01*
X114887394Y-78880644D01*
X114891085Y-78926018D01*
X114891500Y-78936233D01*
X114891500Y-79546629D01*
X114871498Y-79614750D01*
X114854595Y-79635724D01*
X114563407Y-79926912D01*
X114501095Y-79960938D01*
X114452216Y-79961864D01*
X114351095Y-79943851D01*
X114351089Y-79943850D01*
X114346006Y-79942945D01*
X114273096Y-79942054D01*
X114119581Y-79940179D01*
X114119579Y-79940179D01*
X114114411Y-79940116D01*
X113885464Y-79975150D01*
X113665314Y-80047106D01*
X113660726Y-80049494D01*
X113660722Y-80049496D01*
X113533319Y-80115818D01*
X113459872Y-80154052D01*
X113455739Y-80157155D01*
X113455736Y-80157157D01*
X113291869Y-80280192D01*
X113274655Y-80293117D01*
X113271083Y-80296855D01*
X113127247Y-80447371D01*
X113114639Y-80460564D01*
X113111725Y-80464836D01*
X113111724Y-80464837D01*
X113065664Y-80532358D01*
X112984119Y-80651899D01*
X112886602Y-80861981D01*
X112824707Y-81085169D01*
X112800095Y-81315469D01*
X112800392Y-81320622D01*
X112800392Y-81320625D01*
X112813129Y-81541529D01*
X112813427Y-81546697D01*
X112814564Y-81551743D01*
X112814565Y-81551749D01*
X112844516Y-81684649D01*
X112864346Y-81772642D01*
X112866288Y-81777424D01*
X112866289Y-81777428D01*
X112945846Y-81973352D01*
X112951484Y-81987237D01*
X113072501Y-82184719D01*
X113084480Y-82198548D01*
X113158070Y-82283503D01*
X113187552Y-82348088D01*
X113177437Y-82418361D01*
X113130936Y-82472009D01*
X113062832Y-82492000D01*
X111059980Y-82492000D01*
X110991859Y-82471998D01*
X110970884Y-82455095D01*
X110237811Y-81722021D01*
X110223868Y-81714408D01*
X110222034Y-81714539D01*
X110215420Y-81718790D01*
X109479116Y-82455095D01*
X109416803Y-82489120D01*
X109390020Y-82492000D01*
X108484000Y-82492000D01*
X108415879Y-82471998D01*
X108369386Y-82418342D01*
X108358000Y-82366000D01*
X108358000Y-81320638D01*
X108812893Y-81320638D01*
X108825627Y-81541468D01*
X108827061Y-81551670D01*
X108875685Y-81767439D01*
X108878773Y-81777292D01*
X108961986Y-81982220D01*
X108966634Y-81991421D01*
X109055097Y-82135781D01*
X109065553Y-82145242D01*
X109074331Y-82141458D01*
X109852979Y-81362811D01*
X109859356Y-81351132D01*
X110589408Y-81351132D01*
X110589539Y-81352966D01*
X110593790Y-81359580D01*
X111371307Y-82137096D01*
X111383313Y-82143652D01*
X111395052Y-82134684D01*
X111433010Y-82081859D01*
X111438321Y-82073020D01*
X111536318Y-81874737D01*
X111540117Y-81865142D01*
X111604415Y-81653517D01*
X111606594Y-81643436D01*
X111635702Y-81422338D01*
X111636221Y-81415663D01*
X111637744Y-81353364D01*
X111637550Y-81346646D01*
X111619279Y-81124400D01*
X111617596Y-81114238D01*
X111563710Y-80899708D01*
X111560389Y-80889953D01*
X111472193Y-80687118D01*
X111467315Y-80678020D01*
X111394224Y-80565038D01*
X111383538Y-80555835D01*
X111373973Y-80560238D01*
X110597021Y-81337189D01*
X110589408Y-81351132D01*
X109859356Y-81351132D01*
X109860592Y-81348868D01*
X109860461Y-81347034D01*
X109856210Y-81340420D01*
X109078862Y-80563073D01*
X109067330Y-80556776D01*
X109055048Y-80566399D01*
X108999467Y-80647877D01*
X108994379Y-80656833D01*
X108901252Y-80857459D01*
X108897689Y-80867146D01*
X108838581Y-81080280D01*
X108836650Y-81090400D01*
X108813145Y-81310349D01*
X108812893Y-81320638D01*
X108358000Y-81320638D01*
X108358000Y-80190711D01*
X109430508Y-80190711D01*
X109437251Y-80203040D01*
X110212189Y-80977979D01*
X110226132Y-80985592D01*
X110227966Y-80985461D01*
X110234580Y-80981210D01*
X111013994Y-80201795D01*
X111021011Y-80188944D01*
X111013237Y-80178274D01*
X111010902Y-80176430D01*
X111002320Y-80170729D01*
X110808678Y-80063833D01*
X110799272Y-80059606D01*
X110590772Y-79985772D01*
X110580809Y-79983140D01*
X110363047Y-79944350D01*
X110352796Y-79943381D01*
X110131616Y-79940679D01*
X110121332Y-79941399D01*
X109902693Y-79974855D01*
X109892666Y-79977244D01*
X109682426Y-80045961D01*
X109672916Y-80049958D01*
X109476725Y-80152089D01*
X109468007Y-80157578D01*
X109438961Y-80179386D01*
X109430508Y-80190711D01*
X108358000Y-80190711D01*
X108358000Y-72211121D01*
X108378002Y-72143000D01*
X108431658Y-72096507D01*
X108501932Y-72086403D01*
X108538218Y-72097907D01*
X108538265Y-72097793D01*
X108539594Y-72098344D01*
X108541201Y-72098853D01*
X108542839Y-72099688D01*
X108752992Y-72186736D01*
X108762366Y-72189782D01*
X108953385Y-72235642D01*
X108967469Y-72234937D01*
X108971000Y-72226056D01*
X108971000Y-69278244D01*
X108967027Y-69264713D01*
X108957569Y-69263353D01*
X108762366Y-69310218D01*
X108752992Y-69313264D01*
X108542839Y-69400312D01*
X108541201Y-69401147D01*
X108540511Y-69401276D01*
X108538265Y-69402207D01*
X108538070Y-69401735D01*
X108471424Y-69414250D01*
X108405640Y-69387549D01*
X108364735Y-69329521D01*
X108358000Y-69288879D01*
X108358000Y-66994669D01*
X110242001Y-66994669D01*
X110242371Y-67001490D01*
X110247895Y-67052352D01*
X110251521Y-67067604D01*
X110296676Y-67188054D01*
X110305214Y-67203649D01*
X110381715Y-67305724D01*
X110394276Y-67318285D01*
X110496351Y-67394786D01*
X110511946Y-67403324D01*
X110632394Y-67448478D01*
X110647649Y-67452105D01*
X110698514Y-67457631D01*
X110705328Y-67458000D01*
X112227885Y-67458000D01*
X112243124Y-67453525D01*
X112244329Y-67452135D01*
X112246000Y-67444452D01*
X112246000Y-67439884D01*
X112754000Y-67439884D01*
X112758475Y-67455123D01*
X112759865Y-67456328D01*
X112767548Y-67457999D01*
X114294669Y-67457999D01*
X114301490Y-67457629D01*
X114352352Y-67452105D01*
X114367604Y-67448479D01*
X114488054Y-67403324D01*
X114503649Y-67394786D01*
X114605724Y-67318285D01*
X114618285Y-67305724D01*
X114694786Y-67203649D01*
X114703324Y-67188054D01*
X114748478Y-67067606D01*
X114752105Y-67052351D01*
X114757631Y-67001486D01*
X114758000Y-66994672D01*
X114758000Y-66422115D01*
X114753525Y-66406876D01*
X114752135Y-66405671D01*
X114744452Y-66404000D01*
X112772115Y-66404000D01*
X112756876Y-66408475D01*
X112755671Y-66409865D01*
X112754000Y-66417548D01*
X112754000Y-67439884D01*
X112246000Y-67439884D01*
X112246000Y-66422115D01*
X112241525Y-66406876D01*
X112240135Y-66405671D01*
X112232452Y-66404000D01*
X110260116Y-66404000D01*
X110244877Y-66408475D01*
X110243672Y-66409865D01*
X110242001Y-66417548D01*
X110242001Y-66994669D01*
X108358000Y-66994669D01*
X108358000Y-65234000D01*
X108378002Y-65165879D01*
X108431658Y-65119386D01*
X108484000Y-65108000D01*
X110122636Y-65108000D01*
X110190757Y-65128002D01*
G37*
%TD.AperFunction*%
%TA.AperFunction,Conductor*%
G36*
X120449473Y-65128002D02*
G01*
X120495966Y-65181658D01*
X120506070Y-65251932D01*
X120502829Y-65264585D01*
X120503349Y-65264709D01*
X120497895Y-65287649D01*
X120492369Y-65338514D01*
X120492000Y-65345328D01*
X120492000Y-65917885D01*
X120496475Y-65933124D01*
X120497865Y-65934329D01*
X120505548Y-65936000D01*
X124989884Y-65936000D01*
X125005123Y-65931525D01*
X125006328Y-65930135D01*
X125007999Y-65922452D01*
X125007999Y-65345331D01*
X125007629Y-65338510D01*
X125002105Y-65287648D01*
X124996651Y-65264707D01*
X124999625Y-65264000D01*
X124995482Y-65207426D01*
X125029401Y-65145056D01*
X125091655Y-65110925D01*
X125118648Y-65108000D01*
X127266519Y-65108000D01*
X127334640Y-65128002D01*
X127381133Y-65181658D01*
X127391237Y-65251932D01*
X127361743Y-65316512D01*
X127332822Y-65341144D01*
X127275652Y-65376522D01*
X127150695Y-65501697D01*
X127057885Y-65652262D01*
X127055581Y-65659209D01*
X127033769Y-65724970D01*
X126999688Y-65776419D01*
X127000400Y-65777176D01*
X126999968Y-65777582D01*
X126997424Y-65779837D01*
X126997350Y-65779949D01*
X126997284Y-65780007D01*
X126997261Y-65779981D01*
X126994500Y-65782429D01*
X126991267Y-65785132D01*
X126985148Y-65789144D01*
X126957022Y-65818834D01*
X126931872Y-65845383D01*
X126929494Y-65847825D01*
X122901595Y-69875724D01*
X122839283Y-69909750D01*
X122768468Y-69904685D01*
X122723405Y-69875724D01*
X119882350Y-67034669D01*
X120492001Y-67034669D01*
X120492371Y-67041490D01*
X120497895Y-67092352D01*
X120501521Y-67107604D01*
X120546676Y-67228054D01*
X120555214Y-67243649D01*
X120631715Y-67345724D01*
X120644276Y-67358285D01*
X120746351Y-67434786D01*
X120761946Y-67443324D01*
X120882394Y-67488478D01*
X120897649Y-67492105D01*
X120948514Y-67497631D01*
X120955328Y-67498000D01*
X122477885Y-67498000D01*
X122493124Y-67493525D01*
X122494329Y-67492135D01*
X122496000Y-67484452D01*
X122496000Y-67479884D01*
X123004000Y-67479884D01*
X123008475Y-67495123D01*
X123009865Y-67496328D01*
X123017548Y-67497999D01*
X124544669Y-67497999D01*
X124551490Y-67497629D01*
X124602352Y-67492105D01*
X124617604Y-67488479D01*
X124738054Y-67443324D01*
X124753649Y-67434786D01*
X124855724Y-67358285D01*
X124868285Y-67345724D01*
X124944786Y-67243649D01*
X124953324Y-67228054D01*
X124998478Y-67107606D01*
X125002105Y-67092351D01*
X125007631Y-67041486D01*
X125008000Y-67034672D01*
X125008000Y-66462115D01*
X125003525Y-66446876D01*
X125002135Y-66445671D01*
X124994452Y-66444000D01*
X123022115Y-66444000D01*
X123006876Y-66448475D01*
X123005671Y-66449865D01*
X123004000Y-66457548D01*
X123004000Y-67479884D01*
X122496000Y-67479884D01*
X122496000Y-66462115D01*
X122491525Y-66446876D01*
X122490135Y-66445671D01*
X122482452Y-66444000D01*
X120510116Y-66444000D01*
X120494877Y-66448475D01*
X120493672Y-66449865D01*
X120492001Y-66457548D01*
X120492001Y-67034669D01*
X119882350Y-67034669D01*
X118733770Y-65886089D01*
X118721384Y-65871677D01*
X118712851Y-65860082D01*
X118712846Y-65860077D01*
X118708508Y-65854182D01*
X118702930Y-65849443D01*
X118702927Y-65849440D01*
X118668232Y-65819965D01*
X118660716Y-65813035D01*
X118659040Y-65811359D01*
X118628611Y-65762140D01*
X118593868Y-65658002D01*
X118591550Y-65651054D01*
X118498478Y-65500652D01*
X118373303Y-65375695D01*
X118360541Y-65367828D01*
X118347399Y-65359728D01*
X118317439Y-65341260D01*
X118269946Y-65288488D01*
X118258522Y-65218416D01*
X118286796Y-65153292D01*
X118345790Y-65113793D01*
X118383555Y-65108000D01*
X120381352Y-65108000D01*
X120449473Y-65128002D01*
G37*
%TD.AperFunction*%
%TD*%
M02*
