%TF.GenerationSoftware,KiCad,Pcbnew,(6.0.2-0)*%
%TF.CreationDate,2022-07-29T18:45:40+02:00*%
%TF.ProjectId,2xMixer,32784d69-7865-4722-9e6b-696361645f70,rev?*%
%TF.SameCoordinates,Original*%
%TF.FileFunction,Copper,L2,Bot*%
%TF.FilePolarity,Positive*%
%FSLAX46Y46*%
G04 Gerber Fmt 4.6, Leading zero omitted, Abs format (unit mm)*
G04 Created by KiCad (PCBNEW (6.0.2-0)) date 2022-07-29 18:45:40*
%MOMM*%
%LPD*%
G01*
G04 APERTURE LIST*
%TA.AperFunction,ComponentPad*%
%ADD10R,3.500000X1.600000*%
%TD*%
%TA.AperFunction,ComponentPad*%
%ADD11O,3.500000X1.600000*%
%TD*%
%TA.AperFunction,ComponentPad*%
%ADD12O,2.000000X2.000000*%
%TD*%
%TA.AperFunction,ComponentPad*%
%ADD13R,2.400000X1.000000*%
%TD*%
%TA.AperFunction,ComponentPad*%
%ADD14C,1.800000*%
%TD*%
%TA.AperFunction,ComponentPad*%
%ADD15O,1.700000X2.400000*%
%TD*%
%TA.AperFunction,ComponentPad*%
%ADD16R,1.800000X1.800000*%
%TD*%
%TA.AperFunction,ComponentPad*%
%ADD17O,2.500000X1.000000*%
%TD*%
%TA.AperFunction,Conductor*%
%ADD18C,0.500000*%
%TD*%
G04 APERTURE END LIST*
D10*
%TO.P,J1,S*%
%TO.N,GND*%
X133200000Y-66212500D03*
D11*
%TO.P,J1,T*%
%TO.N,Net-(J1-PadT)*%
X133200000Y-71512500D03*
%TO.P,J1,TN*%
%TO.N,unconnected-(J1-PadTN)*%
X133200000Y-77312500D03*
%TD*%
D10*
%TO.P,J2,S*%
%TO.N,GND*%
X112500000Y-66150000D03*
D11*
%TO.P,J2,T*%
%TO.N,Net-(J2-PadT)*%
X112500000Y-71450000D03*
%TO.P,J2,TN*%
%TO.N,unconnected-(J2-PadTN)*%
X112500000Y-77250000D03*
%TD*%
D10*
%TO.P,J3,S*%
%TO.N,GND*%
X122750000Y-66190000D03*
D11*
%TO.P,J3,T*%
%TO.N,Net-(J3-PadT)*%
X122750000Y-71490000D03*
%TO.P,J3,TN*%
%TO.N,unconnected-(J3-PadTN)*%
X122750000Y-77290000D03*
%TD*%
D12*
%TO.P,RV2,*%
%TO.N,GND*%
X109225000Y-70750000D03*
X119225000Y-70750000D03*
D13*
%TO.P,RV2,1,1*%
%TO.N,Net-(J2-PadT)*%
X118225000Y-81350000D03*
D14*
%TO.P,RV2,2,2*%
%TO.N,Net-(R2-Pad1)*%
X114213000Y-81350000D03*
%TO.P,RV2,3,3*%
%TO.N,GND*%
X110225000Y-81350000D03*
%TD*%
D15*
%TO.P,RV1,*%
%TO.N,GND*%
X136225000Y-70750000D03*
X126225000Y-70750000D03*
D16*
%TO.P,RV1,1,1*%
%TO.N,Net-(J1-PadT)*%
X135225000Y-81350000D03*
D14*
%TO.P,RV1,2,2*%
%TO.N,Net-(R1-Pad1)*%
X131213000Y-81350000D03*
D17*
%TO.P,RV1,3,3*%
%TO.N,GND*%
X127225000Y-81350000D03*
%TD*%
D18*
%TO.N,Net-(J2-PadT)*%
X118300000Y-81400000D02*
X118300000Y-77250000D01*
X118300000Y-77250000D02*
X112500000Y-71450000D01*
%TD*%
%TA.AperFunction,Conductor*%
%TO.N,GND*%
G36*
X110190757Y-65128002D02*
G01*
X110237250Y-65181658D01*
X110247899Y-65247607D01*
X110242369Y-65298512D01*
X110242000Y-65305328D01*
X110242000Y-65877885D01*
X110246475Y-65893124D01*
X110247865Y-65894329D01*
X110255548Y-65896000D01*
X114739884Y-65896000D01*
X114755123Y-65891525D01*
X114756328Y-65890135D01*
X114757999Y-65882452D01*
X114757999Y-65305331D01*
X114757630Y-65298512D01*
X114752100Y-65247606D01*
X114764629Y-65177724D01*
X114812950Y-65125709D01*
X114877363Y-65108000D01*
X120381352Y-65108000D01*
X120449473Y-65128002D01*
X120495966Y-65181658D01*
X120506070Y-65251932D01*
X120502829Y-65264585D01*
X120503349Y-65264709D01*
X120497895Y-65287649D01*
X120492369Y-65338514D01*
X120492000Y-65345328D01*
X120492000Y-65917885D01*
X120496475Y-65933124D01*
X120497865Y-65934329D01*
X120505548Y-65936000D01*
X124989884Y-65936000D01*
X125005123Y-65931525D01*
X125006328Y-65930135D01*
X125007999Y-65922452D01*
X125007999Y-65345331D01*
X125007629Y-65338510D01*
X125002105Y-65287648D01*
X124996651Y-65264707D01*
X124999625Y-65264000D01*
X124995482Y-65207426D01*
X125029401Y-65145056D01*
X125091655Y-65110925D01*
X125118648Y-65108000D01*
X130839787Y-65108000D01*
X130907908Y-65128002D01*
X130954401Y-65181658D01*
X130964505Y-65251932D01*
X130957769Y-65278230D01*
X130951522Y-65294895D01*
X130947895Y-65310149D01*
X130942369Y-65361014D01*
X130942000Y-65367828D01*
X130942000Y-65940385D01*
X130946475Y-65955624D01*
X130947865Y-65956829D01*
X130955548Y-65958500D01*
X135439884Y-65958500D01*
X135455123Y-65954025D01*
X135456328Y-65952635D01*
X135457999Y-65944952D01*
X135457999Y-65367831D01*
X135457629Y-65361010D01*
X135452105Y-65310148D01*
X135448479Y-65294897D01*
X135442231Y-65278230D01*
X135437048Y-65207423D01*
X135470968Y-65145054D01*
X135533223Y-65110925D01*
X135560213Y-65108000D01*
X136941000Y-65108000D01*
X137009121Y-65128002D01*
X137055614Y-65181658D01*
X137067000Y-65234000D01*
X137067000Y-69099207D01*
X137046998Y-69167328D01*
X136993342Y-69213821D01*
X136923068Y-69223925D01*
X136883895Y-69211524D01*
X136742516Y-69139643D01*
X136732665Y-69135643D01*
X136522760Y-69070466D01*
X136512376Y-69068183D01*
X136496957Y-69066139D01*
X136482793Y-69068335D01*
X136479000Y-69081522D01*
X136479000Y-72416192D01*
X136482973Y-72429723D01*
X136493580Y-72431248D01*
X136611421Y-72406523D01*
X136621617Y-72403463D01*
X136826029Y-72322737D01*
X136835561Y-72318006D01*
X136875634Y-72293689D01*
X136944248Y-72275450D01*
X137011830Y-72297201D01*
X137056925Y-72352037D01*
X137067000Y-72401408D01*
X137067000Y-82366000D01*
X137046998Y-82434121D01*
X136993342Y-82480614D01*
X136941000Y-82492000D01*
X136752869Y-82492000D01*
X136684748Y-82471998D01*
X136638255Y-82418342D01*
X136627606Y-82352393D01*
X136633131Y-82301533D01*
X136633131Y-82301529D01*
X136633500Y-82298134D01*
X136633500Y-80401866D01*
X136626745Y-80339684D01*
X136575615Y-80203295D01*
X136488261Y-80086739D01*
X136371705Y-79999385D01*
X136235316Y-79948255D01*
X136173134Y-79941500D01*
X134276866Y-79941500D01*
X134214684Y-79948255D01*
X134078295Y-79999385D01*
X133961739Y-80086739D01*
X133874385Y-80203295D01*
X133823255Y-80339684D01*
X133816500Y-80401866D01*
X133816500Y-82298134D01*
X133816869Y-82301529D01*
X133816869Y-82301533D01*
X133822394Y-82352393D01*
X133809866Y-82422275D01*
X133761545Y-82474291D01*
X133697131Y-82492000D01*
X132367461Y-82492000D01*
X132299340Y-82471998D01*
X132252847Y-82418342D01*
X132242743Y-82348068D01*
X132272237Y-82283488D01*
X132278523Y-82276747D01*
X132285643Y-82269652D01*
X132289303Y-82266005D01*
X132424458Y-82077917D01*
X132426879Y-82073020D01*
X132524784Y-81874922D01*
X132524785Y-81874920D01*
X132527078Y-81870280D01*
X132594408Y-81648671D01*
X132624640Y-81419041D01*
X132624723Y-81415663D01*
X132626245Y-81353365D01*
X132626245Y-81353361D01*
X132626327Y-81350000D01*
X132614112Y-81201425D01*
X132607773Y-81124318D01*
X132607772Y-81124312D01*
X132607349Y-81119167D01*
X132573797Y-80985592D01*
X132552184Y-80899544D01*
X132552183Y-80899540D01*
X132550925Y-80894533D01*
X132539017Y-80867146D01*
X132460630Y-80686868D01*
X132460628Y-80686865D01*
X132458570Y-80682131D01*
X132332764Y-80487665D01*
X132316204Y-80469465D01*
X132254693Y-80401866D01*
X132176887Y-80316358D01*
X132172836Y-80313159D01*
X132172832Y-80313155D01*
X131999177Y-80176011D01*
X131999172Y-80176008D01*
X131995123Y-80172810D01*
X131990607Y-80170317D01*
X131990604Y-80170315D01*
X131796879Y-80063373D01*
X131796875Y-80063371D01*
X131792355Y-80060876D01*
X131787486Y-80059152D01*
X131787482Y-80059150D01*
X131578903Y-79985288D01*
X131578899Y-79985287D01*
X131574028Y-79983562D01*
X131568935Y-79982655D01*
X131568932Y-79982654D01*
X131351095Y-79943851D01*
X131351089Y-79943850D01*
X131346006Y-79942945D01*
X131273096Y-79942054D01*
X131119581Y-79940179D01*
X131119579Y-79940179D01*
X131114411Y-79940116D01*
X130885464Y-79975150D01*
X130665314Y-80047106D01*
X130660726Y-80049494D01*
X130660722Y-80049496D01*
X130464461Y-80151663D01*
X130459872Y-80154052D01*
X130455739Y-80157155D01*
X130455736Y-80157157D01*
X130383088Y-80211703D01*
X130274655Y-80293117D01*
X130225193Y-80344876D01*
X130151494Y-80421998D01*
X130114639Y-80460564D01*
X130111725Y-80464836D01*
X130111724Y-80464837D01*
X130075695Y-80517654D01*
X129984119Y-80651899D01*
X129886602Y-80861981D01*
X129824707Y-81085169D01*
X129800095Y-81315469D01*
X129800392Y-81320622D01*
X129800392Y-81320625D01*
X129813129Y-81541529D01*
X129813427Y-81546697D01*
X129814564Y-81551743D01*
X129814565Y-81551749D01*
X129844516Y-81684649D01*
X129864346Y-81772642D01*
X129866288Y-81777424D01*
X129866289Y-81777428D01*
X129943557Y-81967715D01*
X129951484Y-81987237D01*
X130072501Y-82184719D01*
X130082741Y-82196540D01*
X130158070Y-82283503D01*
X130187552Y-82348088D01*
X130177437Y-82418361D01*
X130130936Y-82472009D01*
X130062832Y-82492000D01*
X128479755Y-82492000D01*
X128411634Y-82471998D01*
X128365141Y-82418342D01*
X128355037Y-82348068D01*
X128384531Y-82283488D01*
X128420602Y-82254748D01*
X128530077Y-82196540D01*
X128540294Y-82189751D01*
X128683933Y-82072603D01*
X128692637Y-82063959D01*
X128810784Y-81921144D01*
X128817644Y-81910973D01*
X128905804Y-81747924D01*
X128910556Y-81736619D01*
X128946250Y-81621308D01*
X128946456Y-81607205D01*
X128939701Y-81604000D01*
X127097000Y-81604000D01*
X127028879Y-81583998D01*
X126982386Y-81530342D01*
X126971000Y-81478000D01*
X126971000Y-81077885D01*
X127479000Y-81077885D01*
X127483475Y-81093124D01*
X127484865Y-81094329D01*
X127492548Y-81096000D01*
X128932924Y-81096000D01*
X128946455Y-81092027D01*
X128947575Y-81084232D01*
X128915862Y-80976479D01*
X128911269Y-80965111D01*
X128825393Y-80800846D01*
X128818679Y-80790585D01*
X128702532Y-80646127D01*
X128693954Y-80637368D01*
X128551961Y-80518222D01*
X128541841Y-80511292D01*
X128379415Y-80421998D01*
X128368142Y-80417166D01*
X128191462Y-80361120D01*
X128179468Y-80358570D01*
X128035239Y-80342393D01*
X128028215Y-80342000D01*
X127497115Y-80342000D01*
X127481876Y-80346475D01*
X127480671Y-80347865D01*
X127479000Y-80355548D01*
X127479000Y-81077885D01*
X126971000Y-81077885D01*
X126971000Y-80360115D01*
X126966525Y-80344876D01*
X126965135Y-80343671D01*
X126957452Y-80342000D01*
X126428343Y-80342000D01*
X126422195Y-80342301D01*
X126284397Y-80355812D01*
X126272362Y-80358195D01*
X126094924Y-80411767D01*
X126083584Y-80416441D01*
X125919923Y-80503460D01*
X125909701Y-80510252D01*
X125881912Y-80532915D01*
X125816480Y-80560468D01*
X125746539Y-80548272D01*
X125730015Y-80538489D01*
X125695025Y-80513989D01*
X125619619Y-80481358D01*
X125522175Y-80439190D01*
X125522171Y-80439189D01*
X125516316Y-80436655D01*
X125510069Y-80435350D01*
X125510066Y-80435349D01*
X125330443Y-80397824D01*
X125330438Y-80397823D01*
X125325707Y-80396835D01*
X125319315Y-80396500D01*
X125176337Y-80396500D01*
X125107049Y-80403538D01*
X125037622Y-80410590D01*
X125037621Y-80410590D01*
X125031273Y-80411235D01*
X125012347Y-80417166D01*
X124851549Y-80467556D01*
X124851544Y-80467558D01*
X124845459Y-80469465D01*
X124784131Y-80503460D01*
X124680729Y-80560777D01*
X124680726Y-80560779D01*
X124675150Y-80563870D01*
X124670309Y-80568019D01*
X124670305Y-80568022D01*
X124566975Y-80656587D01*
X124527302Y-80690591D01*
X124407954Y-80844453D01*
X124405138Y-80850176D01*
X124405136Y-80850179D01*
X124361608Y-80938640D01*
X124321982Y-81019171D01*
X124320373Y-81025349D01*
X124320372Y-81025351D01*
X124298477Y-81109409D01*
X124272898Y-81207607D01*
X124272564Y-81213986D01*
X124265436Y-81350000D01*
X124262707Y-81402064D01*
X124291825Y-81594599D01*
X124294028Y-81600585D01*
X124294029Y-81600591D01*
X124356860Y-81771360D01*
X124356862Y-81771365D01*
X124359063Y-81777346D01*
X124362425Y-81782768D01*
X124441916Y-81910973D01*
X124461674Y-81942840D01*
X124466055Y-81947473D01*
X124466056Y-81947474D01*
X124529312Y-82014366D01*
X124595466Y-82084322D01*
X124600696Y-82087984D01*
X124600697Y-82087985D01*
X124667391Y-82134684D01*
X124754975Y-82196011D01*
X124869953Y-82245766D01*
X124880576Y-82250363D01*
X124935151Y-82295774D01*
X124956511Y-82363481D01*
X124937875Y-82431988D01*
X124885159Y-82479544D01*
X124830536Y-82492000D01*
X120625528Y-82492000D01*
X120557407Y-82471998D01*
X120510914Y-82418342D01*
X120500810Y-82348068D01*
X120530304Y-82283488D01*
X120587849Y-82245766D01*
X120598450Y-82242444D01*
X120598452Y-82242443D01*
X120604541Y-82240535D01*
X120698193Y-82188622D01*
X120769271Y-82149223D01*
X120769274Y-82149221D01*
X120774850Y-82146130D01*
X120779691Y-82141981D01*
X120779695Y-82141978D01*
X120917855Y-82023560D01*
X120922698Y-82019409D01*
X120951367Y-81982450D01*
X121038131Y-81870594D01*
X121042046Y-81865547D01*
X121082779Y-81782768D01*
X121125200Y-81696556D01*
X121128018Y-81690829D01*
X121137737Y-81653517D01*
X121175492Y-81508575D01*
X121175492Y-81508572D01*
X121177102Y-81502393D01*
X121184417Y-81362811D01*
X121186959Y-81314317D01*
X121186959Y-81314313D01*
X121187293Y-81307936D01*
X121158175Y-81115401D01*
X121155972Y-81109415D01*
X121155971Y-81109409D01*
X121093140Y-80938640D01*
X121093138Y-80938635D01*
X121090937Y-80932654D01*
X121009212Y-80800846D01*
X120991688Y-80772582D01*
X120991687Y-80772581D01*
X120988326Y-80767160D01*
X120969773Y-80747540D01*
X120858919Y-80630315D01*
X120854534Y-80625678D01*
X120765125Y-80563073D01*
X120700259Y-80517654D01*
X120695025Y-80513989D01*
X120619619Y-80481358D01*
X120522175Y-80439190D01*
X120522171Y-80439189D01*
X120516316Y-80436655D01*
X120510069Y-80435350D01*
X120510066Y-80435349D01*
X120330443Y-80397824D01*
X120330438Y-80397823D01*
X120325707Y-80396835D01*
X120319315Y-80396500D01*
X120176337Y-80396500D01*
X120107049Y-80403538D01*
X120037622Y-80410590D01*
X120037621Y-80410590D01*
X120031273Y-80411235D01*
X119850466Y-80467896D01*
X119779482Y-80469180D01*
X119737223Y-80448488D01*
X119695430Y-80417166D01*
X119671705Y-80399385D01*
X119535316Y-80348255D01*
X119473134Y-80341500D01*
X119184500Y-80341500D01*
X119116379Y-80321498D01*
X119069886Y-80267842D01*
X119058500Y-80215500D01*
X119058500Y-77317070D01*
X119059933Y-77298120D01*
X119061169Y-77290000D01*
X120486502Y-77290000D01*
X120506457Y-77518087D01*
X120507881Y-77523400D01*
X120507881Y-77523402D01*
X120511018Y-77535107D01*
X120565716Y-77739243D01*
X120568039Y-77744224D01*
X120568039Y-77744225D01*
X120660151Y-77941762D01*
X120660154Y-77941767D01*
X120662477Y-77946749D01*
X120735902Y-78051611D01*
X120765794Y-78094300D01*
X120793802Y-78134300D01*
X120955700Y-78296198D01*
X120960208Y-78299355D01*
X120960211Y-78299357D01*
X121038389Y-78354098D01*
X121143251Y-78427523D01*
X121148233Y-78429846D01*
X121148238Y-78429849D01*
X121345775Y-78521961D01*
X121350757Y-78524284D01*
X121356065Y-78525706D01*
X121356067Y-78525707D01*
X121566598Y-78582119D01*
X121566600Y-78582119D01*
X121571913Y-78583543D01*
X121671480Y-78592254D01*
X121740149Y-78598262D01*
X121740156Y-78598262D01*
X121742873Y-78598500D01*
X123757127Y-78598500D01*
X123759844Y-78598262D01*
X123759851Y-78598262D01*
X123828520Y-78592254D01*
X123928087Y-78583543D01*
X123933400Y-78582119D01*
X123933402Y-78582119D01*
X124143933Y-78525707D01*
X124143935Y-78525706D01*
X124149243Y-78524284D01*
X124154225Y-78521961D01*
X124351762Y-78429849D01*
X124351767Y-78429846D01*
X124356749Y-78427523D01*
X124461611Y-78354098D01*
X124539789Y-78299357D01*
X124539792Y-78299355D01*
X124544300Y-78296198D01*
X124706198Y-78134300D01*
X124734207Y-78094300D01*
X124764098Y-78051611D01*
X124837523Y-77946749D01*
X124839846Y-77941767D01*
X124839849Y-77941762D01*
X124931961Y-77744225D01*
X124931961Y-77744224D01*
X124934284Y-77739243D01*
X124988983Y-77535107D01*
X124992119Y-77523402D01*
X124992119Y-77523400D01*
X124993543Y-77518087D01*
X125011530Y-77312500D01*
X130936502Y-77312500D01*
X130956457Y-77540587D01*
X131015716Y-77761743D01*
X131018039Y-77766724D01*
X131018039Y-77766725D01*
X131110151Y-77964262D01*
X131110154Y-77964267D01*
X131112477Y-77969249D01*
X131115634Y-77973757D01*
X131224889Y-78129789D01*
X131243802Y-78156800D01*
X131405700Y-78318698D01*
X131410208Y-78321855D01*
X131410211Y-78321857D01*
X131488389Y-78376598D01*
X131593251Y-78450023D01*
X131598233Y-78452346D01*
X131598238Y-78452349D01*
X131794834Y-78544022D01*
X131800757Y-78546784D01*
X131806065Y-78548206D01*
X131806067Y-78548207D01*
X132016598Y-78604619D01*
X132016600Y-78604619D01*
X132021913Y-78606043D01*
X132121480Y-78614754D01*
X132190149Y-78620762D01*
X132190156Y-78620762D01*
X132192873Y-78621000D01*
X134207127Y-78621000D01*
X134209844Y-78620762D01*
X134209851Y-78620762D01*
X134278520Y-78614754D01*
X134378087Y-78606043D01*
X134383400Y-78604619D01*
X134383402Y-78604619D01*
X134593933Y-78548207D01*
X134593935Y-78548206D01*
X134599243Y-78546784D01*
X134605166Y-78544022D01*
X134801762Y-78452349D01*
X134801767Y-78452346D01*
X134806749Y-78450023D01*
X134911611Y-78376598D01*
X134989789Y-78321857D01*
X134989792Y-78321855D01*
X134994300Y-78318698D01*
X135156198Y-78156800D01*
X135175112Y-78129789D01*
X135284366Y-77973757D01*
X135287523Y-77969249D01*
X135289846Y-77964267D01*
X135289849Y-77964262D01*
X135381961Y-77766725D01*
X135381961Y-77766724D01*
X135384284Y-77761743D01*
X135443543Y-77540587D01*
X135463498Y-77312500D01*
X135443543Y-77084413D01*
X135440838Y-77074319D01*
X135385707Y-76868567D01*
X135385706Y-76868565D01*
X135384284Y-76863257D01*
X135352817Y-76795775D01*
X135289849Y-76660738D01*
X135289846Y-76660733D01*
X135287523Y-76655751D01*
X135156198Y-76468200D01*
X134994300Y-76306302D01*
X134989792Y-76303145D01*
X134989789Y-76303143D01*
X134900529Y-76240643D01*
X134806749Y-76174977D01*
X134801767Y-76172654D01*
X134801762Y-76172651D01*
X134604225Y-76080539D01*
X134604224Y-76080539D01*
X134599243Y-76078216D01*
X134593935Y-76076794D01*
X134593933Y-76076793D01*
X134383402Y-76020381D01*
X134383400Y-76020381D01*
X134378087Y-76018957D01*
X134278520Y-76010246D01*
X134209851Y-76004238D01*
X134209844Y-76004238D01*
X134207127Y-76004000D01*
X132192873Y-76004000D01*
X132190156Y-76004238D01*
X132190149Y-76004238D01*
X132121480Y-76010246D01*
X132021913Y-76018957D01*
X132016600Y-76020381D01*
X132016598Y-76020381D01*
X131806067Y-76076793D01*
X131806065Y-76076794D01*
X131800757Y-76078216D01*
X131795776Y-76080539D01*
X131795775Y-76080539D01*
X131598238Y-76172651D01*
X131598233Y-76172654D01*
X131593251Y-76174977D01*
X131499471Y-76240643D01*
X131410211Y-76303143D01*
X131410208Y-76303145D01*
X131405700Y-76306302D01*
X131243802Y-76468200D01*
X131112477Y-76655751D01*
X131110154Y-76660733D01*
X131110151Y-76660738D01*
X131047183Y-76795775D01*
X131015716Y-76863257D01*
X131014294Y-76868565D01*
X131014293Y-76868567D01*
X130959162Y-77074319D01*
X130956457Y-77084413D01*
X130936502Y-77312500D01*
X125011530Y-77312500D01*
X125013498Y-77290000D01*
X124993543Y-77061913D01*
X124978481Y-77005702D01*
X124935707Y-76846067D01*
X124935706Y-76846065D01*
X124934284Y-76840757D01*
X124901057Y-76769500D01*
X124839849Y-76638238D01*
X124839846Y-76638233D01*
X124837523Y-76633251D01*
X124764098Y-76528389D01*
X124709357Y-76450211D01*
X124709355Y-76450208D01*
X124706198Y-76445700D01*
X124544300Y-76283802D01*
X124539792Y-76280645D01*
X124539789Y-76280643D01*
X124461611Y-76225902D01*
X124356749Y-76152477D01*
X124351767Y-76150154D01*
X124351762Y-76150151D01*
X124154225Y-76058039D01*
X124154224Y-76058039D01*
X124149243Y-76055716D01*
X124143935Y-76054294D01*
X124143933Y-76054293D01*
X123933402Y-75997881D01*
X123933400Y-75997881D01*
X123928087Y-75996457D01*
X123828520Y-75987746D01*
X123759851Y-75981738D01*
X123759844Y-75981738D01*
X123757127Y-75981500D01*
X121742873Y-75981500D01*
X121740156Y-75981738D01*
X121740149Y-75981738D01*
X121671480Y-75987746D01*
X121571913Y-75996457D01*
X121566600Y-75997881D01*
X121566598Y-75997881D01*
X121356067Y-76054293D01*
X121356065Y-76054294D01*
X121350757Y-76055716D01*
X121345776Y-76058039D01*
X121345775Y-76058039D01*
X121148238Y-76150151D01*
X121148233Y-76150154D01*
X121143251Y-76152477D01*
X121038389Y-76225902D01*
X120960211Y-76280643D01*
X120960208Y-76280645D01*
X120955700Y-76283802D01*
X120793802Y-76445700D01*
X120790645Y-76450208D01*
X120790643Y-76450211D01*
X120735902Y-76528389D01*
X120662477Y-76633251D01*
X120660154Y-76638233D01*
X120660151Y-76638238D01*
X120598943Y-76769500D01*
X120565716Y-76840757D01*
X120564294Y-76846065D01*
X120564293Y-76846067D01*
X120521519Y-77005702D01*
X120506457Y-77061913D01*
X120486502Y-77290000D01*
X119061169Y-77290000D01*
X119062099Y-77283885D01*
X119062099Y-77283881D01*
X119063199Y-77276651D01*
X119058915Y-77223982D01*
X119058500Y-77213767D01*
X119058500Y-77205707D01*
X119055209Y-77177480D01*
X119054778Y-77173121D01*
X119049454Y-77107662D01*
X119049453Y-77107659D01*
X119048860Y-77100364D01*
X119046604Y-77093400D01*
X119045417Y-77087461D01*
X119044030Y-77081590D01*
X119043182Y-77074319D01*
X119040686Y-77067443D01*
X119040684Y-77067434D01*
X119018275Y-77005702D01*
X119016865Y-77001598D01*
X118994352Y-76932101D01*
X118990556Y-76925846D01*
X118988057Y-76920387D01*
X118985329Y-76914939D01*
X118982833Y-76908063D01*
X118942805Y-76847010D01*
X118940481Y-76843327D01*
X118935899Y-76835775D01*
X118911626Y-76795775D01*
X118905504Y-76785686D01*
X118905501Y-76785682D01*
X118902595Y-76780893D01*
X118898886Y-76776694D01*
X118898883Y-76776689D01*
X118895197Y-76772516D01*
X118895224Y-76772492D01*
X118892571Y-76769500D01*
X118889868Y-76766267D01*
X118885856Y-76760148D01*
X118829617Y-76706872D01*
X118827175Y-76704494D01*
X114514807Y-72392126D01*
X114480781Y-72329814D01*
X114485846Y-72258999D01*
X114500689Y-72230760D01*
X114506994Y-72221756D01*
X114587523Y-72106749D01*
X114589846Y-72101767D01*
X114589849Y-72101762D01*
X114681961Y-71904225D01*
X114681961Y-71904224D01*
X114684284Y-71899243D01*
X114728265Y-71735107D01*
X114742119Y-71683402D01*
X114742119Y-71683400D01*
X114743543Y-71678087D01*
X114763498Y-71450000D01*
X114743543Y-71221913D01*
X114741057Y-71212634D01*
X114688752Y-71017431D01*
X117738353Y-71017431D01*
X117785218Y-71212634D01*
X117788264Y-71222008D01*
X117875313Y-71432163D01*
X117879795Y-71440958D01*
X117998643Y-71634899D01*
X118004443Y-71642883D01*
X118152178Y-71815858D01*
X118159142Y-71822822D01*
X118332117Y-71970557D01*
X118340101Y-71976357D01*
X118534042Y-72095205D01*
X118542837Y-72099687D01*
X118752992Y-72186736D01*
X118762366Y-72189782D01*
X118953385Y-72235642D01*
X118967469Y-72234937D01*
X118971000Y-72226056D01*
X118971000Y-72221756D01*
X119479000Y-72221756D01*
X119482973Y-72235287D01*
X119492431Y-72236647D01*
X119687634Y-72189782D01*
X119697008Y-72186736D01*
X119907163Y-72099687D01*
X119915958Y-72095205D01*
X120109899Y-71976357D01*
X120117883Y-71970557D01*
X120290858Y-71822822D01*
X120297822Y-71815858D01*
X120321041Y-71788672D01*
X120380491Y-71749863D01*
X120451486Y-71749357D01*
X120511485Y-71787313D01*
X120538559Y-71837892D01*
X120563864Y-71932330D01*
X120565716Y-71939243D01*
X120568039Y-71944224D01*
X120568039Y-71944225D01*
X120660151Y-72141762D01*
X120660154Y-72141767D01*
X120662477Y-72146749D01*
X120735902Y-72251611D01*
X120782393Y-72318006D01*
X120793802Y-72334300D01*
X120955700Y-72496198D01*
X120960208Y-72499355D01*
X120960211Y-72499357D01*
X121038389Y-72554098D01*
X121143251Y-72627523D01*
X121148233Y-72629846D01*
X121148238Y-72629849D01*
X121345775Y-72721961D01*
X121350757Y-72724284D01*
X121356065Y-72725706D01*
X121356067Y-72725707D01*
X121566598Y-72782119D01*
X121566600Y-72782119D01*
X121571913Y-72783543D01*
X121671480Y-72792254D01*
X121740149Y-72798262D01*
X121740156Y-72798262D01*
X121742873Y-72798500D01*
X123757127Y-72798500D01*
X123759844Y-72798262D01*
X123759851Y-72798262D01*
X123828520Y-72792254D01*
X123928087Y-72783543D01*
X123933400Y-72782119D01*
X123933402Y-72782119D01*
X124143933Y-72725707D01*
X124143935Y-72725706D01*
X124149243Y-72724284D01*
X124154225Y-72721961D01*
X124351762Y-72629849D01*
X124351767Y-72629846D01*
X124356749Y-72627523D01*
X124461611Y-72554098D01*
X124539789Y-72499357D01*
X124539792Y-72499355D01*
X124544300Y-72496198D01*
X124706198Y-72334300D01*
X124717608Y-72318006D01*
X124764098Y-72251611D01*
X124837523Y-72146749D01*
X124839847Y-72141764D01*
X124839851Y-72141758D01*
X124929525Y-71949449D01*
X124976442Y-71896163D01*
X125044719Y-71876702D01*
X125112679Y-71897244D01*
X125148240Y-71932330D01*
X125159853Y-71949580D01*
X125166519Y-71957870D01*
X125318228Y-72116900D01*
X125326186Y-72123941D01*
X125502525Y-72255141D01*
X125511562Y-72260745D01*
X125707484Y-72360357D01*
X125717335Y-72364357D01*
X125927240Y-72429534D01*
X125937624Y-72431817D01*
X125953043Y-72433861D01*
X125967207Y-72431665D01*
X125971000Y-72418478D01*
X125971000Y-72416192D01*
X126479000Y-72416192D01*
X126482973Y-72429723D01*
X126493580Y-72431248D01*
X126611421Y-72406523D01*
X126621617Y-72403463D01*
X126826029Y-72322737D01*
X126835561Y-72318006D01*
X127023462Y-72203984D01*
X127032052Y-72197720D01*
X127198052Y-72053673D01*
X127205472Y-72046042D01*
X127344826Y-71876089D01*
X127350850Y-71867322D01*
X127459576Y-71676318D01*
X127464041Y-71666654D01*
X127519996Y-71512500D01*
X130936502Y-71512500D01*
X130956457Y-71740587D01*
X130957881Y-71745900D01*
X130957881Y-71745902D01*
X130958943Y-71749863D01*
X131015716Y-71961743D01*
X131018039Y-71966724D01*
X131018039Y-71966725D01*
X131110151Y-72164262D01*
X131110154Y-72164267D01*
X131112477Y-72169249D01*
X131158966Y-72235642D01*
X131224889Y-72329789D01*
X131243802Y-72356800D01*
X131405700Y-72518698D01*
X131410208Y-72521855D01*
X131410211Y-72521857D01*
X131488389Y-72576598D01*
X131593251Y-72650023D01*
X131598233Y-72652346D01*
X131598238Y-72652349D01*
X131794834Y-72744022D01*
X131800757Y-72746784D01*
X131806065Y-72748206D01*
X131806067Y-72748207D01*
X132016598Y-72804619D01*
X132016600Y-72804619D01*
X132021913Y-72806043D01*
X132121480Y-72814754D01*
X132190149Y-72820762D01*
X132190156Y-72820762D01*
X132192873Y-72821000D01*
X134207127Y-72821000D01*
X134209844Y-72820762D01*
X134209851Y-72820762D01*
X134278520Y-72814754D01*
X134378087Y-72806043D01*
X134383400Y-72804619D01*
X134383402Y-72804619D01*
X134593933Y-72748207D01*
X134593935Y-72748206D01*
X134599243Y-72746784D01*
X134605166Y-72744022D01*
X134801762Y-72652349D01*
X134801767Y-72652346D01*
X134806749Y-72650023D01*
X134911611Y-72576598D01*
X134989789Y-72521857D01*
X134989792Y-72521855D01*
X134994300Y-72518698D01*
X135156198Y-72356800D01*
X135175112Y-72329789D01*
X135247242Y-72226776D01*
X135302699Y-72182448D01*
X135373319Y-72175139D01*
X135425668Y-72197958D01*
X135502525Y-72255141D01*
X135511562Y-72260745D01*
X135707484Y-72360357D01*
X135717335Y-72364357D01*
X135927240Y-72429534D01*
X135937624Y-72431817D01*
X135953043Y-72433861D01*
X135967207Y-72431665D01*
X135971000Y-72418478D01*
X135971000Y-69083808D01*
X135967027Y-69070277D01*
X135956420Y-69068752D01*
X135838579Y-69093477D01*
X135828383Y-69096537D01*
X135623971Y-69177263D01*
X135614439Y-69181994D01*
X135426538Y-69296016D01*
X135417948Y-69302280D01*
X135251948Y-69446327D01*
X135244528Y-69453958D01*
X135105174Y-69623911D01*
X135099150Y-69632678D01*
X134990424Y-69823682D01*
X134985959Y-69833346D01*
X134910969Y-70039941D01*
X134908198Y-70050208D01*
X134875236Y-70232491D01*
X134843432Y-70295965D01*
X134782359Y-70332168D01*
X134711409Y-70329606D01*
X134697998Y-70324265D01*
X134604230Y-70280541D01*
X134604225Y-70280539D01*
X134599243Y-70278216D01*
X134593935Y-70276794D01*
X134593933Y-70276793D01*
X134383402Y-70220381D01*
X134383400Y-70220381D01*
X134378087Y-70218957D01*
X134278520Y-70210246D01*
X134209851Y-70204238D01*
X134209844Y-70204238D01*
X134207127Y-70204000D01*
X132192873Y-70204000D01*
X132190156Y-70204238D01*
X132190149Y-70204238D01*
X132121480Y-70210246D01*
X132021913Y-70218957D01*
X132016600Y-70220381D01*
X132016598Y-70220381D01*
X131806067Y-70276793D01*
X131806065Y-70276794D01*
X131800757Y-70278216D01*
X131795776Y-70280539D01*
X131795775Y-70280539D01*
X131598238Y-70372651D01*
X131598233Y-70372654D01*
X131593251Y-70374977D01*
X131499471Y-70440643D01*
X131410211Y-70503143D01*
X131410208Y-70503145D01*
X131405700Y-70506302D01*
X131243802Y-70668200D01*
X131112477Y-70855751D01*
X131110154Y-70860733D01*
X131110151Y-70860738D01*
X131026208Y-71040757D01*
X131015716Y-71063257D01*
X131014294Y-71068565D01*
X131014293Y-71068567D01*
X130970409Y-71232345D01*
X130956457Y-71284413D01*
X130936502Y-71512500D01*
X127519996Y-71512500D01*
X127539031Y-71460059D01*
X127541802Y-71449792D01*
X127581123Y-71232345D01*
X127582056Y-71224116D01*
X127582930Y-71205598D01*
X127583000Y-71202623D01*
X127583000Y-71022115D01*
X127578525Y-71006876D01*
X127577135Y-71005671D01*
X127569452Y-71004000D01*
X126497115Y-71004000D01*
X126481876Y-71008475D01*
X126480671Y-71009865D01*
X126479000Y-71017548D01*
X126479000Y-72416192D01*
X125971000Y-72416192D01*
X125971000Y-70477885D01*
X126479000Y-70477885D01*
X126483475Y-70493124D01*
X126484865Y-70494329D01*
X126492548Y-70496000D01*
X127564885Y-70496000D01*
X127580124Y-70491525D01*
X127581329Y-70490135D01*
X127583000Y-70482452D01*
X127583000Y-70344794D01*
X127582775Y-70339485D01*
X127568876Y-70175675D01*
X127567086Y-70165203D01*
X127511870Y-69952465D01*
X127508335Y-69942425D01*
X127418063Y-69742030D01*
X127412894Y-69732744D01*
X127290150Y-69550425D01*
X127283481Y-69542130D01*
X127131772Y-69383100D01*
X127123814Y-69376059D01*
X126947475Y-69244859D01*
X126938438Y-69239255D01*
X126742516Y-69139643D01*
X126732665Y-69135643D01*
X126522760Y-69070466D01*
X126512376Y-69068183D01*
X126496957Y-69066139D01*
X126482793Y-69068335D01*
X126479000Y-69081522D01*
X126479000Y-70477885D01*
X125971000Y-70477885D01*
X125971000Y-69083808D01*
X125967027Y-69070277D01*
X125956420Y-69068752D01*
X125838579Y-69093477D01*
X125828383Y-69096537D01*
X125623971Y-69177263D01*
X125614439Y-69181994D01*
X125426538Y-69296016D01*
X125417948Y-69302280D01*
X125251948Y-69446327D01*
X125244528Y-69453958D01*
X125105174Y-69623911D01*
X125099150Y-69632678D01*
X124990424Y-69823682D01*
X124985959Y-69833346D01*
X124910969Y-70039941D01*
X124908198Y-70050208D01*
X124868877Y-70267655D01*
X124867944Y-70275884D01*
X124867070Y-70294402D01*
X124867000Y-70297377D01*
X124867000Y-70502312D01*
X124846998Y-70570433D01*
X124793342Y-70616926D01*
X124723068Y-70627030D01*
X124658488Y-70597536D01*
X124651905Y-70591407D01*
X124544300Y-70483802D01*
X124539792Y-70480645D01*
X124539789Y-70480643D01*
X124461611Y-70425902D01*
X124356749Y-70352477D01*
X124351767Y-70350154D01*
X124351762Y-70350151D01*
X124154225Y-70258039D01*
X124154224Y-70258039D01*
X124149243Y-70255716D01*
X124143935Y-70254294D01*
X124143933Y-70254293D01*
X123933402Y-70197881D01*
X123933400Y-70197881D01*
X123928087Y-70196457D01*
X123828520Y-70187746D01*
X123759851Y-70181738D01*
X123759844Y-70181738D01*
X123757127Y-70181500D01*
X121742873Y-70181500D01*
X121740156Y-70181738D01*
X121740149Y-70181738D01*
X121671480Y-70187746D01*
X121571913Y-70196457D01*
X121566600Y-70197881D01*
X121566598Y-70197881D01*
X121356067Y-70254293D01*
X121356065Y-70254294D01*
X121350757Y-70255716D01*
X121345776Y-70258039D01*
X121345775Y-70258039D01*
X121148238Y-70350151D01*
X121148233Y-70350154D01*
X121143251Y-70352477D01*
X121038389Y-70425902D01*
X120960211Y-70480643D01*
X120960208Y-70480645D01*
X120955700Y-70483802D01*
X120918225Y-70521277D01*
X120855913Y-70555303D01*
X120785098Y-70550238D01*
X120728262Y-70507691D01*
X120706611Y-70461596D01*
X120664783Y-70287373D01*
X120661734Y-70277988D01*
X120574687Y-70067837D01*
X120570205Y-70059042D01*
X120451357Y-69865101D01*
X120445557Y-69857117D01*
X120297822Y-69684142D01*
X120290858Y-69677178D01*
X120117883Y-69529443D01*
X120109899Y-69523643D01*
X119915958Y-69404795D01*
X119907163Y-69400313D01*
X119697008Y-69313264D01*
X119687634Y-69310218D01*
X119496615Y-69264358D01*
X119482531Y-69265063D01*
X119479000Y-69273944D01*
X119479000Y-72221756D01*
X118971000Y-72221756D01*
X118971000Y-71022115D01*
X118966525Y-71006876D01*
X118965135Y-71005671D01*
X118957452Y-71004000D01*
X117753244Y-71004000D01*
X117739713Y-71007973D01*
X117738353Y-71017431D01*
X114688752Y-71017431D01*
X114685707Y-71006067D01*
X114685706Y-71006065D01*
X114684284Y-71000757D01*
X114681961Y-70995775D01*
X114589849Y-70798238D01*
X114589846Y-70798233D01*
X114587523Y-70793251D01*
X114497232Y-70664303D01*
X114459357Y-70610211D01*
X114459355Y-70610208D01*
X114456198Y-70605700D01*
X114328883Y-70478385D01*
X117739358Y-70478385D01*
X117740063Y-70492469D01*
X117748944Y-70496000D01*
X118952885Y-70496000D01*
X118968124Y-70491525D01*
X118969329Y-70490135D01*
X118971000Y-70482452D01*
X118971000Y-69278244D01*
X118967027Y-69264713D01*
X118957569Y-69263353D01*
X118762366Y-69310218D01*
X118752992Y-69313264D01*
X118542837Y-69400313D01*
X118534042Y-69404795D01*
X118340101Y-69523643D01*
X118332117Y-69529443D01*
X118159142Y-69677178D01*
X118152178Y-69684142D01*
X118004443Y-69857117D01*
X117998643Y-69865101D01*
X117879795Y-70059042D01*
X117875313Y-70067837D01*
X117788264Y-70277992D01*
X117785218Y-70287366D01*
X117739358Y-70478385D01*
X114328883Y-70478385D01*
X114294300Y-70443802D01*
X114289792Y-70440645D01*
X114289789Y-70440643D01*
X114168383Y-70355634D01*
X114106749Y-70312477D01*
X114101767Y-70310154D01*
X114101762Y-70310151D01*
X113904225Y-70218039D01*
X113904224Y-70218039D01*
X113899243Y-70215716D01*
X113893935Y-70214294D01*
X113893933Y-70214293D01*
X113683402Y-70157881D01*
X113683400Y-70157881D01*
X113678087Y-70156457D01*
X113578520Y-70147746D01*
X113509851Y-70141738D01*
X113509844Y-70141738D01*
X113507127Y-70141500D01*
X111492873Y-70141500D01*
X111490156Y-70141738D01*
X111490149Y-70141738D01*
X111421480Y-70147746D01*
X111321913Y-70156457D01*
X111316600Y-70157881D01*
X111316598Y-70157881D01*
X111106067Y-70214293D01*
X111106065Y-70214294D01*
X111100757Y-70215716D01*
X111095776Y-70218039D01*
X111095775Y-70218039D01*
X110898238Y-70310151D01*
X110898233Y-70310154D01*
X110893251Y-70312477D01*
X110859437Y-70336154D01*
X110853257Y-70340481D01*
X110785983Y-70363168D01*
X110717123Y-70345883D01*
X110668539Y-70294113D01*
X110663754Y-70282509D01*
X110663628Y-70282561D01*
X110574687Y-70067837D01*
X110570205Y-70059042D01*
X110451357Y-69865101D01*
X110445557Y-69857117D01*
X110297822Y-69684142D01*
X110290858Y-69677178D01*
X110117883Y-69529443D01*
X110109899Y-69523643D01*
X109915958Y-69404795D01*
X109907163Y-69400313D01*
X109697008Y-69313264D01*
X109687634Y-69310218D01*
X109496615Y-69264358D01*
X109482531Y-69265063D01*
X109479000Y-69273944D01*
X109479000Y-72221756D01*
X109482973Y-72235287D01*
X109492431Y-72236647D01*
X109687634Y-72189782D01*
X109697008Y-72186736D01*
X109907163Y-72099687D01*
X109915958Y-72095205D01*
X110109899Y-71976357D01*
X110117890Y-71970552D01*
X110157152Y-71937019D01*
X110221941Y-71907988D01*
X110292141Y-71918593D01*
X110345464Y-71965468D01*
X110353177Y-71979580D01*
X110410151Y-72101762D01*
X110410154Y-72101767D01*
X110412477Y-72106749D01*
X110476176Y-72197720D01*
X110502481Y-72235287D01*
X110543802Y-72294300D01*
X110705700Y-72456198D01*
X110710208Y-72459355D01*
X110710211Y-72459357D01*
X110757260Y-72492301D01*
X110893251Y-72587523D01*
X110898233Y-72589846D01*
X110898238Y-72589849D01*
X111095775Y-72681961D01*
X111100757Y-72684284D01*
X111106065Y-72685706D01*
X111106067Y-72685707D01*
X111316598Y-72742119D01*
X111316600Y-72742119D01*
X111321913Y-72743543D01*
X111421480Y-72752254D01*
X111490149Y-72758262D01*
X111490156Y-72758262D01*
X111492873Y-72758500D01*
X112683629Y-72758500D01*
X112751750Y-72778502D01*
X112772724Y-72795405D01*
X117504595Y-77527276D01*
X117538621Y-77589588D01*
X117541500Y-77616371D01*
X117541500Y-80215500D01*
X117521498Y-80283621D01*
X117467842Y-80330114D01*
X117415500Y-80341500D01*
X116976866Y-80341500D01*
X116914684Y-80348255D01*
X116778295Y-80399385D01*
X116661739Y-80486739D01*
X116574385Y-80603295D01*
X116523255Y-80739684D01*
X116516500Y-80801866D01*
X116516500Y-81898134D01*
X116523255Y-81960316D01*
X116574385Y-82096705D01*
X116661739Y-82213261D01*
X116668919Y-82218642D01*
X116668920Y-82218643D01*
X116731006Y-82265174D01*
X116773521Y-82322033D01*
X116778547Y-82392852D01*
X116744487Y-82455145D01*
X116682155Y-82489135D01*
X116655441Y-82492000D01*
X115367461Y-82492000D01*
X115299340Y-82471998D01*
X115252847Y-82418342D01*
X115242743Y-82348068D01*
X115272237Y-82283488D01*
X115278523Y-82276747D01*
X115285643Y-82269652D01*
X115289303Y-82266005D01*
X115424458Y-82077917D01*
X115426879Y-82073020D01*
X115524784Y-81874922D01*
X115524785Y-81874920D01*
X115527078Y-81870280D01*
X115594408Y-81648671D01*
X115624640Y-81419041D01*
X115624723Y-81415663D01*
X115626245Y-81353365D01*
X115626245Y-81353361D01*
X115626327Y-81350000D01*
X115614112Y-81201425D01*
X115607773Y-81124318D01*
X115607772Y-81124312D01*
X115607349Y-81119167D01*
X115573797Y-80985592D01*
X115552184Y-80899544D01*
X115552183Y-80899540D01*
X115550925Y-80894533D01*
X115539017Y-80867146D01*
X115460630Y-80686868D01*
X115460628Y-80686865D01*
X115458570Y-80682131D01*
X115332764Y-80487665D01*
X115316204Y-80469465D01*
X115254693Y-80401866D01*
X115176887Y-80316358D01*
X115172836Y-80313159D01*
X115172832Y-80313155D01*
X114999177Y-80176011D01*
X114999172Y-80176008D01*
X114995123Y-80172810D01*
X114990607Y-80170317D01*
X114990604Y-80170315D01*
X114796879Y-80063373D01*
X114796875Y-80063371D01*
X114792355Y-80060876D01*
X114787486Y-80059152D01*
X114787482Y-80059150D01*
X114578903Y-79985288D01*
X114578899Y-79985287D01*
X114574028Y-79983562D01*
X114568935Y-79982655D01*
X114568932Y-79982654D01*
X114351095Y-79943851D01*
X114351089Y-79943850D01*
X114346006Y-79942945D01*
X114273096Y-79942054D01*
X114119581Y-79940179D01*
X114119579Y-79940179D01*
X114114411Y-79940116D01*
X113885464Y-79975150D01*
X113665314Y-80047106D01*
X113660726Y-80049494D01*
X113660722Y-80049496D01*
X113464461Y-80151663D01*
X113459872Y-80154052D01*
X113455739Y-80157155D01*
X113455736Y-80157157D01*
X113383088Y-80211703D01*
X113274655Y-80293117D01*
X113225193Y-80344876D01*
X113151494Y-80421998D01*
X113114639Y-80460564D01*
X113111725Y-80464836D01*
X113111724Y-80464837D01*
X113075695Y-80517654D01*
X112984119Y-80651899D01*
X112886602Y-80861981D01*
X112824707Y-81085169D01*
X112800095Y-81315469D01*
X112800392Y-81320622D01*
X112800392Y-81320625D01*
X112813129Y-81541529D01*
X112813427Y-81546697D01*
X112814564Y-81551743D01*
X112814565Y-81551749D01*
X112844516Y-81684649D01*
X112864346Y-81772642D01*
X112866288Y-81777424D01*
X112866289Y-81777428D01*
X112943557Y-81967715D01*
X112951484Y-81987237D01*
X113072501Y-82184719D01*
X113082741Y-82196540D01*
X113158070Y-82283503D01*
X113187552Y-82348088D01*
X113177437Y-82418361D01*
X113130936Y-82472009D01*
X113062832Y-82492000D01*
X111059980Y-82492000D01*
X110991859Y-82471998D01*
X110970884Y-82455095D01*
X110237811Y-81722021D01*
X110223868Y-81714408D01*
X110222034Y-81714539D01*
X110215420Y-81718790D01*
X109479116Y-82455095D01*
X109416803Y-82489120D01*
X109390020Y-82492000D01*
X108484000Y-82492000D01*
X108415879Y-82471998D01*
X108369386Y-82418342D01*
X108358000Y-82366000D01*
X108358000Y-81320638D01*
X108812893Y-81320638D01*
X108825627Y-81541468D01*
X108827061Y-81551670D01*
X108875685Y-81767439D01*
X108878773Y-81777292D01*
X108961986Y-81982220D01*
X108966634Y-81991421D01*
X109055097Y-82135781D01*
X109065553Y-82145242D01*
X109074331Y-82141458D01*
X109852979Y-81362811D01*
X109859356Y-81351132D01*
X110589408Y-81351132D01*
X110589539Y-81352966D01*
X110593790Y-81359580D01*
X111371307Y-82137096D01*
X111383313Y-82143652D01*
X111395052Y-82134684D01*
X111433010Y-82081859D01*
X111438321Y-82073020D01*
X111536318Y-81874737D01*
X111540117Y-81865142D01*
X111604415Y-81653517D01*
X111606594Y-81643436D01*
X111635702Y-81422338D01*
X111636221Y-81415663D01*
X111637744Y-81353364D01*
X111637550Y-81346646D01*
X111619279Y-81124400D01*
X111617596Y-81114238D01*
X111563710Y-80899708D01*
X111560389Y-80889953D01*
X111472193Y-80687118D01*
X111467315Y-80678020D01*
X111394224Y-80565038D01*
X111383538Y-80555835D01*
X111373973Y-80560238D01*
X110597021Y-81337189D01*
X110589408Y-81351132D01*
X109859356Y-81351132D01*
X109860592Y-81348868D01*
X109860461Y-81347034D01*
X109856210Y-81340420D01*
X109078862Y-80563073D01*
X109067330Y-80556776D01*
X109055048Y-80566399D01*
X108999467Y-80647877D01*
X108994379Y-80656833D01*
X108901252Y-80857459D01*
X108897689Y-80867146D01*
X108838581Y-81080280D01*
X108836650Y-81090400D01*
X108813145Y-81310349D01*
X108812893Y-81320638D01*
X108358000Y-81320638D01*
X108358000Y-80190711D01*
X109430508Y-80190711D01*
X109437251Y-80203040D01*
X110212189Y-80977979D01*
X110226132Y-80985592D01*
X110227966Y-80985461D01*
X110234580Y-80981210D01*
X111013994Y-80201795D01*
X111021011Y-80188944D01*
X111013237Y-80178274D01*
X111010902Y-80176430D01*
X111002320Y-80170729D01*
X110808678Y-80063833D01*
X110799272Y-80059606D01*
X110590772Y-79985772D01*
X110580809Y-79983140D01*
X110363047Y-79944350D01*
X110352796Y-79943381D01*
X110131616Y-79940679D01*
X110121332Y-79941399D01*
X109902693Y-79974855D01*
X109892666Y-79977244D01*
X109682426Y-80045961D01*
X109672916Y-80049958D01*
X109476725Y-80152089D01*
X109468007Y-80157578D01*
X109438961Y-80179386D01*
X109430508Y-80190711D01*
X108358000Y-80190711D01*
X108358000Y-77250000D01*
X110236502Y-77250000D01*
X110256457Y-77478087D01*
X110257881Y-77483400D01*
X110257881Y-77483402D01*
X110271736Y-77535107D01*
X110315716Y-77699243D01*
X110318039Y-77704224D01*
X110318039Y-77704225D01*
X110410151Y-77901762D01*
X110410154Y-77901767D01*
X110412477Y-77906749D01*
X110543802Y-78094300D01*
X110705700Y-78256198D01*
X110710208Y-78259355D01*
X110710211Y-78259357D01*
X110757260Y-78292301D01*
X110893251Y-78387523D01*
X110898233Y-78389846D01*
X110898238Y-78389849D01*
X111095775Y-78481961D01*
X111100757Y-78484284D01*
X111106065Y-78485706D01*
X111106067Y-78485707D01*
X111316598Y-78542119D01*
X111316600Y-78542119D01*
X111321913Y-78543543D01*
X111421480Y-78552254D01*
X111490149Y-78558262D01*
X111490156Y-78558262D01*
X111492873Y-78558500D01*
X113507127Y-78558500D01*
X113509844Y-78558262D01*
X113509851Y-78558262D01*
X113578520Y-78552254D01*
X113678087Y-78543543D01*
X113683400Y-78542119D01*
X113683402Y-78542119D01*
X113893933Y-78485707D01*
X113893935Y-78485706D01*
X113899243Y-78484284D01*
X113904225Y-78481961D01*
X114101762Y-78389849D01*
X114101767Y-78389846D01*
X114106749Y-78387523D01*
X114242740Y-78292301D01*
X114289789Y-78259357D01*
X114289792Y-78259355D01*
X114294300Y-78256198D01*
X114456198Y-78094300D01*
X114587523Y-77906749D01*
X114589846Y-77901767D01*
X114589849Y-77901762D01*
X114681961Y-77704225D01*
X114681961Y-77704224D01*
X114684284Y-77699243D01*
X114728265Y-77535107D01*
X114742119Y-77483402D01*
X114742119Y-77483400D01*
X114743543Y-77478087D01*
X114763498Y-77250000D01*
X114743543Y-77021913D01*
X114739199Y-77005702D01*
X114685707Y-76806067D01*
X114685706Y-76806065D01*
X114684284Y-76800757D01*
X114665348Y-76760148D01*
X114589849Y-76598238D01*
X114589846Y-76598233D01*
X114587523Y-76593251D01*
X114487365Y-76450211D01*
X114459357Y-76410211D01*
X114459355Y-76410208D01*
X114456198Y-76405700D01*
X114294300Y-76243802D01*
X114289792Y-76240645D01*
X114289789Y-76240643D01*
X114168383Y-76155634D01*
X114106749Y-76112477D01*
X114101767Y-76110154D01*
X114101762Y-76110151D01*
X113904225Y-76018039D01*
X113904224Y-76018039D01*
X113899243Y-76015716D01*
X113893935Y-76014294D01*
X113893933Y-76014293D01*
X113683402Y-75957881D01*
X113683400Y-75957881D01*
X113678087Y-75956457D01*
X113578520Y-75947746D01*
X113509851Y-75941738D01*
X113509844Y-75941738D01*
X113507127Y-75941500D01*
X111492873Y-75941500D01*
X111490156Y-75941738D01*
X111490149Y-75941738D01*
X111421480Y-75947746D01*
X111321913Y-75956457D01*
X111316600Y-75957881D01*
X111316598Y-75957881D01*
X111106067Y-76014293D01*
X111106065Y-76014294D01*
X111100757Y-76015716D01*
X111095776Y-76018039D01*
X111095775Y-76018039D01*
X110898238Y-76110151D01*
X110898233Y-76110154D01*
X110893251Y-76112477D01*
X110831617Y-76155634D01*
X110710211Y-76240643D01*
X110710208Y-76240645D01*
X110705700Y-76243802D01*
X110543802Y-76405700D01*
X110540645Y-76410208D01*
X110540643Y-76410211D01*
X110512635Y-76450211D01*
X110412477Y-76593251D01*
X110410154Y-76598233D01*
X110410151Y-76598238D01*
X110334652Y-76760148D01*
X110315716Y-76800757D01*
X110314294Y-76806065D01*
X110314293Y-76806067D01*
X110260801Y-77005702D01*
X110256457Y-77021913D01*
X110236502Y-77250000D01*
X108358000Y-77250000D01*
X108358000Y-72211121D01*
X108378002Y-72143000D01*
X108431658Y-72096507D01*
X108501932Y-72086403D01*
X108538218Y-72097907D01*
X108538265Y-72097793D01*
X108539594Y-72098344D01*
X108541201Y-72098853D01*
X108542839Y-72099688D01*
X108752992Y-72186736D01*
X108762366Y-72189782D01*
X108953385Y-72235642D01*
X108967469Y-72234937D01*
X108971000Y-72226056D01*
X108971000Y-69278244D01*
X108967027Y-69264713D01*
X108957569Y-69263353D01*
X108762366Y-69310218D01*
X108752992Y-69313264D01*
X108542839Y-69400312D01*
X108541201Y-69401147D01*
X108540511Y-69401276D01*
X108538265Y-69402207D01*
X108538070Y-69401735D01*
X108471424Y-69414250D01*
X108405640Y-69387549D01*
X108364735Y-69329521D01*
X108358000Y-69288879D01*
X108358000Y-66994669D01*
X110242001Y-66994669D01*
X110242371Y-67001490D01*
X110247895Y-67052352D01*
X110251521Y-67067604D01*
X110296676Y-67188054D01*
X110305214Y-67203649D01*
X110381715Y-67305724D01*
X110394276Y-67318285D01*
X110496351Y-67394786D01*
X110511946Y-67403324D01*
X110632394Y-67448478D01*
X110647649Y-67452105D01*
X110698514Y-67457631D01*
X110705328Y-67458000D01*
X112227885Y-67458000D01*
X112243124Y-67453525D01*
X112244329Y-67452135D01*
X112246000Y-67444452D01*
X112246000Y-67439884D01*
X112754000Y-67439884D01*
X112758475Y-67455123D01*
X112759865Y-67456328D01*
X112767548Y-67457999D01*
X114294669Y-67457999D01*
X114301490Y-67457629D01*
X114352352Y-67452105D01*
X114367604Y-67448479D01*
X114488054Y-67403324D01*
X114503649Y-67394786D01*
X114605724Y-67318285D01*
X114618285Y-67305724D01*
X114694786Y-67203649D01*
X114703324Y-67188054D01*
X114748478Y-67067606D01*
X114752105Y-67052351D01*
X114754026Y-67034669D01*
X120492001Y-67034669D01*
X120492371Y-67041490D01*
X120497895Y-67092352D01*
X120501521Y-67107604D01*
X120546676Y-67228054D01*
X120555214Y-67243649D01*
X120631715Y-67345724D01*
X120644276Y-67358285D01*
X120746351Y-67434786D01*
X120761946Y-67443324D01*
X120882394Y-67488478D01*
X120897649Y-67492105D01*
X120948514Y-67497631D01*
X120955328Y-67498000D01*
X122477885Y-67498000D01*
X122493124Y-67493525D01*
X122494329Y-67492135D01*
X122496000Y-67484452D01*
X122496000Y-67479884D01*
X123004000Y-67479884D01*
X123008475Y-67495123D01*
X123009865Y-67496328D01*
X123017548Y-67497999D01*
X124544669Y-67497999D01*
X124551490Y-67497629D01*
X124602352Y-67492105D01*
X124617604Y-67488479D01*
X124738054Y-67443324D01*
X124753649Y-67434786D01*
X124855724Y-67358285D01*
X124868285Y-67345724D01*
X124944786Y-67243649D01*
X124953324Y-67228054D01*
X124998478Y-67107606D01*
X125002105Y-67092351D01*
X125005927Y-67057169D01*
X130942001Y-67057169D01*
X130942371Y-67063990D01*
X130947895Y-67114852D01*
X130951521Y-67130104D01*
X130996676Y-67250554D01*
X131005214Y-67266149D01*
X131081715Y-67368224D01*
X131094276Y-67380785D01*
X131196351Y-67457286D01*
X131211946Y-67465824D01*
X131332394Y-67510978D01*
X131347649Y-67514605D01*
X131398514Y-67520131D01*
X131405328Y-67520500D01*
X132927885Y-67520500D01*
X132943124Y-67516025D01*
X132944329Y-67514635D01*
X132946000Y-67506952D01*
X132946000Y-67502384D01*
X133454000Y-67502384D01*
X133458475Y-67517623D01*
X133459865Y-67518828D01*
X133467548Y-67520499D01*
X134994669Y-67520499D01*
X135001490Y-67520129D01*
X135052352Y-67514605D01*
X135067604Y-67510979D01*
X135188054Y-67465824D01*
X135203649Y-67457286D01*
X135305724Y-67380785D01*
X135318285Y-67368224D01*
X135394786Y-67266149D01*
X135403324Y-67250554D01*
X135448478Y-67130106D01*
X135452105Y-67114851D01*
X135457631Y-67063986D01*
X135458000Y-67057172D01*
X135458000Y-66484615D01*
X135453525Y-66469376D01*
X135452135Y-66468171D01*
X135444452Y-66466500D01*
X133472115Y-66466500D01*
X133456876Y-66470975D01*
X133455671Y-66472365D01*
X133454000Y-66480048D01*
X133454000Y-67502384D01*
X132946000Y-67502384D01*
X132946000Y-66484615D01*
X132941525Y-66469376D01*
X132940135Y-66468171D01*
X132932452Y-66466500D01*
X130960116Y-66466500D01*
X130944877Y-66470975D01*
X130943672Y-66472365D01*
X130942001Y-66480048D01*
X130942001Y-67057169D01*
X125005927Y-67057169D01*
X125007631Y-67041486D01*
X125008000Y-67034672D01*
X125008000Y-66462115D01*
X125003525Y-66446876D01*
X125002135Y-66445671D01*
X124994452Y-66444000D01*
X123022115Y-66444000D01*
X123006876Y-66448475D01*
X123005671Y-66449865D01*
X123004000Y-66457548D01*
X123004000Y-67479884D01*
X122496000Y-67479884D01*
X122496000Y-66462115D01*
X122491525Y-66446876D01*
X122490135Y-66445671D01*
X122482452Y-66444000D01*
X120510116Y-66444000D01*
X120494877Y-66448475D01*
X120493672Y-66449865D01*
X120492001Y-66457548D01*
X120492001Y-67034669D01*
X114754026Y-67034669D01*
X114757631Y-67001486D01*
X114758000Y-66994672D01*
X114758000Y-66422115D01*
X114753525Y-66406876D01*
X114752135Y-66405671D01*
X114744452Y-66404000D01*
X112772115Y-66404000D01*
X112756876Y-66408475D01*
X112755671Y-66409865D01*
X112754000Y-66417548D01*
X112754000Y-67439884D01*
X112246000Y-67439884D01*
X112246000Y-66422115D01*
X112241525Y-66406876D01*
X112240135Y-66405671D01*
X112232452Y-66404000D01*
X110260116Y-66404000D01*
X110244877Y-66408475D01*
X110243672Y-66409865D01*
X110242001Y-66417548D01*
X110242001Y-66994669D01*
X108358000Y-66994669D01*
X108358000Y-65234000D01*
X108378002Y-65165879D01*
X108431658Y-65119386D01*
X108484000Y-65108000D01*
X110122636Y-65108000D01*
X110190757Y-65128002D01*
G37*
%TD.AperFunction*%
%TD*%
M02*
