M48
; DRILL file {KiCad (6.0.2-0)} date 2022 July 29, Friday 18:45:45
; FORMAT={-:-/ absolute / inch / decimal}
; #@! TF.CreationDate,2022-07-29T18:45:45+02:00
; #@! TF.GenerationSoftware,Kicad,Pcbnew,(6.0.2-0)
; #@! TF.FileFunction,Plated,1,2,PTH
FMAT,2
INCH
; #@! TA.AperFunction,Plated,PTH,ComponentDrill
T1C0.0236
; #@! TA.AperFunction,Plated,PTH,ComponentDrill
T2C0.0394
%
G90
G05
T2
X4.3002Y-2.7854
X4.3396Y-3.2028
X4.4966Y-3.2028
X4.6545Y-3.2028
X4.6939Y-2.7854
X4.9695Y-2.7854
X5.0089Y-3.2028
X5.1659Y-3.2028
X5.3238Y-3.2028
X5.3632Y-2.7854
T1
G00X4.4665Y-2.6043
M15
G01X4.3917Y-2.6043
M16
G05
G00X4.4665Y-2.813
M15
G01X4.3917Y-2.813
M16
G05
G00X4.4665Y-3.0413
M15
G01X4.3917Y-3.0413
M16
G05
G00X4.8701Y-2.6059
M15
G01X4.7953Y-2.6059
M16
G05
G00X4.8701Y-2.8146
M15
G01X4.7953Y-2.8146
M16
G05
G00X4.8701Y-3.0429
M15
G01X4.7953Y-3.0429
M16
G05
G00X5.2815Y-2.6068
M15
G01X5.2067Y-2.6068
M16
G05
G00X5.2815Y-2.8155
M15
G01X5.2067Y-2.8155
M16
G05
G00X5.2815Y-3.0438
M15
G01X5.2067Y-3.0438
M16
G05
T0
M30
