%TF.GenerationSoftware,KiCad,Pcbnew,(6.0.2-0)*%
%TF.CreationDate,2022-07-29T18:45:40+02:00*%
%TF.ProjectId,2xMixer,32784d69-7865-4722-9e6b-696361645f70,rev?*%
%TF.SameCoordinates,Original*%
%TF.FileFunction,Legend,Top*%
%TF.FilePolarity,Positive*%
%FSLAX46Y46*%
G04 Gerber Fmt 4.6, Leading zero omitted, Abs format (unit mm)*
G04 Created by KiCad (PCBNEW (6.0.2-0)) date 2022-07-29 18:45:40*
%MOMM*%
%LPD*%
G01*
G04 APERTURE LIST*
%ADD10C,0.200000*%
%ADD11C,0.250000*%
%ADD12C,0.150000*%
%ADD13C,0.120000*%
G04 APERTURE END LIST*
D10*
X121817857Y-75060714D02*
X121703571Y-75117857D01*
X121475000Y-75117857D01*
X121360714Y-75060714D01*
X121303571Y-75003571D01*
X121246428Y-74889285D01*
X121246428Y-74546428D01*
X121303571Y-74432142D01*
X121360714Y-74375000D01*
X121475000Y-74317857D01*
X121703571Y-74317857D01*
X121817857Y-74375000D01*
X122503571Y-75117857D02*
X122389285Y-75060714D01*
X122332142Y-74946428D01*
X122332142Y-73917857D01*
X122960714Y-75117857D02*
X122960714Y-74317857D01*
X122960714Y-73917857D02*
X122903571Y-73975000D01*
X122960714Y-74032142D01*
X123017857Y-73975000D01*
X122960714Y-73917857D01*
X122960714Y-74032142D01*
X123532142Y-74317857D02*
X123532142Y-75517857D01*
X123532142Y-74375000D02*
X123646428Y-74317857D01*
X123875000Y-74317857D01*
X123989285Y-74375000D01*
X124046428Y-74432142D01*
X124103571Y-74546428D01*
X124103571Y-74889285D01*
X124046428Y-75003571D01*
X123989285Y-75060714D01*
X123875000Y-75117857D01*
X123646428Y-75117857D01*
X123532142Y-75060714D01*
D11*
X120089285Y-77953571D02*
X119375000Y-77953571D01*
X119375000Y-76453571D01*
X125889285Y-77953571D02*
X125389285Y-77239285D01*
X125032142Y-77953571D02*
X125032142Y-76453571D01*
X125603571Y-76453571D01*
X125746428Y-76525000D01*
X125817857Y-76596428D01*
X125889285Y-76739285D01*
X125889285Y-76953571D01*
X125817857Y-77096428D01*
X125746428Y-77167857D01*
X125603571Y-77239285D01*
X125032142Y-77239285D01*
D10*
X121339285Y-68842857D02*
X121339285Y-68042857D01*
X121339285Y-68157142D02*
X121396428Y-68100000D01*
X121510714Y-68042857D01*
X121682142Y-68042857D01*
X121796428Y-68100000D01*
X121853571Y-68214285D01*
X121853571Y-68842857D01*
X121853571Y-68214285D02*
X121910714Y-68100000D01*
X122025000Y-68042857D01*
X122196428Y-68042857D01*
X122310714Y-68100000D01*
X122367857Y-68214285D01*
X122367857Y-68842857D01*
X122939285Y-68842857D02*
X122939285Y-68042857D01*
X122939285Y-67642857D02*
X122882142Y-67700000D01*
X122939285Y-67757142D01*
X122996428Y-67700000D01*
X122939285Y-67642857D01*
X122939285Y-67757142D01*
X123396428Y-68842857D02*
X124025000Y-68042857D01*
X123396428Y-68042857D02*
X124025000Y-68842857D01*
D12*
%TO.C,D1*%
X124586904Y-75952380D02*
X124586904Y-74952380D01*
X124825000Y-74952380D01*
X124967857Y-75000000D01*
X125063095Y-75095238D01*
X125110714Y-75190476D01*
X125158333Y-75380952D01*
X125158333Y-75523809D01*
X125110714Y-75714285D01*
X125063095Y-75809523D01*
X124967857Y-75904761D01*
X124825000Y-75952380D01*
X124586904Y-75952380D01*
X126110714Y-75952380D02*
X125539285Y-75952380D01*
X125825000Y-75952380D02*
X125825000Y-74952380D01*
X125729761Y-75095238D01*
X125634523Y-75190476D01*
X125539285Y-75238095D01*
%TO.C,R1*%
X125283333Y-69202380D02*
X124950000Y-68726190D01*
X124711904Y-69202380D02*
X124711904Y-68202380D01*
X125092857Y-68202380D01*
X125188095Y-68250000D01*
X125235714Y-68297619D01*
X125283333Y-68392857D01*
X125283333Y-68535714D01*
X125235714Y-68630952D01*
X125188095Y-68678571D01*
X125092857Y-68726190D01*
X124711904Y-68726190D01*
X126235714Y-69202380D02*
X125664285Y-69202380D01*
X125950000Y-69202380D02*
X125950000Y-68202380D01*
X125854761Y-68345238D01*
X125759523Y-68440476D01*
X125664285Y-68488095D01*
%TO.C,R2*%
X119908333Y-69427380D02*
X119575000Y-68951190D01*
X119336904Y-69427380D02*
X119336904Y-68427380D01*
X119717857Y-68427380D01*
X119813095Y-68475000D01*
X119860714Y-68522619D01*
X119908333Y-68617857D01*
X119908333Y-68760714D01*
X119860714Y-68855952D01*
X119813095Y-68903571D01*
X119717857Y-68951190D01*
X119336904Y-68951190D01*
X120289285Y-68522619D02*
X120336904Y-68475000D01*
X120432142Y-68427380D01*
X120670238Y-68427380D01*
X120765476Y-68475000D01*
X120813095Y-68522619D01*
X120860714Y-68617857D01*
X120860714Y-68713095D01*
X120813095Y-68855952D01*
X120241666Y-69427380D01*
X120860714Y-69427380D01*
%TO.C,R5*%
X119933333Y-76027380D02*
X119600000Y-75551190D01*
X119361904Y-76027380D02*
X119361904Y-75027380D01*
X119742857Y-75027380D01*
X119838095Y-75075000D01*
X119885714Y-75122619D01*
X119933333Y-75217857D01*
X119933333Y-75360714D01*
X119885714Y-75455952D01*
X119838095Y-75503571D01*
X119742857Y-75551190D01*
X119361904Y-75551190D01*
X120838095Y-75027380D02*
X120361904Y-75027380D01*
X120314285Y-75503571D01*
X120361904Y-75455952D01*
X120457142Y-75408333D01*
X120695238Y-75408333D01*
X120790476Y-75455952D01*
X120838095Y-75503571D01*
X120885714Y-75598809D01*
X120885714Y-75836904D01*
X120838095Y-75932142D01*
X120790476Y-75979761D01*
X120695238Y-76027380D01*
X120457142Y-76027380D01*
X120361904Y-75979761D01*
X120314285Y-75932142D01*
D13*
%TO.C,D1*%
X129625000Y-71550000D02*
X126325000Y-71550000D01*
X126325000Y-71550000D02*
X126325000Y-76950000D01*
X129625000Y-71550000D02*
X129625000Y-76950000D01*
%TO.C,R1*%
X127465000Y-68652064D02*
X127465000Y-67197936D01*
X129285000Y-68652064D02*
X129285000Y-67197936D01*
%TO.C,J1*%
X136857600Y-64400500D02*
X136908400Y-78675300D01*
X129542400Y-64400500D02*
X129542400Y-78675300D01*
X129542400Y-78675300D02*
X136908400Y-78675300D01*
X136095600Y-59930100D02*
X130304400Y-59930100D01*
X129542400Y-64400500D02*
X136857600Y-64400500D01*
X130304400Y-59930100D02*
X130304400Y-64400500D01*
X136095600Y-64400500D02*
X136095600Y-59930100D01*
%TO.C,SW1*%
X123175000Y-84245000D02*
X122275000Y-84245000D01*
X122075000Y-84045000D02*
X122275000Y-84245000D01*
X127675000Y-81745000D02*
X127675000Y-80955000D01*
X121875000Y-79955000D02*
X123575000Y-79955000D01*
X118375000Y-79955000D02*
X119075000Y-79955000D01*
X123375000Y-84045000D02*
X123375000Y-82745000D01*
X117775000Y-80955000D02*
X117775000Y-81745000D01*
X118375000Y-82745000D02*
X127075000Y-82745000D01*
X120375000Y-79955000D02*
X120575000Y-79955000D01*
X122075000Y-82745000D02*
X122075000Y-84045000D01*
X126375000Y-79955000D02*
X127075000Y-79955000D01*
X123375000Y-84045000D02*
X123175000Y-84245000D01*
X124875000Y-79955000D02*
X125075000Y-79955000D01*
%TO.C,J2*%
X115395600Y-59867600D02*
X109604400Y-59867600D01*
X108842400Y-64338000D02*
X108842400Y-78612800D01*
X108842400Y-64338000D02*
X116157600Y-64338000D01*
X108842400Y-78612800D02*
X116208400Y-78612800D01*
X115395600Y-64338000D02*
X115395600Y-59867600D01*
X116157600Y-64338000D02*
X116208400Y-78612800D01*
X109604400Y-59867600D02*
X109604400Y-64338000D01*
%TO.C,J3*%
X126407600Y-64378000D02*
X126458400Y-78652800D01*
X125645600Y-59907600D02*
X119854400Y-59907600D01*
X119092400Y-64378000D02*
X119092400Y-78652800D01*
X125645600Y-64378000D02*
X125645600Y-59907600D01*
X119092400Y-78652800D02*
X126458400Y-78652800D01*
X119854400Y-59907600D02*
X119854400Y-64378000D01*
X119092400Y-64378000D02*
X126407600Y-64378000D01*
%TO.C,R2*%
X116365000Y-68652064D02*
X116365000Y-67197936D01*
X118185000Y-68652064D02*
X118185000Y-67197936D01*
%TO.C,R5*%
X118460000Y-75197936D02*
X118460000Y-76652064D01*
X116640000Y-75197936D02*
X116640000Y-76652064D01*
%TD*%
M02*
